M48
; DRILL file KiCad 10.0.0 date 2026-04-14T21:21:31
; FORMAT={-:-/ absolute / inch / decimal}
; #@! TF.CreationDate,2026-04-14T21:21:31-06:00
; #@! TF.GenerationSoftware,Kicad,Pcbnew,10.0.0
; #@! TF.FileFunction,Plated,1,2,PTH
FMAT,2
INCH
; #@! TA.AperFunction,Plated,PTH,ComponentDrill
T1C0.0100
; #@! TA.AperFunction,Plated,PTH,ViaDrill
T2C0.0157
; #@! TA.AperFunction,Plated,PTH,ComponentDrill
T3C0.0197
; #@! TA.AperFunction,Plated,PTH,ComponentDrill
T4C0.0350
; #@! TA.AperFunction,Plated,PTH,ComponentDrill
T5C0.0394
; #@! TA.AperFunction,Plated,PTH,ComponentDrill
T6C0.0512
; #@! TA.AperFunction,Plated,PTH,ComponentDrill
T7C0.0713
; #@! TA.AperFunction,Plated,PTH,ComponentDrill
T8C0.1177
%
G90
G05
T1
X2.738Y-3.4875
X2.738Y-3.5597
X2.7741Y-3.4514
X2.7741Y-3.5236
X2.7741Y-3.5959
X2.8102Y-3.4875
X2.8102Y-3.5597
X2.8464Y-3.4514
X2.8464Y-3.5236
X2.8464Y-3.5959
X2.8825Y-3.4875
X2.8825Y-3.5597
T2
X1.9291Y-3.311
X2.1732Y-3.4661
X2.1732Y-3.5591
X2.2047Y-3.8386
X2.2205Y-3.2874
X2.3819Y-3.0236
X2.3976Y-3.0787
X2.4449Y-4.0551
X2.4449Y-4.1535
X2.4606Y-4.3425
X2.5Y-3.9016
X2.5276Y-2.993
X2.615Y-3.8937
X2.6181Y-4.1811
X2.6654Y-3.0787
X2.685Y-4.6102
X2.7008Y-4.0157
X2.7047Y-2.9134
X2.7165Y-3.0709
X2.815Y-4.0157
X3.0157Y-2.2559
X3.0157Y-2.9488
X3.061Y-2.3169
X3.063Y-2.9016
X3.126Y-2.5551
X3.165Y-3.0713
X3.189Y-5.4291
X3.2835Y-2.1457
X3.3425Y-1.9961
X3.3583Y-3.7402
X3.4764Y-2.1496
X3.4961Y-5.4291
X3.5433Y-3.563
X3.5433Y-3.6811
X3.5551Y-2.4252
X3.563Y-3.7795
X3.6102Y-2.4252
X3.7165Y-3.9882
X3.8071Y-2.8622
X3.9104Y-3.5039
X3.9488Y-1.8622
X3.9803Y-2.9252
X3.9803Y-3.437
X3.9803Y-3.9193
X3.9843Y-3.1417
X4.0276Y-3.5591
X4.1417Y-3.2992
X4.1417Y-3.874
X4.1811Y-4.6417
X4.2283Y-2.8937
X4.3307Y-2.5669
X4.3307Y-2.752
X4.3307Y-4.0118
X4.3898Y-5.185
X4.3976Y-5.3701
X4.5118Y-4.7165
X4.5591Y-3.7165
X4.563Y-2.7047
X4.5945Y-3.3858
X4.5984Y-2.6654
X4.6772Y-3.6957
X4.6811Y-4.7244
X4.8583Y-3.7756
X4.9252Y-5.2047
X4.9252Y-5.3898
X4.9449Y-2.5984
X5.0512Y-2.9764
X5.0512Y-3.5197
X5.0945Y-4.878
X5.1142Y-5.4173
X5.126Y-2.5945
X5.374Y-5.4134
X5.5118Y-3.0748
X5.5827Y-3.311
X5.6299Y-2.8071
X5.7933Y-3.3002
X6.1654Y-3.3957
X6.2992Y-4.9488
X6.2992Y-5.0079
X6.6693Y-1.7953
T4
X3.6819Y-1.3874
X3.6819Y-2.2874
X3.7819Y-1.3874
X3.7819Y-2.2874
X3.8819Y-1.3874
X3.8819Y-2.2874
X3.9819Y-1.3874
X3.9819Y-2.2874
X4.0819Y-1.3874
X4.0819Y-2.2874
X4.1819Y-1.3874
X4.1819Y-2.2874
X4.2819Y-1.3874
X4.2819Y-2.2874
X4.3819Y-1.3874
X4.3819Y-2.2874
T5
X4.8433Y-1.6913
X4.8433Y-1.7913
X4.8433Y-1.8913
X4.8433Y-1.9913
X5.252Y-2.5591
X5.252Y-2.6591
T6
X5.4291Y-4.626
X5.626Y-4.626
X5.8228Y-4.626
X6.0197Y-4.626
T7
X6.437Y-2.8539
X6.437Y-3.0289
X6.437Y-3.2039
X6.437Y-3.3791
X6.437Y-3.5541
X6.437Y-3.7291
X6.687Y-2.8539
X6.687Y-3.0289
X6.687Y-3.2039
X6.687Y-3.3791
X6.687Y-3.5541
X6.687Y-3.7291
T8
X6.4772Y-2.601
X6.4772Y-3.9821
X6.9272Y-3.2915
T3
G00X1.872Y-3.9961
M15
G01X1.8996Y-3.9961
M16
G05
G00X1.9744Y-4.0807
M15
G01X2.0177Y-4.0807
M16
G05
G00X2.0925Y-3.9961
M15
G01X2.1201Y-3.9961
M16
G05
G00X6.3504Y-4.6378
M15
G01X6.3504Y-4.6929
M16
G05
G00X6.4961Y-4.6378
M15
G01X6.4961Y-4.6929
M16
G05
G00X6.6654Y-4.6378
M15
G01X6.6654Y-4.6929
M16
G05
G00X6.811Y-4.6378
M15
G01X6.811Y-4.6929
M16
G05
M30
