%TF.GenerationSoftware,KiCad,Pcbnew,10.0.0*%
%TF.CreationDate,2026-04-14T21:21:31-06:00*%
%TF.ProjectId,YF1,5946312e-6b69-4636-9164-5f7063625858,rev?*%
%TF.SameCoordinates,Original*%
%TF.FileFunction,Soldermask,Top*%
%TF.FilePolarity,Negative*%
%FSLAX46Y46*%
G04 Gerber Fmt 4.6, Leading zero omitted, Abs format (unit mm)*
G04 Created by KiCad (PCBNEW 10.0.0) date 2026-04-14 21:21:31*
%MOMM*%
%LPD*%
G01*
G04 APERTURE LIST*
G04 Aperture macros list*
%AMRoundRect*
0 Rectangle with rounded corners*
0 $1 Rounding radius*
0 $2 $3 $4 $5 $6 $7 $8 $9 X,Y pos of 4 corners*
0 Add a 4 corners polygon primitive as box body*
4,1,4,$2,$3,$4,$5,$6,$7,$8,$9,$2,$3,0*
0 Add four circle primitives for the rounded corners*
1,1,$1+$1,$2,$3*
1,1,$1+$1,$4,$5*
1,1,$1+$1,$6,$7*
1,1,$1+$1,$8,$9*
0 Add four rect primitives between the rounded corners*
20,1,$1+$1,$2,$3,$4,$5,0*
20,1,$1+$1,$4,$5,$6,$7,0*
20,1,$1+$1,$6,$7,$8,$9,0*
20,1,$1+$1,$8,$9,$2,$3,0*%
G04 Aperture macros list end*
%ADD10C,0.010000*%
%ADD11RoundRect,0.150000X-0.825000X-0.150000X0.825000X-0.150000X0.825000X0.150000X-0.825000X0.150000X0*%
%ADD12RoundRect,0.200000X0.275000X-0.200000X0.275000X0.200000X-0.275000X0.200000X-0.275000X-0.200000X0*%
%ADD13RoundRect,0.250000X-1.000000X1.950000X-1.000000X-1.950000X1.000000X-1.950000X1.000000X1.950000X0*%
%ADD14RoundRect,0.250000X0.900000X-1.000000X0.900000X1.000000X-0.900000X1.000000X-0.900000X-1.000000X0*%
%ADD15RoundRect,0.225000X-0.225000X-0.250000X0.225000X-0.250000X0.225000X0.250000X-0.225000X0.250000X0*%
%ADD16RoundRect,0.250000X0.625000X-0.375000X0.625000X0.375000X-0.625000X0.375000X-0.625000X-0.375000X0*%
%ADD17R,0.450000X1.500000*%
%ADD18O,2.200000X1.100000*%
%ADD19RoundRect,0.250000X1.050000X1.050000X-1.050000X1.050000X-1.050000X-1.050000X1.050000X-1.050000X0*%
%ADD20C,2.600000*%
%ADD21RoundRect,0.225000X-0.250000X0.225000X-0.250000X-0.225000X0.250000X-0.225000X0.250000X0.225000X0*%
%ADD22R,1.300000X1.500000*%
%ADD23RoundRect,0.200000X-0.200000X-0.275000X0.200000X-0.275000X0.200000X0.275000X-0.200000X0.275000X0*%
%ADD24RoundRect,0.150000X-0.587500X-0.150000X0.587500X-0.150000X0.587500X0.150000X-0.587500X0.150000X0*%
%ADD25RoundRect,0.200000X0.200000X0.275000X-0.200000X0.275000X-0.200000X-0.275000X0.200000X-0.275000X0*%
%ADD26R,1.050000X3.210000*%
%ADD27R,10.530000X8.460000*%
%ADD28R,2.715000X2.715000*%
%ADD29C,2.715000*%
%ADD30C,4.485000*%
%ADD31RoundRect,0.175000X0.175000X0.175000X-0.175000X0.175000X-0.175000X-0.175000X0.175000X-0.175000X0*%
%ADD32R,1.700000X2.500000*%
%ADD33RoundRect,1.025000X-1.125000X1.025000X-1.125000X-1.025000X1.125000X-1.025000X1.125000X1.025000X0*%
%ADD34R,4.300000X4.100000*%
%ADD35R,1.700000X1.700000*%
%ADD36C,1.700000*%
%ADD37R,1.676400X1.676400*%
%ADD38C,1.524000*%
%ADD39R,1.524000X1.524000*%
%ADD40RoundRect,0.225000X0.250000X-0.225000X0.250000X0.225000X-0.250000X0.225000X-0.250000X-0.225000X0*%
%ADD41RoundRect,0.102000X0.450000X-1.000000X0.450000X1.000000X-0.450000X1.000000X-0.450000X-1.000000X0*%
%ADD42RoundRect,0.102000X1.000000X-0.450000X1.000000X0.450000X-1.000000X0.450000X-1.000000X-0.450000X0*%
%ADD43RoundRect,0.102000X0.665000X-0.665000X0.665000X0.665000X-0.665000X0.665000X-0.665000X-0.665000X0*%
%ADD44C,0.966000*%
%ADD45RoundRect,0.200000X-0.275000X0.200000X-0.275000X-0.200000X0.275000X-0.200000X0.275000X0.200000X0*%
%ADD46RoundRect,0.112500X-0.112500X0.187500X-0.112500X-0.187500X0.112500X-0.187500X0.112500X0.187500X0*%
%ADD47RoundRect,0.375000X-0.625000X-0.375000X0.625000X-0.375000X0.625000X0.375000X-0.625000X0.375000X0*%
%ADD48RoundRect,0.500000X-0.500000X-1.400000X0.500000X-1.400000X0.500000X1.400000X-0.500000X1.400000X0*%
%ADD49R,1.800000X1.800000*%
%ADD50RoundRect,1.025000X1.125000X-1.025000X1.125000X1.025000X-1.125000X1.025000X-1.125000X-1.025000X0*%
%ADD51RoundRect,0.243750X0.456250X-0.243750X0.456250X0.243750X-0.456250X0.243750X-0.456250X-0.243750X0*%
%ADD52RoundRect,0.250000X1.000000X0.900000X-1.000000X0.900000X-1.000000X-0.900000X1.000000X-0.900000X0*%
%ADD53RoundRect,0.150000X0.825000X0.150000X-0.825000X0.150000X-0.825000X-0.150000X0.825000X-0.150000X0*%
%ADD54R,5.400000X2.900000*%
%ADD55RoundRect,0.225000X0.225000X0.250000X-0.225000X0.250000X-0.225000X-0.250000X0.225000X-0.250000X0*%
%ADD56R,2.000000X3.000000*%
%ADD57O,2.000000X3.000000*%
G04 APERTURE END LIST*
D10*
%TO.C,S1*%
X127450000Y-69150000D02*
X126850000Y-69150000D01*
X126850000Y-68450000D01*
X127450000Y-68450000D01*
X127450000Y-69150000D01*
G36*
X127450000Y-69150000D02*
G01*
X126850000Y-69150000D01*
X126850000Y-68450000D01*
X127450000Y-68450000D01*
X127450000Y-69150000D01*
G37*
X128400000Y-67150000D02*
X127800000Y-67150000D01*
X127800000Y-66450000D01*
X128400000Y-66450000D01*
X128400000Y-67150000D01*
G36*
X128400000Y-67150000D02*
G01*
X127800000Y-67150000D01*
X127800000Y-66450000D01*
X128400000Y-66450000D01*
X128400000Y-67150000D01*
G37*
X129350000Y-69150000D02*
X128750000Y-69150000D01*
X128750000Y-68450000D01*
X129350000Y-68450000D01*
X129350000Y-69150000D01*
G36*
X129350000Y-69150000D02*
G01*
X128750000Y-69150000D01*
X128750000Y-68450000D01*
X129350000Y-68450000D01*
X129350000Y-69150000D01*
G37*
%TD*%
D11*
%TO.C,U3*%
X48050000Y-85500000D03*
X48050000Y-86770000D03*
X48050000Y-88040000D03*
X48050000Y-89310000D03*
X48050000Y-90580000D03*
X48050000Y-91850000D03*
X48050000Y-93120000D03*
X48050000Y-94390000D03*
X53000000Y-94390000D03*
X53000000Y-93120000D03*
X53000000Y-91850000D03*
X53000000Y-90580000D03*
X53000000Y-89310000D03*
X53000000Y-88040000D03*
X53000000Y-86770000D03*
X53000000Y-85500000D03*
%TD*%
D12*
%TO.C,R8*%
X147200000Y-82605000D03*
X147200000Y-80955000D03*
%TD*%
D13*
%TO.C,C7*%
X133000000Y-126800000D03*
X133000000Y-135200000D03*
%TD*%
D14*
%TO.C,D12*%
X152400000Y-86100000D03*
X152400000Y-81800000D03*
%TD*%
D15*
%TO.C,C11*%
X123850000Y-73700000D03*
X125400000Y-73700000D03*
%TD*%
D16*
%TO.C,FB2*%
X169200000Y-51500000D03*
X169200000Y-48700000D03*
%TD*%
D12*
%TO.C,R10*%
X118900000Y-92525000D03*
X118900000Y-90875000D03*
%TD*%
D17*
%TO.C,J4*%
X49400000Y-101750000D03*
X50050000Y-101750000D03*
X50700000Y-101750000D03*
X51350000Y-101750000D03*
X52000000Y-101750000D03*
D18*
X47900000Y-101500000D03*
X53500000Y-101500000D03*
X50700000Y-103650000D03*
%TD*%
D19*
%TO.C,J2*%
X152900000Y-117500000D03*
D20*
X147900000Y-117500000D03*
X142900000Y-117500000D03*
X137900000Y-117500000D03*
%TD*%
D21*
%TO.C,C6*%
X125400000Y-126125000D03*
X125400000Y-127675000D03*
%TD*%
D11*
%TO.C,U4*%
X118775000Y-66900000D03*
X118775000Y-68170000D03*
X118775000Y-69440000D03*
X118775000Y-70710000D03*
X123725000Y-70710000D03*
X123725000Y-69440000D03*
X123725000Y-68170000D03*
X123725000Y-66900000D03*
%TD*%
D21*
%TO.C,C9*%
X92400000Y-99550000D03*
X92400000Y-101100000D03*
%TD*%
D22*
%TO.C,U6*%
X137500000Y-94270000D03*
X137500000Y-91730000D03*
X128500000Y-91730000D03*
X128500000Y-94270000D03*
%TD*%
D23*
%TO.C,R14*%
X126850000Y-97770000D03*
X128500000Y-97770000D03*
%TD*%
D12*
%TO.C,R9*%
X110300000Y-45525000D03*
X110300000Y-43875000D03*
%TD*%
D24*
%TO.C,Q2*%
X56925000Y-87000000D03*
X56925000Y-88900000D03*
X58800000Y-87950000D03*
%TD*%
%TO.C,Q1*%
X56825000Y-92050000D03*
X56825000Y-93950000D03*
X58700000Y-93000000D03*
%TD*%
D22*
%TO.C,U7*%
X137700000Y-80600000D03*
X137700000Y-78060000D03*
X128700000Y-78060000D03*
X128700000Y-80600000D03*
%TD*%
D25*
%TO.C,R13*%
X118125000Y-88600000D03*
X116475000Y-88600000D03*
%TD*%
D26*
%TO.C,IC2*%
X122000000Y-123670000D03*
X120300000Y-123670000D03*
X118600000Y-123670000D03*
X116900000Y-123670000D03*
X115200000Y-123670000D03*
D27*
X118600000Y-133300000D03*
%TD*%
D28*
%TO.C,J7*%
X163500000Y-94720000D03*
D29*
X163500000Y-90275000D03*
X163500000Y-85830000D03*
X163500000Y-81380000D03*
X163500000Y-76935000D03*
X163500000Y-72490000D03*
X169850000Y-72490000D03*
X169850000Y-76935000D03*
X169850000Y-81380000D03*
X169850000Y-85830000D03*
X169850000Y-90275000D03*
X169850000Y-94720000D03*
D30*
X164520000Y-101145000D03*
X175950000Y-83605000D03*
X164520000Y-66065000D03*
%TD*%
D21*
%TO.C,C18*%
X63600000Y-103725000D03*
X63600000Y-105275000D03*
%TD*%
D31*
%TO.C,D5*%
X143150000Y-91770000D03*
X141000000Y-91770000D03*
%TD*%
D32*
%TO.C,D6*%
X49400000Y-111400000D03*
X49400000Y-107400000D03*
%TD*%
D33*
%TO.C,D4*%
X156200000Y-99800000D03*
D34*
X148000000Y-99800000D03*
%TD*%
D35*
%TO.C,J9*%
X133400000Y-65000000D03*
D36*
X133400000Y-67540000D03*
%TD*%
D21*
%TO.C,C4*%
X64500000Y-108225000D03*
X64500000Y-109775000D03*
%TD*%
D37*
%TO.C,CON1*%
X93520000Y-58100000D03*
D38*
X96060000Y-58100000D03*
X98600000Y-58100000D03*
X101140000Y-58100000D03*
X103680000Y-58100000D03*
X106220000Y-58100000D03*
X108760000Y-58100000D03*
X111300000Y-58100000D03*
X111300000Y-35240000D03*
X108760000Y-35240000D03*
X106220000Y-35240000D03*
X103680000Y-35240000D03*
X101140000Y-35240000D03*
X98600000Y-35240000D03*
X96060000Y-35240000D03*
D39*
X93520000Y-35240000D03*
%TD*%
D22*
%TO.C,U8*%
X114500000Y-88600000D03*
X114500000Y-86060000D03*
X105500000Y-86060000D03*
X105500000Y-88600000D03*
%TD*%
D25*
%TO.C,R5*%
X124525000Y-63800000D03*
X122875000Y-63800000D03*
%TD*%
D40*
%TO.C,C12*%
X114600000Y-69650000D03*
X114600000Y-68100000D03*
%TD*%
D41*
%TO.C,U5*%
X63880000Y-97000000D03*
X65150000Y-97000000D03*
X66420000Y-97000000D03*
X67690000Y-97000000D03*
X68960000Y-97000000D03*
X70230000Y-97000000D03*
X71500000Y-97000000D03*
X72770000Y-97000000D03*
X74040000Y-97000000D03*
X75310000Y-97000000D03*
X76580000Y-97000000D03*
X77850000Y-97000000D03*
X79120000Y-97000000D03*
X80390000Y-97000000D03*
D42*
X81390000Y-94215000D03*
X81390000Y-92945000D03*
X81390000Y-91675000D03*
X81390000Y-90405000D03*
X81390000Y-89135000D03*
X81390000Y-87865000D03*
X81390000Y-86595000D03*
X81390000Y-85325000D03*
X81390000Y-84055000D03*
X81390000Y-82785000D03*
D41*
X80390000Y-80000000D03*
X79120000Y-80000000D03*
X77850000Y-80000000D03*
X76580000Y-80000000D03*
X75310000Y-80000000D03*
X74040000Y-80000000D03*
X72770000Y-80000000D03*
X71500000Y-80000000D03*
X70230000Y-80000000D03*
X68960000Y-80000000D03*
X67690000Y-80000000D03*
X66420000Y-80000000D03*
X65150000Y-80000000D03*
X63880000Y-80000000D03*
D43*
X69545000Y-87665000D03*
X69545000Y-89500000D03*
X69545000Y-91335000D03*
X71380000Y-87665000D03*
X71380000Y-89500000D03*
X71380000Y-91335000D03*
X73215000Y-87665000D03*
X73215000Y-89500000D03*
X73215000Y-91335000D03*
D44*
X69545000Y-88582500D03*
X69545000Y-90417500D03*
X70462500Y-87665000D03*
X70462500Y-89500000D03*
X70462500Y-91335000D03*
X71380000Y-88582500D03*
X71380000Y-90417500D03*
X72297500Y-87665000D03*
X72297500Y-89500000D03*
X72297500Y-91335000D03*
X73215000Y-88582500D03*
X73215000Y-90417500D03*
%TD*%
D21*
%TO.C,C16*%
X63600000Y-100500000D03*
X63600000Y-102050000D03*
%TD*%
D45*
%TO.C,R17*%
X102600000Y-86975000D03*
X102600000Y-88625000D03*
%TD*%
D21*
%TO.C,C17*%
X67000000Y-100425000D03*
X67000000Y-101975000D03*
%TD*%
D13*
%TO.C,C8*%
X84900000Y-127300000D03*
X84900000Y-135700000D03*
%TD*%
D46*
%TO.C,D7*%
X143700000Y-80895000D03*
X143700000Y-82995000D03*
%TD*%
D23*
%TO.C,R11*%
X135850000Y-97770000D03*
X137500000Y-97770000D03*
%TD*%
D25*
%TO.C,R1*%
X141525000Y-81030000D03*
X139875000Y-81030000D03*
%TD*%
D47*
%TO.C,IC1*%
X68350000Y-106200000D03*
X68350000Y-108500000D03*
X68350000Y-110800000D03*
D48*
X74650000Y-108500000D03*
%TD*%
D46*
%TO.C,D11*%
X115800000Y-91000000D03*
X115800000Y-93100000D03*
%TD*%
D14*
%TO.C,D8*%
X123400000Y-93550000D03*
X123400000Y-89250000D03*
%TD*%
D49*
%TO.C,D2*%
X110300000Y-123200000D03*
X110300000Y-119200000D03*
%TD*%
D21*
%TO.C,C3*%
X45400000Y-89450000D03*
X45400000Y-91000000D03*
%TD*%
D50*
%TO.C,D1*%
X144000000Y-133300000D03*
D34*
X152200000Y-133300000D03*
%TD*%
D12*
%TO.C,R7*%
X124900000Y-122006250D03*
X124900000Y-120356250D03*
%TD*%
D51*
%TO.C,D3*%
X129300000Y-122018750D03*
X129300000Y-120143750D03*
%TD*%
D52*
%TO.C,D9*%
X156650000Y-126400000D03*
X152350000Y-126400000D03*
%TD*%
D21*
%TO.C,C5*%
X68300000Y-113850000D03*
X68300000Y-115400000D03*
%TD*%
D53*
%TO.C,U2*%
X97500000Y-97620000D03*
X97500000Y-96350000D03*
X97500000Y-95080000D03*
X97500000Y-93810000D03*
X97500000Y-92540000D03*
X97500000Y-91270000D03*
X97500000Y-90000000D03*
X92550000Y-90000000D03*
X92550000Y-91270000D03*
X92550000Y-92540000D03*
X92550000Y-93810000D03*
X92550000Y-95080000D03*
X92550000Y-96350000D03*
X92550000Y-97620000D03*
%TD*%
D54*
%TO.C,L2*%
X100280000Y-135520000D03*
X100280000Y-125620000D03*
%TD*%
D12*
%TO.C,R12*%
X107300000Y-45425000D03*
X107300000Y-43775000D03*
%TD*%
D55*
%TO.C,C15*%
X58950000Y-97500000D03*
X57400000Y-97500000D03*
%TD*%
D56*
%TO.C,F1*%
X173000000Y-118500000D03*
D57*
X169300000Y-118500000D03*
X165000000Y-118500000D03*
X161300000Y-118500000D03*
%TD*%
D12*
%TO.C,R15*%
X60700000Y-102025000D03*
X60700000Y-100375000D03*
%TD*%
D23*
%TO.C,R16*%
X123650000Y-78200000D03*
X125300000Y-78200000D03*
%TD*%
D35*
%TO.C,J1*%
X123020000Y-50580000D03*
D36*
X123020000Y-48040000D03*
X123020000Y-45500000D03*
X123020000Y-42960000D03*
%TD*%
M02*
