%TF.GenerationSoftware,KiCad,Pcbnew,10.0.0*%
%TF.CreationDate,2026-04-11T10:32:21-06:00*%
%TF.ProjectId,Moisture1,4d6f6973-7475-4726-9531-2e6b69636164,rev?*%
%TF.SameCoordinates,Original*%
%TF.FileFunction,Legend,Top*%
%TF.FilePolarity,Positive*%
%FSLAX46Y46*%
G04 Gerber Fmt 4.6, Leading zero omitted, Abs format (unit mm)*
G04 Created by KiCad (PCBNEW 10.0.0) date 2026-04-11 10:32:21*
%MOMM*%
%LPD*%
G01*
G04 APERTURE LIST*
G04 Aperture macros list*
%AMRoundRect*
0 Rectangle with rounded corners*
0 $1 Rounding radius*
0 $2 $3 $4 $5 $6 $7 $8 $9 X,Y pos of 4 corners*
0 Add a 4 corners polygon primitive as box body*
4,1,4,$2,$3,$4,$5,$6,$7,$8,$9,$2,$3,0*
0 Add four circle primitives for the rounded corners*
1,1,$1+$1,$2,$3*
1,1,$1+$1,$4,$5*
1,1,$1+$1,$6,$7*
1,1,$1+$1,$8,$9*
0 Add four rect primitives between the rounded corners*
20,1,$1+$1,$2,$3,$4,$5,0*
20,1,$1+$1,$4,$5,$6,$7,0*
20,1,$1+$1,$6,$7,$8,$9,0*
20,1,$1+$1,$8,$9,$2,$3,0*%
G04 Aperture macros list end*
%ADD10C,0.050000*%
%ADD11C,0.100000*%
%ADD12C,0.150000*%
%ADD13C,0.254000*%
%ADD14C,0.127000*%
%ADD15C,0.200000*%
%ADD16C,0.120000*%
%ADD17R,1.524000X1.524000*%
%ADD18C,1.524000*%
%ADD19R,1.676400X1.676400*%
%ADD20RoundRect,0.102000X-0.290000X-0.150000X0.290000X-0.150000X0.290000X0.150000X-0.290000X0.150000X0*%
%ADD21RoundRect,0.102000X-0.290000X-0.125000X0.290000X-0.125000X0.290000X0.125000X-0.290000X0.125000X0*%
%ADD22RoundRect,0.102000X-0.175000X-0.315000X0.175000X-0.315000X0.175000X0.315000X-0.175000X0.315000X0*%
%ADD23RoundRect,0.200000X-0.200000X-0.275000X0.200000X-0.275000X0.200000X0.275000X-0.200000X0.275000X0*%
%ADD24RoundRect,0.200000X0.275000X-0.200000X0.275000X0.200000X-0.275000X0.200000X-0.275000X-0.200000X0*%
%ADD25RoundRect,0.150000X-0.150000X0.587500X-0.150000X-0.587500X0.150000X-0.587500X0.150000X0.587500X0*%
%ADD26RoundRect,0.225000X-0.250000X0.225000X-0.250000X-0.225000X0.250000X-0.225000X0.250000X0.225000X0*%
%ADD27RoundRect,0.225000X0.250000X-0.225000X0.250000X0.225000X-0.250000X0.225000X-0.250000X-0.225000X0*%
%ADD28R,0.850000X0.300000*%
%ADD29RoundRect,0.200000X0.200000X0.275000X-0.200000X0.275000X-0.200000X-0.275000X0.200000X-0.275000X0*%
%ADD30R,1.700000X1.700000*%
%ADD31C,1.700000*%
G04 APERTURE END LIST*
D10*
X47113846Y-67360019D02*
X47066227Y-67336209D01*
X47066227Y-67336209D02*
X46994798Y-67336209D01*
X46994798Y-67336209D02*
X46923370Y-67360019D01*
X46923370Y-67360019D02*
X46875751Y-67407638D01*
X46875751Y-67407638D02*
X46851941Y-67455257D01*
X46851941Y-67455257D02*
X46828132Y-67550495D01*
X46828132Y-67550495D02*
X46828132Y-67621923D01*
X46828132Y-67621923D02*
X46851941Y-67717161D01*
X46851941Y-67717161D02*
X46875751Y-67764780D01*
X46875751Y-67764780D02*
X46923370Y-67812400D01*
X46923370Y-67812400D02*
X46994798Y-67836209D01*
X46994798Y-67836209D02*
X47042417Y-67836209D01*
X47042417Y-67836209D02*
X47113846Y-67812400D01*
X47113846Y-67812400D02*
X47137655Y-67788590D01*
X47137655Y-67788590D02*
X47137655Y-67621923D01*
X47137655Y-67621923D02*
X47042417Y-67621923D01*
X47351941Y-67836209D02*
X47351941Y-67336209D01*
X47351941Y-67336209D02*
X47637655Y-67836209D01*
X47637655Y-67836209D02*
X47637655Y-67336209D01*
X47875751Y-67836209D02*
X47875751Y-67336209D01*
X47875751Y-67336209D02*
X47994799Y-67336209D01*
X47994799Y-67336209D02*
X48066227Y-67360019D01*
X48066227Y-67360019D02*
X48113846Y-67407638D01*
X48113846Y-67407638D02*
X48137656Y-67455257D01*
X48137656Y-67455257D02*
X48161465Y-67550495D01*
X48161465Y-67550495D02*
X48161465Y-67621923D01*
X48161465Y-67621923D02*
X48137656Y-67717161D01*
X48137656Y-67717161D02*
X48113846Y-67764780D01*
X48113846Y-67764780D02*
X48066227Y-67812400D01*
X48066227Y-67812400D02*
X47994799Y-67836209D01*
X47994799Y-67836209D02*
X47875751Y-67836209D01*
X49338450Y-67336209D02*
X49624164Y-67336209D01*
X49481307Y-67836209D02*
X49481307Y-67336209D01*
X49790830Y-67836209D02*
X49790830Y-67502876D01*
X49790830Y-67550495D02*
X49814640Y-67526685D01*
X49814640Y-67526685D02*
X49862259Y-67502876D01*
X49862259Y-67502876D02*
X49933687Y-67502876D01*
X49933687Y-67502876D02*
X49981306Y-67526685D01*
X49981306Y-67526685D02*
X50005116Y-67574304D01*
X50005116Y-67574304D02*
X50005116Y-67836209D01*
X50005116Y-67574304D02*
X50028925Y-67526685D01*
X50028925Y-67526685D02*
X50076544Y-67502876D01*
X50076544Y-67502876D02*
X50147973Y-67502876D01*
X50147973Y-67502876D02*
X50195592Y-67526685D01*
X50195592Y-67526685D02*
X50219402Y-67574304D01*
X50219402Y-67574304D02*
X50219402Y-67836209D01*
X50457497Y-67502876D02*
X50457497Y-68002876D01*
X50457497Y-67526685D02*
X50505116Y-67502876D01*
X50505116Y-67502876D02*
X50600354Y-67502876D01*
X50600354Y-67502876D02*
X50647973Y-67526685D01*
X50647973Y-67526685D02*
X50671783Y-67550495D01*
X50671783Y-67550495D02*
X50695592Y-67598114D01*
X50695592Y-67598114D02*
X50695592Y-67740971D01*
X50695592Y-67740971D02*
X50671783Y-67788590D01*
X50671783Y-67788590D02*
X50647973Y-67812400D01*
X50647973Y-67812400D02*
X50600354Y-67836209D01*
X50600354Y-67836209D02*
X50505116Y-67836209D01*
X50505116Y-67836209D02*
X50457497Y-67812400D01*
X52170195Y-67836209D02*
X52170195Y-67336209D01*
X52170195Y-67336209D02*
X52336862Y-67693352D01*
X52336862Y-67693352D02*
X52503528Y-67336209D01*
X52503528Y-67336209D02*
X52503528Y-67836209D01*
X52908291Y-67574304D02*
X52979719Y-67598114D01*
X52979719Y-67598114D02*
X53003529Y-67621923D01*
X53003529Y-67621923D02*
X53027338Y-67669542D01*
X53027338Y-67669542D02*
X53027338Y-67740971D01*
X53027338Y-67740971D02*
X53003529Y-67788590D01*
X53003529Y-67788590D02*
X52979719Y-67812400D01*
X52979719Y-67812400D02*
X52932100Y-67836209D01*
X52932100Y-67836209D02*
X52741624Y-67836209D01*
X52741624Y-67836209D02*
X52741624Y-67336209D01*
X52741624Y-67336209D02*
X52908291Y-67336209D01*
X52908291Y-67336209D02*
X52955910Y-67360019D01*
X52955910Y-67360019D02*
X52979719Y-67383828D01*
X52979719Y-67383828D02*
X53003529Y-67431447D01*
X53003529Y-67431447D02*
X53003529Y-67479066D01*
X53003529Y-67479066D02*
X52979719Y-67526685D01*
X52979719Y-67526685D02*
X52955910Y-67550495D01*
X52955910Y-67550495D02*
X52908291Y-67574304D01*
X52908291Y-67574304D02*
X52741624Y-67574304D01*
X54751941Y-67836209D02*
X54751941Y-67336209D01*
X54751941Y-67336209D02*
X54918608Y-67693352D01*
X54918608Y-67693352D02*
X55085274Y-67336209D01*
X55085274Y-67336209D02*
X55085274Y-67836209D01*
X55299561Y-67693352D02*
X55537656Y-67693352D01*
X55251942Y-67836209D02*
X55418608Y-67336209D01*
X55418608Y-67336209D02*
X55585275Y-67836209D01*
D11*
X48319047Y-36162475D02*
X48319047Y-35162475D01*
X48319047Y-35162475D02*
X48652380Y-35876760D01*
X48652380Y-35876760D02*
X48985713Y-35162475D01*
X48985713Y-35162475D02*
X48985713Y-36162475D01*
X49604761Y-36162475D02*
X49509523Y-36114856D01*
X49509523Y-36114856D02*
X49461904Y-36067236D01*
X49461904Y-36067236D02*
X49414285Y-35971998D01*
X49414285Y-35971998D02*
X49414285Y-35686284D01*
X49414285Y-35686284D02*
X49461904Y-35591046D01*
X49461904Y-35591046D02*
X49509523Y-35543427D01*
X49509523Y-35543427D02*
X49604761Y-35495808D01*
X49604761Y-35495808D02*
X49747618Y-35495808D01*
X49747618Y-35495808D02*
X49842856Y-35543427D01*
X49842856Y-35543427D02*
X49890475Y-35591046D01*
X49890475Y-35591046D02*
X49938094Y-35686284D01*
X49938094Y-35686284D02*
X49938094Y-35971998D01*
X49938094Y-35971998D02*
X49890475Y-36067236D01*
X49890475Y-36067236D02*
X49842856Y-36114856D01*
X49842856Y-36114856D02*
X49747618Y-36162475D01*
X49747618Y-36162475D02*
X49604761Y-36162475D01*
X50366666Y-36162475D02*
X50366666Y-35495808D01*
X50366666Y-35162475D02*
X50319047Y-35210094D01*
X50319047Y-35210094D02*
X50366666Y-35257713D01*
X50366666Y-35257713D02*
X50414285Y-35210094D01*
X50414285Y-35210094D02*
X50366666Y-35162475D01*
X50366666Y-35162475D02*
X50366666Y-35257713D01*
X50795237Y-36114856D02*
X50890475Y-36162475D01*
X50890475Y-36162475D02*
X51080951Y-36162475D01*
X51080951Y-36162475D02*
X51176189Y-36114856D01*
X51176189Y-36114856D02*
X51223808Y-36019617D01*
X51223808Y-36019617D02*
X51223808Y-35971998D01*
X51223808Y-35971998D02*
X51176189Y-35876760D01*
X51176189Y-35876760D02*
X51080951Y-35829141D01*
X51080951Y-35829141D02*
X50938094Y-35829141D01*
X50938094Y-35829141D02*
X50842856Y-35781522D01*
X50842856Y-35781522D02*
X50795237Y-35686284D01*
X50795237Y-35686284D02*
X50795237Y-35638665D01*
X50795237Y-35638665D02*
X50842856Y-35543427D01*
X50842856Y-35543427D02*
X50938094Y-35495808D01*
X50938094Y-35495808D02*
X51080951Y-35495808D01*
X51080951Y-35495808D02*
X51176189Y-35543427D01*
X51509523Y-35495808D02*
X51890475Y-35495808D01*
X51652380Y-35162475D02*
X51652380Y-36019617D01*
X51652380Y-36019617D02*
X51699999Y-36114856D01*
X51699999Y-36114856D02*
X51795237Y-36162475D01*
X51795237Y-36162475D02*
X51890475Y-36162475D01*
X52652380Y-35495808D02*
X52652380Y-36162475D01*
X52223809Y-35495808D02*
X52223809Y-36019617D01*
X52223809Y-36019617D02*
X52271428Y-36114856D01*
X52271428Y-36114856D02*
X52366666Y-36162475D01*
X52366666Y-36162475D02*
X52509523Y-36162475D01*
X52509523Y-36162475D02*
X52604761Y-36114856D01*
X52604761Y-36114856D02*
X52652380Y-36067236D01*
X53128571Y-36162475D02*
X53128571Y-35495808D01*
X53128571Y-35686284D02*
X53176190Y-35591046D01*
X53176190Y-35591046D02*
X53223809Y-35543427D01*
X53223809Y-35543427D02*
X53319047Y-35495808D01*
X53319047Y-35495808D02*
X53414285Y-35495808D01*
X54128571Y-36114856D02*
X54033333Y-36162475D01*
X54033333Y-36162475D02*
X53842857Y-36162475D01*
X53842857Y-36162475D02*
X53747619Y-36114856D01*
X53747619Y-36114856D02*
X53700000Y-36019617D01*
X53700000Y-36019617D02*
X53700000Y-35638665D01*
X53700000Y-35638665D02*
X53747619Y-35543427D01*
X53747619Y-35543427D02*
X53842857Y-35495808D01*
X53842857Y-35495808D02*
X54033333Y-35495808D01*
X54033333Y-35495808D02*
X54128571Y-35543427D01*
X54128571Y-35543427D02*
X54176190Y-35638665D01*
X54176190Y-35638665D02*
X54176190Y-35733903D01*
X54176190Y-35733903D02*
X53700000Y-35829141D01*
X55128571Y-36162475D02*
X54557143Y-36162475D01*
X54842857Y-36162475D02*
X54842857Y-35162475D01*
X54842857Y-35162475D02*
X54747619Y-35305332D01*
X54747619Y-35305332D02*
X54652381Y-35400570D01*
X54652381Y-35400570D02*
X54557143Y-35448189D01*
X47176190Y-37772419D02*
X46604762Y-37772419D01*
X46890476Y-37772419D02*
X46890476Y-36772419D01*
X46890476Y-36772419D02*
X46795238Y-36915276D01*
X46795238Y-36915276D02*
X46700000Y-37010514D01*
X46700000Y-37010514D02*
X46604762Y-37058133D01*
X47795238Y-36772419D02*
X47890476Y-36772419D01*
X47890476Y-36772419D02*
X47985714Y-36820038D01*
X47985714Y-36820038D02*
X48033333Y-36867657D01*
X48033333Y-36867657D02*
X48080952Y-36962895D01*
X48080952Y-36962895D02*
X48128571Y-37153371D01*
X48128571Y-37153371D02*
X48128571Y-37391466D01*
X48128571Y-37391466D02*
X48080952Y-37581942D01*
X48080952Y-37581942D02*
X48033333Y-37677180D01*
X48033333Y-37677180D02*
X47985714Y-37724800D01*
X47985714Y-37724800D02*
X47890476Y-37772419D01*
X47890476Y-37772419D02*
X47795238Y-37772419D01*
X47795238Y-37772419D02*
X47700000Y-37724800D01*
X47700000Y-37724800D02*
X47652381Y-37677180D01*
X47652381Y-37677180D02*
X47604762Y-37581942D01*
X47604762Y-37581942D02*
X47557143Y-37391466D01*
X47557143Y-37391466D02*
X47557143Y-37153371D01*
X47557143Y-37153371D02*
X47604762Y-36962895D01*
X47604762Y-36962895D02*
X47652381Y-36867657D01*
X47652381Y-36867657D02*
X47700000Y-36820038D01*
X47700000Y-36820038D02*
X47795238Y-36772419D01*
X48557143Y-37391466D02*
X49319048Y-37391466D01*
X49747619Y-37486704D02*
X50223809Y-37486704D01*
X49652381Y-37772419D02*
X49985714Y-36772419D01*
X49985714Y-36772419D02*
X50319047Y-37772419D01*
X50652381Y-37105752D02*
X50652381Y-38105752D01*
X50652381Y-37153371D02*
X50747619Y-37105752D01*
X50747619Y-37105752D02*
X50938095Y-37105752D01*
X50938095Y-37105752D02*
X51033333Y-37153371D01*
X51033333Y-37153371D02*
X51080952Y-37200990D01*
X51080952Y-37200990D02*
X51128571Y-37296228D01*
X51128571Y-37296228D02*
X51128571Y-37581942D01*
X51128571Y-37581942D02*
X51080952Y-37677180D01*
X51080952Y-37677180D02*
X51033333Y-37724800D01*
X51033333Y-37724800D02*
X50938095Y-37772419D01*
X50938095Y-37772419D02*
X50747619Y-37772419D01*
X50747619Y-37772419D02*
X50652381Y-37724800D01*
X51557143Y-37772419D02*
X51557143Y-37105752D01*
X51557143Y-37296228D02*
X51604762Y-37200990D01*
X51604762Y-37200990D02*
X51652381Y-37153371D01*
X51652381Y-37153371D02*
X51747619Y-37105752D01*
X51747619Y-37105752D02*
X51842857Y-37105752D01*
X52176191Y-37391466D02*
X52938096Y-37391466D01*
X53366667Y-36867657D02*
X53414286Y-36820038D01*
X53414286Y-36820038D02*
X53509524Y-36772419D01*
X53509524Y-36772419D02*
X53747619Y-36772419D01*
X53747619Y-36772419D02*
X53842857Y-36820038D01*
X53842857Y-36820038D02*
X53890476Y-36867657D01*
X53890476Y-36867657D02*
X53938095Y-36962895D01*
X53938095Y-36962895D02*
X53938095Y-37058133D01*
X53938095Y-37058133D02*
X53890476Y-37200990D01*
X53890476Y-37200990D02*
X53319048Y-37772419D01*
X53319048Y-37772419D02*
X53938095Y-37772419D01*
X54557143Y-36772419D02*
X54652381Y-36772419D01*
X54652381Y-36772419D02*
X54747619Y-36820038D01*
X54747619Y-36820038D02*
X54795238Y-36867657D01*
X54795238Y-36867657D02*
X54842857Y-36962895D01*
X54842857Y-36962895D02*
X54890476Y-37153371D01*
X54890476Y-37153371D02*
X54890476Y-37391466D01*
X54890476Y-37391466D02*
X54842857Y-37581942D01*
X54842857Y-37581942D02*
X54795238Y-37677180D01*
X54795238Y-37677180D02*
X54747619Y-37724800D01*
X54747619Y-37724800D02*
X54652381Y-37772419D01*
X54652381Y-37772419D02*
X54557143Y-37772419D01*
X54557143Y-37772419D02*
X54461905Y-37724800D01*
X54461905Y-37724800D02*
X54414286Y-37677180D01*
X54414286Y-37677180D02*
X54366667Y-37581942D01*
X54366667Y-37581942D02*
X54319048Y-37391466D01*
X54319048Y-37391466D02*
X54319048Y-37153371D01*
X54319048Y-37153371D02*
X54366667Y-36962895D01*
X54366667Y-36962895D02*
X54414286Y-36867657D01*
X54414286Y-36867657D02*
X54461905Y-36820038D01*
X54461905Y-36820038D02*
X54557143Y-36772419D01*
X55271429Y-36867657D02*
X55319048Y-36820038D01*
X55319048Y-36820038D02*
X55414286Y-36772419D01*
X55414286Y-36772419D02*
X55652381Y-36772419D01*
X55652381Y-36772419D02*
X55747619Y-36820038D01*
X55747619Y-36820038D02*
X55795238Y-36867657D01*
X55795238Y-36867657D02*
X55842857Y-36962895D01*
X55842857Y-36962895D02*
X55842857Y-37058133D01*
X55842857Y-37058133D02*
X55795238Y-37200990D01*
X55795238Y-37200990D02*
X55223810Y-37772419D01*
X55223810Y-37772419D02*
X55842857Y-37772419D01*
X56700000Y-36772419D02*
X56509524Y-36772419D01*
X56509524Y-36772419D02*
X56414286Y-36820038D01*
X56414286Y-36820038D02*
X56366667Y-36867657D01*
X56366667Y-36867657D02*
X56271429Y-37010514D01*
X56271429Y-37010514D02*
X56223810Y-37200990D01*
X56223810Y-37200990D02*
X56223810Y-37581942D01*
X56223810Y-37581942D02*
X56271429Y-37677180D01*
X56271429Y-37677180D02*
X56319048Y-37724800D01*
X56319048Y-37724800D02*
X56414286Y-37772419D01*
X56414286Y-37772419D02*
X56604762Y-37772419D01*
X56604762Y-37772419D02*
X56700000Y-37724800D01*
X56700000Y-37724800D02*
X56747619Y-37677180D01*
X56747619Y-37677180D02*
X56795238Y-37581942D01*
X56795238Y-37581942D02*
X56795238Y-37343847D01*
X56795238Y-37343847D02*
X56747619Y-37248609D01*
X56747619Y-37248609D02*
X56700000Y-37200990D01*
X56700000Y-37200990D02*
X56604762Y-37153371D01*
X56604762Y-37153371D02*
X56414286Y-37153371D01*
X56414286Y-37153371D02*
X56319048Y-37200990D01*
X56319048Y-37200990D02*
X56271429Y-37248609D01*
X56271429Y-37248609D02*
X56223810Y-37343847D01*
D10*
X38707143Y-60864780D02*
X38664286Y-60912400D01*
X38664286Y-60912400D02*
X38535714Y-60960019D01*
X38535714Y-60960019D02*
X38450000Y-60960019D01*
X38450000Y-60960019D02*
X38321429Y-60912400D01*
X38321429Y-60912400D02*
X38235714Y-60817161D01*
X38235714Y-60817161D02*
X38192857Y-60721923D01*
X38192857Y-60721923D02*
X38150000Y-60531447D01*
X38150000Y-60531447D02*
X38150000Y-60388590D01*
X38150000Y-60388590D02*
X38192857Y-60198114D01*
X38192857Y-60198114D02*
X38235714Y-60102876D01*
X38235714Y-60102876D02*
X38321429Y-60007638D01*
X38321429Y-60007638D02*
X38450000Y-59960019D01*
X38450000Y-59960019D02*
X38535714Y-59960019D01*
X38535714Y-59960019D02*
X38664286Y-60007638D01*
X38664286Y-60007638D02*
X38707143Y-60055257D01*
X39264286Y-59960019D02*
X39435714Y-59960019D01*
X39435714Y-59960019D02*
X39521429Y-60007638D01*
X39521429Y-60007638D02*
X39607143Y-60102876D01*
X39607143Y-60102876D02*
X39650000Y-60293352D01*
X39650000Y-60293352D02*
X39650000Y-60626685D01*
X39650000Y-60626685D02*
X39607143Y-60817161D01*
X39607143Y-60817161D02*
X39521429Y-60912400D01*
X39521429Y-60912400D02*
X39435714Y-60960019D01*
X39435714Y-60960019D02*
X39264286Y-60960019D01*
X39264286Y-60960019D02*
X39178572Y-60912400D01*
X39178572Y-60912400D02*
X39092857Y-60817161D01*
X39092857Y-60817161D02*
X39050000Y-60626685D01*
X39050000Y-60626685D02*
X39050000Y-60293352D01*
X39050000Y-60293352D02*
X39092857Y-60102876D01*
X39092857Y-60102876D02*
X39178572Y-60007638D01*
X39178572Y-60007638D02*
X39264286Y-59960019D01*
X40035714Y-60960019D02*
X40035714Y-59960019D01*
X40035714Y-59960019D02*
X40550000Y-60960019D01*
X40550000Y-60960019D02*
X40550000Y-59960019D01*
X40935714Y-60055257D02*
X40978571Y-60007638D01*
X40978571Y-60007638D02*
X41064286Y-59960019D01*
X41064286Y-59960019D02*
X41278571Y-59960019D01*
X41278571Y-59960019D02*
X41364286Y-60007638D01*
X41364286Y-60007638D02*
X41407143Y-60055257D01*
X41407143Y-60055257D02*
X41450000Y-60150495D01*
X41450000Y-60150495D02*
X41450000Y-60245733D01*
X41450000Y-60245733D02*
X41407143Y-60388590D01*
X41407143Y-60388590D02*
X40892857Y-60960019D01*
X40892857Y-60960019D02*
X41450000Y-60960019D01*
X61350053Y-58195952D02*
X61326243Y-58243571D01*
X61326243Y-58243571D02*
X61326243Y-58315000D01*
X61326243Y-58315000D02*
X61350053Y-58386428D01*
X61350053Y-58386428D02*
X61397672Y-58434047D01*
X61397672Y-58434047D02*
X61445291Y-58457857D01*
X61445291Y-58457857D02*
X61540529Y-58481666D01*
X61540529Y-58481666D02*
X61611957Y-58481666D01*
X61611957Y-58481666D02*
X61707195Y-58457857D01*
X61707195Y-58457857D02*
X61754814Y-58434047D01*
X61754814Y-58434047D02*
X61802434Y-58386428D01*
X61802434Y-58386428D02*
X61826243Y-58315000D01*
X61826243Y-58315000D02*
X61826243Y-58267381D01*
X61826243Y-58267381D02*
X61802434Y-58195952D01*
X61802434Y-58195952D02*
X61778624Y-58172143D01*
X61778624Y-58172143D02*
X61611957Y-58172143D01*
X61611957Y-58172143D02*
X61611957Y-58267381D01*
X61826243Y-57957857D02*
X61326243Y-57957857D01*
X61326243Y-57957857D02*
X61826243Y-57672143D01*
X61826243Y-57672143D02*
X61326243Y-57672143D01*
X61826243Y-57434047D02*
X61326243Y-57434047D01*
X61326243Y-57434047D02*
X61326243Y-57314999D01*
X61326243Y-57314999D02*
X61350053Y-57243571D01*
X61350053Y-57243571D02*
X61397672Y-57195952D01*
X61397672Y-57195952D02*
X61445291Y-57172142D01*
X61445291Y-57172142D02*
X61540529Y-57148333D01*
X61540529Y-57148333D02*
X61611957Y-57148333D01*
X61611957Y-57148333D02*
X61707195Y-57172142D01*
X61707195Y-57172142D02*
X61754814Y-57195952D01*
X61754814Y-57195952D02*
X61802434Y-57243571D01*
X61802434Y-57243571D02*
X61826243Y-57314999D01*
X61826243Y-57314999D02*
X61826243Y-57434047D01*
X61326243Y-55495237D02*
X61326243Y-55733332D01*
X61326243Y-55733332D02*
X61564338Y-55757141D01*
X61564338Y-55757141D02*
X61540529Y-55733332D01*
X61540529Y-55733332D02*
X61516719Y-55685713D01*
X61516719Y-55685713D02*
X61516719Y-55566665D01*
X61516719Y-55566665D02*
X61540529Y-55519046D01*
X61540529Y-55519046D02*
X61564338Y-55495237D01*
X61564338Y-55495237D02*
X61611957Y-55471427D01*
X61611957Y-55471427D02*
X61731005Y-55471427D01*
X61731005Y-55471427D02*
X61778624Y-55495237D01*
X61778624Y-55495237D02*
X61802434Y-55519046D01*
X61802434Y-55519046D02*
X61826243Y-55566665D01*
X61826243Y-55566665D02*
X61826243Y-55685713D01*
X61826243Y-55685713D02*
X61802434Y-55733332D01*
X61802434Y-55733332D02*
X61778624Y-55757141D01*
X61326243Y-55328570D02*
X61826243Y-55161904D01*
X61826243Y-55161904D02*
X61326243Y-54995237D01*
X61802434Y-53507141D02*
X61826243Y-53435713D01*
X61826243Y-53435713D02*
X61826243Y-53316665D01*
X61826243Y-53316665D02*
X61802434Y-53269046D01*
X61802434Y-53269046D02*
X61778624Y-53245237D01*
X61778624Y-53245237D02*
X61731005Y-53221427D01*
X61731005Y-53221427D02*
X61683386Y-53221427D01*
X61683386Y-53221427D02*
X61635767Y-53245237D01*
X61635767Y-53245237D02*
X61611957Y-53269046D01*
X61611957Y-53269046D02*
X61588148Y-53316665D01*
X61588148Y-53316665D02*
X61564338Y-53411903D01*
X61564338Y-53411903D02*
X61540529Y-53459522D01*
X61540529Y-53459522D02*
X61516719Y-53483332D01*
X61516719Y-53483332D02*
X61469100Y-53507141D01*
X61469100Y-53507141D02*
X61421481Y-53507141D01*
X61421481Y-53507141D02*
X61373862Y-53483332D01*
X61373862Y-53483332D02*
X61350053Y-53459522D01*
X61350053Y-53459522D02*
X61326243Y-53411903D01*
X61326243Y-53411903D02*
X61326243Y-53292856D01*
X61326243Y-53292856D02*
X61350053Y-53221427D01*
X61826243Y-53007142D02*
X61326243Y-53007142D01*
X61326243Y-53007142D02*
X61326243Y-52888094D01*
X61326243Y-52888094D02*
X61350053Y-52816666D01*
X61350053Y-52816666D02*
X61397672Y-52769047D01*
X61397672Y-52769047D02*
X61445291Y-52745237D01*
X61445291Y-52745237D02*
X61540529Y-52721428D01*
X61540529Y-52721428D02*
X61611957Y-52721428D01*
X61611957Y-52721428D02*
X61707195Y-52745237D01*
X61707195Y-52745237D02*
X61754814Y-52769047D01*
X61754814Y-52769047D02*
X61802434Y-52816666D01*
X61802434Y-52816666D02*
X61826243Y-52888094D01*
X61826243Y-52888094D02*
X61826243Y-53007142D01*
X61683386Y-52530951D02*
X61683386Y-52292856D01*
X61826243Y-52578570D02*
X61326243Y-52411904D01*
X61326243Y-52411904D02*
X61826243Y-52245237D01*
X61802434Y-50795237D02*
X61826243Y-50723809D01*
X61826243Y-50723809D02*
X61826243Y-50604761D01*
X61826243Y-50604761D02*
X61802434Y-50557142D01*
X61802434Y-50557142D02*
X61778624Y-50533333D01*
X61778624Y-50533333D02*
X61731005Y-50509523D01*
X61731005Y-50509523D02*
X61683386Y-50509523D01*
X61683386Y-50509523D02*
X61635767Y-50533333D01*
X61635767Y-50533333D02*
X61611957Y-50557142D01*
X61611957Y-50557142D02*
X61588148Y-50604761D01*
X61588148Y-50604761D02*
X61564338Y-50699999D01*
X61564338Y-50699999D02*
X61540529Y-50747618D01*
X61540529Y-50747618D02*
X61516719Y-50771428D01*
X61516719Y-50771428D02*
X61469100Y-50795237D01*
X61469100Y-50795237D02*
X61421481Y-50795237D01*
X61421481Y-50795237D02*
X61373862Y-50771428D01*
X61373862Y-50771428D02*
X61350053Y-50747618D01*
X61350053Y-50747618D02*
X61326243Y-50699999D01*
X61326243Y-50699999D02*
X61326243Y-50580952D01*
X61326243Y-50580952D02*
X61350053Y-50509523D01*
X61778624Y-50009524D02*
X61802434Y-50033333D01*
X61802434Y-50033333D02*
X61826243Y-50104762D01*
X61826243Y-50104762D02*
X61826243Y-50152381D01*
X61826243Y-50152381D02*
X61802434Y-50223809D01*
X61802434Y-50223809D02*
X61754814Y-50271428D01*
X61754814Y-50271428D02*
X61707195Y-50295238D01*
X61707195Y-50295238D02*
X61611957Y-50319047D01*
X61611957Y-50319047D02*
X61540529Y-50319047D01*
X61540529Y-50319047D02*
X61445291Y-50295238D01*
X61445291Y-50295238D02*
X61397672Y-50271428D01*
X61397672Y-50271428D02*
X61350053Y-50223809D01*
X61350053Y-50223809D02*
X61326243Y-50152381D01*
X61326243Y-50152381D02*
X61326243Y-50104762D01*
X61326243Y-50104762D02*
X61350053Y-50033333D01*
X61350053Y-50033333D02*
X61373862Y-50009524D01*
X61826243Y-49557143D02*
X61826243Y-49795238D01*
X61826243Y-49795238D02*
X61326243Y-49795238D01*
X61826243Y-47783333D02*
X61588148Y-47949999D01*
X61826243Y-48069047D02*
X61326243Y-48069047D01*
X61326243Y-48069047D02*
X61326243Y-47878571D01*
X61326243Y-47878571D02*
X61350053Y-47830952D01*
X61350053Y-47830952D02*
X61373862Y-47807142D01*
X61373862Y-47807142D02*
X61421481Y-47783333D01*
X61421481Y-47783333D02*
X61492910Y-47783333D01*
X61492910Y-47783333D02*
X61540529Y-47807142D01*
X61540529Y-47807142D02*
X61564338Y-47830952D01*
X61564338Y-47830952D02*
X61588148Y-47878571D01*
X61588148Y-47878571D02*
X61588148Y-48069047D01*
X61326243Y-47616666D02*
X61826243Y-47283333D01*
X61326243Y-47283333D02*
X61826243Y-47616666D01*
X61326243Y-45622378D02*
X61326243Y-45336664D01*
X61826243Y-45479521D02*
X61326243Y-45479521D01*
X61326243Y-45217617D02*
X61826243Y-44884284D01*
X61326243Y-44884284D02*
X61826243Y-45217617D01*
X61826243Y-43152380D02*
X61326243Y-43152380D01*
X61826243Y-42914285D02*
X61326243Y-42914285D01*
X61326243Y-42914285D02*
X61826243Y-42628571D01*
X61826243Y-42628571D02*
X61326243Y-42628571D01*
X61326243Y-42461903D02*
X61326243Y-42176189D01*
X61826243Y-42319046D02*
X61326243Y-42319046D01*
X61826243Y-40864381D02*
X61326243Y-40864381D01*
X61326243Y-40864381D02*
X61326243Y-40673905D01*
X61326243Y-40673905D02*
X61350053Y-40626286D01*
X61350053Y-40626286D02*
X61373862Y-40602476D01*
X61373862Y-40602476D02*
X61421481Y-40578667D01*
X61421481Y-40578667D02*
X61492910Y-40578667D01*
X61492910Y-40578667D02*
X61540529Y-40602476D01*
X61540529Y-40602476D02*
X61564338Y-40626286D01*
X61564338Y-40626286D02*
X61588148Y-40673905D01*
X61588148Y-40673905D02*
X61588148Y-40864381D01*
X61326243Y-40412000D02*
X61826243Y-40292952D01*
X61826243Y-40292952D02*
X61469100Y-40197714D01*
X61469100Y-40197714D02*
X61826243Y-40102476D01*
X61826243Y-40102476D02*
X61326243Y-39983429D01*
X61826243Y-39792952D02*
X61326243Y-39792952D01*
X61326243Y-39792952D02*
X61683386Y-39626285D01*
X61683386Y-39626285D02*
X61326243Y-39459619D01*
X61326243Y-39459619D02*
X61826243Y-39459619D01*
X41052519Y-58380952D02*
X41028709Y-58428571D01*
X41028709Y-58428571D02*
X41028709Y-58500000D01*
X41028709Y-58500000D02*
X41052519Y-58571428D01*
X41052519Y-58571428D02*
X41100138Y-58619047D01*
X41100138Y-58619047D02*
X41147757Y-58642857D01*
X41147757Y-58642857D02*
X41242995Y-58666666D01*
X41242995Y-58666666D02*
X41314423Y-58666666D01*
X41314423Y-58666666D02*
X41409661Y-58642857D01*
X41409661Y-58642857D02*
X41457280Y-58619047D01*
X41457280Y-58619047D02*
X41504900Y-58571428D01*
X41504900Y-58571428D02*
X41528709Y-58500000D01*
X41528709Y-58500000D02*
X41528709Y-58452381D01*
X41528709Y-58452381D02*
X41504900Y-58380952D01*
X41504900Y-58380952D02*
X41481090Y-58357143D01*
X41481090Y-58357143D02*
X41314423Y-58357143D01*
X41314423Y-58357143D02*
X41314423Y-58452381D01*
X41528709Y-58142857D02*
X41028709Y-58142857D01*
X41028709Y-58142857D02*
X41528709Y-57857143D01*
X41528709Y-57857143D02*
X41028709Y-57857143D01*
X41528709Y-57619047D02*
X41028709Y-57619047D01*
X41028709Y-57619047D02*
X41028709Y-57499999D01*
X41028709Y-57499999D02*
X41052519Y-57428571D01*
X41052519Y-57428571D02*
X41100138Y-57380952D01*
X41100138Y-57380952D02*
X41147757Y-57357142D01*
X41147757Y-57357142D02*
X41242995Y-57333333D01*
X41242995Y-57333333D02*
X41314423Y-57333333D01*
X41314423Y-57333333D02*
X41409661Y-57357142D01*
X41409661Y-57357142D02*
X41457280Y-57380952D01*
X41457280Y-57380952D02*
X41504900Y-57428571D01*
X41504900Y-57428571D02*
X41528709Y-57499999D01*
X41528709Y-57499999D02*
X41528709Y-57619047D01*
X41028709Y-56047783D02*
X41028709Y-55738259D01*
X41028709Y-55738259D02*
X41219185Y-55904926D01*
X41219185Y-55904926D02*
X41219185Y-55833497D01*
X41219185Y-55833497D02*
X41242995Y-55785878D01*
X41242995Y-55785878D02*
X41266804Y-55762069D01*
X41266804Y-55762069D02*
X41314423Y-55738259D01*
X41314423Y-55738259D02*
X41433471Y-55738259D01*
X41433471Y-55738259D02*
X41481090Y-55762069D01*
X41481090Y-55762069D02*
X41504900Y-55785878D01*
X41504900Y-55785878D02*
X41528709Y-55833497D01*
X41528709Y-55833497D02*
X41528709Y-55976354D01*
X41528709Y-55976354D02*
X41504900Y-56023973D01*
X41504900Y-56023973D02*
X41481090Y-56047783D01*
X41028709Y-55595402D02*
X41528709Y-55428736D01*
X41528709Y-55428736D02*
X41028709Y-55262069D01*
X41028709Y-55143022D02*
X41028709Y-54833498D01*
X41028709Y-54833498D02*
X41219185Y-55000165D01*
X41219185Y-55000165D02*
X41219185Y-54928736D01*
X41219185Y-54928736D02*
X41242995Y-54881117D01*
X41242995Y-54881117D02*
X41266804Y-54857308D01*
X41266804Y-54857308D02*
X41314423Y-54833498D01*
X41314423Y-54833498D02*
X41433471Y-54833498D01*
X41433471Y-54833498D02*
X41481090Y-54857308D01*
X41481090Y-54857308D02*
X41504900Y-54881117D01*
X41504900Y-54881117D02*
X41528709Y-54928736D01*
X41528709Y-54928736D02*
X41528709Y-55071593D01*
X41528709Y-55071593D02*
X41504900Y-55119212D01*
X41504900Y-55119212D02*
X41481090Y-55143022D01*
X41504900Y-53409144D02*
X41528709Y-53337716D01*
X41528709Y-53337716D02*
X41528709Y-53218668D01*
X41528709Y-53218668D02*
X41504900Y-53171049D01*
X41504900Y-53171049D02*
X41481090Y-53147240D01*
X41481090Y-53147240D02*
X41433471Y-53123430D01*
X41433471Y-53123430D02*
X41385852Y-53123430D01*
X41385852Y-53123430D02*
X41338233Y-53147240D01*
X41338233Y-53147240D02*
X41314423Y-53171049D01*
X41314423Y-53171049D02*
X41290614Y-53218668D01*
X41290614Y-53218668D02*
X41266804Y-53313906D01*
X41266804Y-53313906D02*
X41242995Y-53361525D01*
X41242995Y-53361525D02*
X41219185Y-53385335D01*
X41219185Y-53385335D02*
X41171566Y-53409144D01*
X41171566Y-53409144D02*
X41123947Y-53409144D01*
X41123947Y-53409144D02*
X41076328Y-53385335D01*
X41076328Y-53385335D02*
X41052519Y-53361525D01*
X41052519Y-53361525D02*
X41028709Y-53313906D01*
X41028709Y-53313906D02*
X41028709Y-53194859D01*
X41028709Y-53194859D02*
X41052519Y-53123430D01*
X41528709Y-52909145D02*
X41028709Y-52909145D01*
X41028709Y-52909145D02*
X41028709Y-52790097D01*
X41028709Y-52790097D02*
X41052519Y-52718669D01*
X41052519Y-52718669D02*
X41100138Y-52671050D01*
X41100138Y-52671050D02*
X41147757Y-52647240D01*
X41147757Y-52647240D02*
X41242995Y-52623431D01*
X41242995Y-52623431D02*
X41314423Y-52623431D01*
X41314423Y-52623431D02*
X41409661Y-52647240D01*
X41409661Y-52647240D02*
X41457280Y-52671050D01*
X41457280Y-52671050D02*
X41504900Y-52718669D01*
X41504900Y-52718669D02*
X41528709Y-52790097D01*
X41528709Y-52790097D02*
X41528709Y-52909145D01*
X41528709Y-52409145D02*
X41028709Y-52409145D01*
X41504900Y-50960982D02*
X41528709Y-50889554D01*
X41528709Y-50889554D02*
X41528709Y-50770506D01*
X41528709Y-50770506D02*
X41504900Y-50722887D01*
X41504900Y-50722887D02*
X41481090Y-50699078D01*
X41481090Y-50699078D02*
X41433471Y-50675268D01*
X41433471Y-50675268D02*
X41385852Y-50675268D01*
X41385852Y-50675268D02*
X41338233Y-50699078D01*
X41338233Y-50699078D02*
X41314423Y-50722887D01*
X41314423Y-50722887D02*
X41290614Y-50770506D01*
X41290614Y-50770506D02*
X41266804Y-50865744D01*
X41266804Y-50865744D02*
X41242995Y-50913363D01*
X41242995Y-50913363D02*
X41219185Y-50937173D01*
X41219185Y-50937173D02*
X41171566Y-50960982D01*
X41171566Y-50960982D02*
X41123947Y-50960982D01*
X41123947Y-50960982D02*
X41076328Y-50937173D01*
X41076328Y-50937173D02*
X41052519Y-50913363D01*
X41052519Y-50913363D02*
X41028709Y-50865744D01*
X41028709Y-50865744D02*
X41028709Y-50746697D01*
X41028709Y-50746697D02*
X41052519Y-50675268D01*
X41528709Y-50460983D02*
X41028709Y-50460983D01*
X41028709Y-50460983D02*
X41028709Y-50341935D01*
X41028709Y-50341935D02*
X41052519Y-50270507D01*
X41052519Y-50270507D02*
X41100138Y-50222888D01*
X41100138Y-50222888D02*
X41147757Y-50199078D01*
X41147757Y-50199078D02*
X41242995Y-50175269D01*
X41242995Y-50175269D02*
X41314423Y-50175269D01*
X41314423Y-50175269D02*
X41409661Y-50199078D01*
X41409661Y-50199078D02*
X41457280Y-50222888D01*
X41457280Y-50222888D02*
X41504900Y-50270507D01*
X41504900Y-50270507D02*
X41528709Y-50341935D01*
X41528709Y-50341935D02*
X41528709Y-50460983D01*
X41028709Y-49865745D02*
X41028709Y-49770507D01*
X41028709Y-49770507D02*
X41052519Y-49722888D01*
X41052519Y-49722888D02*
X41100138Y-49675269D01*
X41100138Y-49675269D02*
X41195376Y-49651459D01*
X41195376Y-49651459D02*
X41362042Y-49651459D01*
X41362042Y-49651459D02*
X41457280Y-49675269D01*
X41457280Y-49675269D02*
X41504900Y-49722888D01*
X41504900Y-49722888D02*
X41528709Y-49770507D01*
X41528709Y-49770507D02*
X41528709Y-49865745D01*
X41528709Y-49865745D02*
X41504900Y-49913364D01*
X41504900Y-49913364D02*
X41457280Y-49960983D01*
X41457280Y-49960983D02*
X41362042Y-49984792D01*
X41362042Y-49984792D02*
X41195376Y-49984792D01*
X41195376Y-49984792D02*
X41100138Y-49960983D01*
X41100138Y-49960983D02*
X41052519Y-49913364D01*
X41052519Y-49913364D02*
X41028709Y-49865745D01*
X41504900Y-48342856D02*
X41528709Y-48271428D01*
X41528709Y-48271428D02*
X41528709Y-48152380D01*
X41528709Y-48152380D02*
X41504900Y-48104761D01*
X41504900Y-48104761D02*
X41481090Y-48080952D01*
X41481090Y-48080952D02*
X41433471Y-48057142D01*
X41433471Y-48057142D02*
X41385852Y-48057142D01*
X41385852Y-48057142D02*
X41338233Y-48080952D01*
X41338233Y-48080952D02*
X41314423Y-48104761D01*
X41314423Y-48104761D02*
X41290614Y-48152380D01*
X41290614Y-48152380D02*
X41266804Y-48247618D01*
X41266804Y-48247618D02*
X41242995Y-48295237D01*
X41242995Y-48295237D02*
X41219185Y-48319047D01*
X41219185Y-48319047D02*
X41171566Y-48342856D01*
X41171566Y-48342856D02*
X41123947Y-48342856D01*
X41123947Y-48342856D02*
X41076328Y-48319047D01*
X41076328Y-48319047D02*
X41052519Y-48295237D01*
X41052519Y-48295237D02*
X41028709Y-48247618D01*
X41028709Y-48247618D02*
X41028709Y-48128571D01*
X41028709Y-48128571D02*
X41052519Y-48057142D01*
X41481090Y-47557143D02*
X41504900Y-47580952D01*
X41504900Y-47580952D02*
X41528709Y-47652381D01*
X41528709Y-47652381D02*
X41528709Y-47700000D01*
X41528709Y-47700000D02*
X41504900Y-47771428D01*
X41504900Y-47771428D02*
X41457280Y-47819047D01*
X41457280Y-47819047D02*
X41409661Y-47842857D01*
X41409661Y-47842857D02*
X41314423Y-47866666D01*
X41314423Y-47866666D02*
X41242995Y-47866666D01*
X41242995Y-47866666D02*
X41147757Y-47842857D01*
X41147757Y-47842857D02*
X41100138Y-47819047D01*
X41100138Y-47819047D02*
X41052519Y-47771428D01*
X41052519Y-47771428D02*
X41028709Y-47700000D01*
X41028709Y-47700000D02*
X41028709Y-47652381D01*
X41028709Y-47652381D02*
X41052519Y-47580952D01*
X41052519Y-47580952D02*
X41076328Y-47557143D01*
X41528709Y-47342857D02*
X41028709Y-47342857D01*
X41528709Y-47057143D02*
X41242995Y-47271428D01*
X41028709Y-47057143D02*
X41314423Y-47342857D01*
X41481090Y-45283333D02*
X41504900Y-45307142D01*
X41504900Y-45307142D02*
X41528709Y-45378571D01*
X41528709Y-45378571D02*
X41528709Y-45426190D01*
X41528709Y-45426190D02*
X41504900Y-45497618D01*
X41504900Y-45497618D02*
X41457280Y-45545237D01*
X41457280Y-45545237D02*
X41409661Y-45569047D01*
X41409661Y-45569047D02*
X41314423Y-45592856D01*
X41314423Y-45592856D02*
X41242995Y-45592856D01*
X41242995Y-45592856D02*
X41147757Y-45569047D01*
X41147757Y-45569047D02*
X41100138Y-45545237D01*
X41100138Y-45545237D02*
X41052519Y-45497618D01*
X41052519Y-45497618D02*
X41028709Y-45426190D01*
X41028709Y-45426190D02*
X41028709Y-45378571D01*
X41028709Y-45378571D02*
X41052519Y-45307142D01*
X41052519Y-45307142D02*
X41076328Y-45283333D01*
X41504900Y-45092856D02*
X41528709Y-45021428D01*
X41528709Y-45021428D02*
X41528709Y-44902380D01*
X41528709Y-44902380D02*
X41504900Y-44854761D01*
X41504900Y-44854761D02*
X41481090Y-44830952D01*
X41481090Y-44830952D02*
X41433471Y-44807142D01*
X41433471Y-44807142D02*
X41385852Y-44807142D01*
X41385852Y-44807142D02*
X41338233Y-44830952D01*
X41338233Y-44830952D02*
X41314423Y-44854761D01*
X41314423Y-44854761D02*
X41290614Y-44902380D01*
X41290614Y-44902380D02*
X41266804Y-44997618D01*
X41266804Y-44997618D02*
X41242995Y-45045237D01*
X41242995Y-45045237D02*
X41219185Y-45069047D01*
X41219185Y-45069047D02*
X41171566Y-45092856D01*
X41171566Y-45092856D02*
X41123947Y-45092856D01*
X41123947Y-45092856D02*
X41076328Y-45069047D01*
X41076328Y-45069047D02*
X41052519Y-45045237D01*
X41052519Y-45045237D02*
X41028709Y-44997618D01*
X41028709Y-44997618D02*
X41028709Y-44878571D01*
X41028709Y-44878571D02*
X41052519Y-44807142D01*
X41528709Y-42997448D02*
X41290614Y-43164114D01*
X41528709Y-43283162D02*
X41028709Y-43283162D01*
X41028709Y-43283162D02*
X41028709Y-43092686D01*
X41028709Y-43092686D02*
X41052519Y-43045067D01*
X41052519Y-43045067D02*
X41076328Y-43021257D01*
X41076328Y-43021257D02*
X41123947Y-42997448D01*
X41123947Y-42997448D02*
X41195376Y-42997448D01*
X41195376Y-42997448D02*
X41242995Y-43021257D01*
X41242995Y-43021257D02*
X41266804Y-43045067D01*
X41266804Y-43045067D02*
X41290614Y-43092686D01*
X41290614Y-43092686D02*
X41290614Y-43283162D01*
X41504900Y-42806971D02*
X41528709Y-42735543D01*
X41528709Y-42735543D02*
X41528709Y-42616495D01*
X41528709Y-42616495D02*
X41504900Y-42568876D01*
X41504900Y-42568876D02*
X41481090Y-42545067D01*
X41481090Y-42545067D02*
X41433471Y-42521257D01*
X41433471Y-42521257D02*
X41385852Y-42521257D01*
X41385852Y-42521257D02*
X41338233Y-42545067D01*
X41338233Y-42545067D02*
X41314423Y-42568876D01*
X41314423Y-42568876D02*
X41290614Y-42616495D01*
X41290614Y-42616495D02*
X41266804Y-42711733D01*
X41266804Y-42711733D02*
X41242995Y-42759352D01*
X41242995Y-42759352D02*
X41219185Y-42783162D01*
X41219185Y-42783162D02*
X41171566Y-42806971D01*
X41171566Y-42806971D02*
X41123947Y-42806971D01*
X41123947Y-42806971D02*
X41076328Y-42783162D01*
X41076328Y-42783162D02*
X41052519Y-42759352D01*
X41052519Y-42759352D02*
X41028709Y-42711733D01*
X41028709Y-42711733D02*
X41028709Y-42592686D01*
X41028709Y-42592686D02*
X41052519Y-42521257D01*
X41028709Y-42378400D02*
X41028709Y-42092686D01*
X41528709Y-42235543D02*
X41028709Y-42235543D01*
X41385852Y-40715951D02*
X41385852Y-40477856D01*
X41528709Y-40763570D02*
X41028709Y-40596904D01*
X41028709Y-40596904D02*
X41528709Y-40430237D01*
X41528709Y-40263571D02*
X41028709Y-40263571D01*
X41028709Y-40263571D02*
X41528709Y-39977857D01*
X41528709Y-39977857D02*
X41028709Y-39977857D01*
D12*
X53190095Y-50267819D02*
X53190095Y-51077342D01*
X53190095Y-51077342D02*
X53237714Y-51172580D01*
X53237714Y-51172580D02*
X53285333Y-51220200D01*
X53285333Y-51220200D02*
X53380571Y-51267819D01*
X53380571Y-51267819D02*
X53571047Y-51267819D01*
X53571047Y-51267819D02*
X53666285Y-51220200D01*
X53666285Y-51220200D02*
X53713904Y-51172580D01*
X53713904Y-51172580D02*
X53761523Y-51077342D01*
X53761523Y-51077342D02*
X53761523Y-50267819D01*
X54190095Y-50363057D02*
X54237714Y-50315438D01*
X54237714Y-50315438D02*
X54332952Y-50267819D01*
X54332952Y-50267819D02*
X54571047Y-50267819D01*
X54571047Y-50267819D02*
X54666285Y-50315438D01*
X54666285Y-50315438D02*
X54713904Y-50363057D01*
X54713904Y-50363057D02*
X54761523Y-50458295D01*
X54761523Y-50458295D02*
X54761523Y-50553533D01*
X54761523Y-50553533D02*
X54713904Y-50696390D01*
X54713904Y-50696390D02*
X54142476Y-51267819D01*
X54142476Y-51267819D02*
X54761523Y-51267819D01*
X47608333Y-44074819D02*
X47275000Y-43598628D01*
X47036905Y-44074819D02*
X47036905Y-43074819D01*
X47036905Y-43074819D02*
X47417857Y-43074819D01*
X47417857Y-43074819D02*
X47513095Y-43122438D01*
X47513095Y-43122438D02*
X47560714Y-43170057D01*
X47560714Y-43170057D02*
X47608333Y-43265295D01*
X47608333Y-43265295D02*
X47608333Y-43408152D01*
X47608333Y-43408152D02*
X47560714Y-43503390D01*
X47560714Y-43503390D02*
X47513095Y-43551009D01*
X47513095Y-43551009D02*
X47417857Y-43598628D01*
X47417857Y-43598628D02*
X47036905Y-43598628D01*
X48465476Y-43408152D02*
X48465476Y-44074819D01*
X48227381Y-43027200D02*
X47989286Y-43741485D01*
X47989286Y-43741485D02*
X48608333Y-43741485D01*
X54424819Y-66091666D02*
X53948628Y-66424999D01*
X54424819Y-66663094D02*
X53424819Y-66663094D01*
X53424819Y-66663094D02*
X53424819Y-66282142D01*
X53424819Y-66282142D02*
X53472438Y-66186904D01*
X53472438Y-66186904D02*
X53520057Y-66139285D01*
X53520057Y-66139285D02*
X53615295Y-66091666D01*
X53615295Y-66091666D02*
X53758152Y-66091666D01*
X53758152Y-66091666D02*
X53853390Y-66139285D01*
X53853390Y-66139285D02*
X53901009Y-66186904D01*
X53901009Y-66186904D02*
X53948628Y-66282142D01*
X53948628Y-66282142D02*
X53948628Y-66663094D01*
X54424819Y-65139285D02*
X54424819Y-65710713D01*
X54424819Y-65424999D02*
X53424819Y-65424999D01*
X53424819Y-65424999D02*
X53567676Y-65520237D01*
X53567676Y-65520237D02*
X53662914Y-65615475D01*
X53662914Y-65615475D02*
X53710533Y-65710713D01*
X62292319Y-63513094D02*
X61292319Y-63513094D01*
X61292319Y-63513094D02*
X61292319Y-63274999D01*
X61292319Y-63274999D02*
X61339938Y-63132142D01*
X61339938Y-63132142D02*
X61435176Y-63036904D01*
X61435176Y-63036904D02*
X61530414Y-62989285D01*
X61530414Y-62989285D02*
X61720890Y-62941666D01*
X61720890Y-62941666D02*
X61863747Y-62941666D01*
X61863747Y-62941666D02*
X62054223Y-62989285D01*
X62054223Y-62989285D02*
X62149461Y-63036904D01*
X62149461Y-63036904D02*
X62244700Y-63132142D01*
X62244700Y-63132142D02*
X62292319Y-63274999D01*
X62292319Y-63274999D02*
X62292319Y-63513094D01*
X61292319Y-62608332D02*
X61292319Y-61989285D01*
X61292319Y-61989285D02*
X61673271Y-62322618D01*
X61673271Y-62322618D02*
X61673271Y-62179761D01*
X61673271Y-62179761D02*
X61720890Y-62084523D01*
X61720890Y-62084523D02*
X61768509Y-62036904D01*
X61768509Y-62036904D02*
X61863747Y-61989285D01*
X61863747Y-61989285D02*
X62101842Y-61989285D01*
X62101842Y-61989285D02*
X62197080Y-62036904D01*
X62197080Y-62036904D02*
X62244700Y-62084523D01*
X62244700Y-62084523D02*
X62292319Y-62179761D01*
X62292319Y-62179761D02*
X62292319Y-62465475D01*
X62292319Y-62465475D02*
X62244700Y-62560713D01*
X62244700Y-62560713D02*
X62197080Y-62608332D01*
X51574819Y-66091666D02*
X51098628Y-66424999D01*
X51574819Y-66663094D02*
X50574819Y-66663094D01*
X50574819Y-66663094D02*
X50574819Y-66282142D01*
X50574819Y-66282142D02*
X50622438Y-66186904D01*
X50622438Y-66186904D02*
X50670057Y-66139285D01*
X50670057Y-66139285D02*
X50765295Y-66091666D01*
X50765295Y-66091666D02*
X50908152Y-66091666D01*
X50908152Y-66091666D02*
X51003390Y-66139285D01*
X51003390Y-66139285D02*
X51051009Y-66186904D01*
X51051009Y-66186904D02*
X51098628Y-66282142D01*
X51098628Y-66282142D02*
X51098628Y-66663094D01*
X50670057Y-65710713D02*
X50622438Y-65663094D01*
X50622438Y-65663094D02*
X50574819Y-65567856D01*
X50574819Y-65567856D02*
X50574819Y-65329761D01*
X50574819Y-65329761D02*
X50622438Y-65234523D01*
X50622438Y-65234523D02*
X50670057Y-65186904D01*
X50670057Y-65186904D02*
X50765295Y-65139285D01*
X50765295Y-65139285D02*
X50860533Y-65139285D01*
X50860533Y-65139285D02*
X51003390Y-65186904D01*
X51003390Y-65186904D02*
X51574819Y-65758332D01*
X51574819Y-65758332D02*
X51574819Y-65139285D01*
X58489580Y-55266666D02*
X58537200Y-55314285D01*
X58537200Y-55314285D02*
X58584819Y-55457142D01*
X58584819Y-55457142D02*
X58584819Y-55552380D01*
X58584819Y-55552380D02*
X58537200Y-55695237D01*
X58537200Y-55695237D02*
X58441961Y-55790475D01*
X58441961Y-55790475D02*
X58346723Y-55838094D01*
X58346723Y-55838094D02*
X58156247Y-55885713D01*
X58156247Y-55885713D02*
X58013390Y-55885713D01*
X58013390Y-55885713D02*
X57822914Y-55838094D01*
X57822914Y-55838094D02*
X57727676Y-55790475D01*
X57727676Y-55790475D02*
X57632438Y-55695237D01*
X57632438Y-55695237D02*
X57584819Y-55552380D01*
X57584819Y-55552380D02*
X57584819Y-55457142D01*
X57584819Y-55457142D02*
X57632438Y-55314285D01*
X57632438Y-55314285D02*
X57680057Y-55266666D01*
X57918152Y-54409523D02*
X58584819Y-54409523D01*
X57537200Y-54647618D02*
X58251485Y-54885713D01*
X58251485Y-54885713D02*
X58251485Y-54266666D01*
X51429580Y-62791666D02*
X51477200Y-62839285D01*
X51477200Y-62839285D02*
X51524819Y-62982142D01*
X51524819Y-62982142D02*
X51524819Y-63077380D01*
X51524819Y-63077380D02*
X51477200Y-63220237D01*
X51477200Y-63220237D02*
X51381961Y-63315475D01*
X51381961Y-63315475D02*
X51286723Y-63363094D01*
X51286723Y-63363094D02*
X51096247Y-63410713D01*
X51096247Y-63410713D02*
X50953390Y-63410713D01*
X50953390Y-63410713D02*
X50762914Y-63363094D01*
X50762914Y-63363094D02*
X50667676Y-63315475D01*
X50667676Y-63315475D02*
X50572438Y-63220237D01*
X50572438Y-63220237D02*
X50524819Y-63077380D01*
X50524819Y-63077380D02*
X50524819Y-62982142D01*
X50524819Y-62982142D02*
X50572438Y-62839285D01*
X50572438Y-62839285D02*
X50620057Y-62791666D01*
X50620057Y-62410713D02*
X50572438Y-62363094D01*
X50572438Y-62363094D02*
X50524819Y-62267856D01*
X50524819Y-62267856D02*
X50524819Y-62029761D01*
X50524819Y-62029761D02*
X50572438Y-61934523D01*
X50572438Y-61934523D02*
X50620057Y-61886904D01*
X50620057Y-61886904D02*
X50715295Y-61839285D01*
X50715295Y-61839285D02*
X50810533Y-61839285D01*
X50810533Y-61839285D02*
X50953390Y-61886904D01*
X50953390Y-61886904D02*
X51524819Y-62458332D01*
X51524819Y-62458332D02*
X51524819Y-61839285D01*
X55454819Y-58900594D02*
X54454819Y-58900594D01*
X54454819Y-58900594D02*
X54454819Y-58662499D01*
X54454819Y-58662499D02*
X54502438Y-58519642D01*
X54502438Y-58519642D02*
X54597676Y-58424404D01*
X54597676Y-58424404D02*
X54692914Y-58376785D01*
X54692914Y-58376785D02*
X54883390Y-58329166D01*
X54883390Y-58329166D02*
X55026247Y-58329166D01*
X55026247Y-58329166D02*
X55216723Y-58376785D01*
X55216723Y-58376785D02*
X55311961Y-58424404D01*
X55311961Y-58424404D02*
X55407200Y-58519642D01*
X55407200Y-58519642D02*
X55454819Y-58662499D01*
X55454819Y-58662499D02*
X55454819Y-58900594D01*
X54550057Y-57948213D02*
X54502438Y-57900594D01*
X54502438Y-57900594D02*
X54454819Y-57805356D01*
X54454819Y-57805356D02*
X54454819Y-57567261D01*
X54454819Y-57567261D02*
X54502438Y-57472023D01*
X54502438Y-57472023D02*
X54550057Y-57424404D01*
X54550057Y-57424404D02*
X54645295Y-57376785D01*
X54645295Y-57376785D02*
X54740533Y-57376785D01*
X54740533Y-57376785D02*
X54883390Y-57424404D01*
X54883390Y-57424404D02*
X55454819Y-57995832D01*
X55454819Y-57995832D02*
X55454819Y-57376785D01*
D13*
X51649137Y-46394998D02*
X51649137Y-45124998D01*
X52979614Y-46274045D02*
X52919138Y-46334522D01*
X52919138Y-46334522D02*
X52737709Y-46394998D01*
X52737709Y-46394998D02*
X52616757Y-46394998D01*
X52616757Y-46394998D02*
X52435328Y-46334522D01*
X52435328Y-46334522D02*
X52314376Y-46213569D01*
X52314376Y-46213569D02*
X52253899Y-46092617D01*
X52253899Y-46092617D02*
X52193423Y-45850712D01*
X52193423Y-45850712D02*
X52193423Y-45669283D01*
X52193423Y-45669283D02*
X52253899Y-45427379D01*
X52253899Y-45427379D02*
X52314376Y-45306426D01*
X52314376Y-45306426D02*
X52435328Y-45185474D01*
X52435328Y-45185474D02*
X52616757Y-45124998D01*
X52616757Y-45124998D02*
X52737709Y-45124998D01*
X52737709Y-45124998D02*
X52919138Y-45185474D01*
X52919138Y-45185474D02*
X52979614Y-45245950D01*
X54189138Y-46394998D02*
X53463423Y-46394998D01*
X53826280Y-46394998D02*
X53826280Y-45124998D01*
X53826280Y-45124998D02*
X53705328Y-45306426D01*
X53705328Y-45306426D02*
X53584376Y-45427379D01*
X53584376Y-45427379D02*
X53463423Y-45487855D01*
D12*
X57358333Y-46684819D02*
X57025000Y-46208628D01*
X56786905Y-46684819D02*
X56786905Y-45684819D01*
X56786905Y-45684819D02*
X57167857Y-45684819D01*
X57167857Y-45684819D02*
X57263095Y-45732438D01*
X57263095Y-45732438D02*
X57310714Y-45780057D01*
X57310714Y-45780057D02*
X57358333Y-45875295D01*
X57358333Y-45875295D02*
X57358333Y-46018152D01*
X57358333Y-46018152D02*
X57310714Y-46113390D01*
X57310714Y-46113390D02*
X57263095Y-46161009D01*
X57263095Y-46161009D02*
X57167857Y-46208628D01*
X57167857Y-46208628D02*
X56786905Y-46208628D01*
X57929762Y-46113390D02*
X57834524Y-46065771D01*
X57834524Y-46065771D02*
X57786905Y-46018152D01*
X57786905Y-46018152D02*
X57739286Y-45922914D01*
X57739286Y-45922914D02*
X57739286Y-45875295D01*
X57739286Y-45875295D02*
X57786905Y-45780057D01*
X57786905Y-45780057D02*
X57834524Y-45732438D01*
X57834524Y-45732438D02*
X57929762Y-45684819D01*
X57929762Y-45684819D02*
X58120238Y-45684819D01*
X58120238Y-45684819D02*
X58215476Y-45732438D01*
X58215476Y-45732438D02*
X58263095Y-45780057D01*
X58263095Y-45780057D02*
X58310714Y-45875295D01*
X58310714Y-45875295D02*
X58310714Y-45922914D01*
X58310714Y-45922914D02*
X58263095Y-46018152D01*
X58263095Y-46018152D02*
X58215476Y-46065771D01*
X58215476Y-46065771D02*
X58120238Y-46113390D01*
X58120238Y-46113390D02*
X57929762Y-46113390D01*
X57929762Y-46113390D02*
X57834524Y-46161009D01*
X57834524Y-46161009D02*
X57786905Y-46208628D01*
X57786905Y-46208628D02*
X57739286Y-46303866D01*
X57739286Y-46303866D02*
X57739286Y-46494342D01*
X57739286Y-46494342D02*
X57786905Y-46589580D01*
X57786905Y-46589580D02*
X57834524Y-46637200D01*
X57834524Y-46637200D02*
X57929762Y-46684819D01*
X57929762Y-46684819D02*
X58120238Y-46684819D01*
X58120238Y-46684819D02*
X58215476Y-46637200D01*
X58215476Y-46637200D02*
X58263095Y-46589580D01*
X58263095Y-46589580D02*
X58310714Y-46494342D01*
X58310714Y-46494342D02*
X58310714Y-46303866D01*
X58310714Y-46303866D02*
X58263095Y-46208628D01*
X58263095Y-46208628D02*
X58215476Y-46161009D01*
X58215476Y-46161009D02*
X58120238Y-46113390D01*
X57258333Y-49654819D02*
X56925000Y-49178628D01*
X56686905Y-49654819D02*
X56686905Y-48654819D01*
X56686905Y-48654819D02*
X57067857Y-48654819D01*
X57067857Y-48654819D02*
X57163095Y-48702438D01*
X57163095Y-48702438D02*
X57210714Y-48750057D01*
X57210714Y-48750057D02*
X57258333Y-48845295D01*
X57258333Y-48845295D02*
X57258333Y-48988152D01*
X57258333Y-48988152D02*
X57210714Y-49083390D01*
X57210714Y-49083390D02*
X57163095Y-49131009D01*
X57163095Y-49131009D02*
X57067857Y-49178628D01*
X57067857Y-49178628D02*
X56686905Y-49178628D01*
X57591667Y-48654819D02*
X58258333Y-48654819D01*
X58258333Y-48654819D02*
X57829762Y-49654819D01*
X43154819Y-63738094D02*
X42154819Y-63738094D01*
X42154819Y-63738094D02*
X42154819Y-63499999D01*
X42154819Y-63499999D02*
X42202438Y-63357142D01*
X42202438Y-63357142D02*
X42297676Y-63261904D01*
X42297676Y-63261904D02*
X42392914Y-63214285D01*
X42392914Y-63214285D02*
X42583390Y-63166666D01*
X42583390Y-63166666D02*
X42726247Y-63166666D01*
X42726247Y-63166666D02*
X42916723Y-63214285D01*
X42916723Y-63214285D02*
X43011961Y-63261904D01*
X43011961Y-63261904D02*
X43107200Y-63357142D01*
X43107200Y-63357142D02*
X43154819Y-63499999D01*
X43154819Y-63499999D02*
X43154819Y-63738094D01*
X43154819Y-62214285D02*
X43154819Y-62785713D01*
X43154819Y-62499999D02*
X42154819Y-62499999D01*
X42154819Y-62499999D02*
X42297676Y-62595237D01*
X42297676Y-62595237D02*
X42392914Y-62690475D01*
X42392914Y-62690475D02*
X42440533Y-62785713D01*
X54367080Y-62791666D02*
X54414700Y-62839285D01*
X54414700Y-62839285D02*
X54462319Y-62982142D01*
X54462319Y-62982142D02*
X54462319Y-63077380D01*
X54462319Y-63077380D02*
X54414700Y-63220237D01*
X54414700Y-63220237D02*
X54319461Y-63315475D01*
X54319461Y-63315475D02*
X54224223Y-63363094D01*
X54224223Y-63363094D02*
X54033747Y-63410713D01*
X54033747Y-63410713D02*
X53890890Y-63410713D01*
X53890890Y-63410713D02*
X53700414Y-63363094D01*
X53700414Y-63363094D02*
X53605176Y-63315475D01*
X53605176Y-63315475D02*
X53509938Y-63220237D01*
X53509938Y-63220237D02*
X53462319Y-63077380D01*
X53462319Y-63077380D02*
X53462319Y-62982142D01*
X53462319Y-62982142D02*
X53509938Y-62839285D01*
X53509938Y-62839285D02*
X53557557Y-62791666D01*
X53462319Y-62458332D02*
X53462319Y-61839285D01*
X53462319Y-61839285D02*
X53843271Y-62172618D01*
X53843271Y-62172618D02*
X53843271Y-62029761D01*
X53843271Y-62029761D02*
X53890890Y-61934523D01*
X53890890Y-61934523D02*
X53938509Y-61886904D01*
X53938509Y-61886904D02*
X54033747Y-61839285D01*
X54033747Y-61839285D02*
X54271842Y-61839285D01*
X54271842Y-61839285D02*
X54367080Y-61886904D01*
X54367080Y-61886904D02*
X54414700Y-61934523D01*
X54414700Y-61934523D02*
X54462319Y-62029761D01*
X54462319Y-62029761D02*
X54462319Y-62315475D01*
X54462319Y-62315475D02*
X54414700Y-62410713D01*
X54414700Y-62410713D02*
X54367080Y-62458332D01*
X48629580Y-62791666D02*
X48677200Y-62839285D01*
X48677200Y-62839285D02*
X48724819Y-62982142D01*
X48724819Y-62982142D02*
X48724819Y-63077380D01*
X48724819Y-63077380D02*
X48677200Y-63220237D01*
X48677200Y-63220237D02*
X48581961Y-63315475D01*
X48581961Y-63315475D02*
X48486723Y-63363094D01*
X48486723Y-63363094D02*
X48296247Y-63410713D01*
X48296247Y-63410713D02*
X48153390Y-63410713D01*
X48153390Y-63410713D02*
X47962914Y-63363094D01*
X47962914Y-63363094D02*
X47867676Y-63315475D01*
X47867676Y-63315475D02*
X47772438Y-63220237D01*
X47772438Y-63220237D02*
X47724819Y-63077380D01*
X47724819Y-63077380D02*
X47724819Y-62982142D01*
X47724819Y-62982142D02*
X47772438Y-62839285D01*
X47772438Y-62839285D02*
X47820057Y-62791666D01*
X48724819Y-61839285D02*
X48724819Y-62410713D01*
X48724819Y-62124999D02*
X47724819Y-62124999D01*
X47724819Y-62124999D02*
X47867676Y-62220237D01*
X47867676Y-62220237D02*
X47962914Y-62315475D01*
X47962914Y-62315475D02*
X48010533Y-62410713D01*
X47608333Y-46924819D02*
X47275000Y-46448628D01*
X47036905Y-46924819D02*
X47036905Y-45924819D01*
X47036905Y-45924819D02*
X47417857Y-45924819D01*
X47417857Y-45924819D02*
X47513095Y-45972438D01*
X47513095Y-45972438D02*
X47560714Y-46020057D01*
X47560714Y-46020057D02*
X47608333Y-46115295D01*
X47608333Y-46115295D02*
X47608333Y-46258152D01*
X47608333Y-46258152D02*
X47560714Y-46353390D01*
X47560714Y-46353390D02*
X47513095Y-46401009D01*
X47513095Y-46401009D02*
X47417857Y-46448628D01*
X47417857Y-46448628D02*
X47036905Y-46448628D01*
X48465476Y-45924819D02*
X48275000Y-45924819D01*
X48275000Y-45924819D02*
X48179762Y-45972438D01*
X48179762Y-45972438D02*
X48132143Y-46020057D01*
X48132143Y-46020057D02*
X48036905Y-46162914D01*
X48036905Y-46162914D02*
X47989286Y-46353390D01*
X47989286Y-46353390D02*
X47989286Y-46734342D01*
X47989286Y-46734342D02*
X48036905Y-46829580D01*
X48036905Y-46829580D02*
X48084524Y-46877200D01*
X48084524Y-46877200D02*
X48179762Y-46924819D01*
X48179762Y-46924819D02*
X48370238Y-46924819D01*
X48370238Y-46924819D02*
X48465476Y-46877200D01*
X48465476Y-46877200D02*
X48513095Y-46829580D01*
X48513095Y-46829580D02*
X48560714Y-46734342D01*
X48560714Y-46734342D02*
X48560714Y-46496247D01*
X48560714Y-46496247D02*
X48513095Y-46401009D01*
X48513095Y-46401009D02*
X48465476Y-46353390D01*
X48465476Y-46353390D02*
X48370238Y-46305771D01*
X48370238Y-46305771D02*
X48179762Y-46305771D01*
X48179762Y-46305771D02*
X48084524Y-46353390D01*
X48084524Y-46353390D02*
X48036905Y-46401009D01*
X48036905Y-46401009D02*
X47989286Y-46496247D01*
X47608333Y-41224819D02*
X47275000Y-40748628D01*
X47036905Y-41224819D02*
X47036905Y-40224819D01*
X47036905Y-40224819D02*
X47417857Y-40224819D01*
X47417857Y-40224819D02*
X47513095Y-40272438D01*
X47513095Y-40272438D02*
X47560714Y-40320057D01*
X47560714Y-40320057D02*
X47608333Y-40415295D01*
X47608333Y-40415295D02*
X47608333Y-40558152D01*
X47608333Y-40558152D02*
X47560714Y-40653390D01*
X47560714Y-40653390D02*
X47513095Y-40701009D01*
X47513095Y-40701009D02*
X47417857Y-40748628D01*
X47417857Y-40748628D02*
X47036905Y-40748628D01*
X48513095Y-40224819D02*
X48036905Y-40224819D01*
X48036905Y-40224819D02*
X47989286Y-40701009D01*
X47989286Y-40701009D02*
X48036905Y-40653390D01*
X48036905Y-40653390D02*
X48132143Y-40605771D01*
X48132143Y-40605771D02*
X48370238Y-40605771D01*
X48370238Y-40605771D02*
X48465476Y-40653390D01*
X48465476Y-40653390D02*
X48513095Y-40701009D01*
X48513095Y-40701009D02*
X48560714Y-40796247D01*
X48560714Y-40796247D02*
X48560714Y-41034342D01*
X48560714Y-41034342D02*
X48513095Y-41129580D01*
X48513095Y-41129580D02*
X48465476Y-41177200D01*
X48465476Y-41177200D02*
X48370238Y-41224819D01*
X48370238Y-41224819D02*
X48132143Y-41224819D01*
X48132143Y-41224819D02*
X48036905Y-41177200D01*
X48036905Y-41177200D02*
X47989286Y-41129580D01*
X48724819Y-66091666D02*
X48248628Y-66424999D01*
X48724819Y-66663094D02*
X47724819Y-66663094D01*
X47724819Y-66663094D02*
X47724819Y-66282142D01*
X47724819Y-66282142D02*
X47772438Y-66186904D01*
X47772438Y-66186904D02*
X47820057Y-66139285D01*
X47820057Y-66139285D02*
X47915295Y-66091666D01*
X47915295Y-66091666D02*
X48058152Y-66091666D01*
X48058152Y-66091666D02*
X48153390Y-66139285D01*
X48153390Y-66139285D02*
X48201009Y-66186904D01*
X48201009Y-66186904D02*
X48248628Y-66282142D01*
X48248628Y-66282142D02*
X48248628Y-66663094D01*
X47724819Y-65758332D02*
X47724819Y-65139285D01*
X47724819Y-65139285D02*
X48105771Y-65472618D01*
X48105771Y-65472618D02*
X48105771Y-65329761D01*
X48105771Y-65329761D02*
X48153390Y-65234523D01*
X48153390Y-65234523D02*
X48201009Y-65186904D01*
X48201009Y-65186904D02*
X48296247Y-65139285D01*
X48296247Y-65139285D02*
X48534342Y-65139285D01*
X48534342Y-65139285D02*
X48629580Y-65186904D01*
X48629580Y-65186904D02*
X48677200Y-65234523D01*
X48677200Y-65234523D02*
X48724819Y-65329761D01*
X48724819Y-65329761D02*
X48724819Y-65615475D01*
X48724819Y-65615475D02*
X48677200Y-65710713D01*
X48677200Y-65710713D02*
X48629580Y-65758332D01*
%TO.C,CON2*%
D14*
X61590000Y-56610000D02*
X64130000Y-56610000D01*
X61590000Y-54070000D02*
X64130000Y-54070000D01*
X61590000Y-51530000D02*
X64130000Y-51530000D01*
X61590000Y-48990000D02*
X64130000Y-48990000D01*
X61590000Y-46450000D02*
X64130000Y-46450000D01*
X61590000Y-43910000D02*
X64130000Y-43910000D01*
X61590000Y-41370000D02*
X64130000Y-41370000D01*
X38730000Y-54070000D02*
X41270000Y-54070000D01*
X38730000Y-51530000D02*
X41270000Y-51530000D01*
X38730000Y-48990000D02*
X41270000Y-48990000D01*
X38730000Y-46450000D02*
X41270000Y-46450000D01*
X38730000Y-43910000D02*
X41270000Y-43910000D01*
X38730000Y-41370000D02*
X41270000Y-41370000D01*
X38700000Y-56600000D02*
X41240000Y-56600000D01*
%TO.C,U2*%
X52912000Y-52387000D02*
X52650000Y-52387000D01*
X52912000Y-54813000D02*
X52650000Y-54813000D01*
X54150000Y-52387000D02*
X53888000Y-52387000D01*
X54150000Y-54813000D02*
X53888000Y-54813000D01*
D15*
X52122000Y-52817000D02*
G75*
G02*
X52022000Y-52817000I-50000J0D01*
G01*
X52022000Y-52817000D02*
G75*
G02*
X52122000Y-52817000I50000J0D01*
G01*
%TO.C,R4*%
D16*
X47537742Y-44527500D02*
X48012258Y-44527500D01*
X47537742Y-45572500D02*
X48012258Y-45572500D01*
%TO.C,R1*%
X54877500Y-66162258D02*
X54877500Y-65687742D01*
X55922500Y-66162258D02*
X55922500Y-65687742D01*
%TO.C,D3*%
X57877500Y-62315000D02*
X57927500Y-62315000D01*
X57877500Y-63835000D02*
X57877500Y-62315000D01*
X58877500Y-63835000D02*
X57877500Y-63835000D01*
X59047500Y-62315000D02*
X59827500Y-62315000D01*
X60947500Y-62315000D02*
X60997500Y-62315000D01*
X60997500Y-62315000D02*
X60997500Y-63835000D01*
X60997500Y-63835000D02*
X59997500Y-63835000D01*
X59817500Y-61775000D02*
X59487500Y-62015000D01*
X59487500Y-61535000D01*
X59817500Y-61775000D01*
G36*
X59817500Y-61775000D02*
G01*
X59487500Y-62015000D01*
X59487500Y-61535000D01*
X59817500Y-61775000D01*
G37*
%TO.C,R2*%
X52027500Y-66162258D02*
X52027500Y-65687742D01*
X53072500Y-66162258D02*
X53072500Y-65687742D01*
%TO.C,C4*%
X56190000Y-54959420D02*
X56190000Y-55240580D01*
X57210000Y-54959420D02*
X57210000Y-55240580D01*
%TO.C,C2*%
X51990000Y-62765580D02*
X51990000Y-62484420D01*
X53010000Y-62765580D02*
X53010000Y-62484420D01*
%TO.C,D2*%
X50940000Y-57902500D02*
X50990000Y-57902500D01*
X50940000Y-59422500D02*
X50940000Y-57902500D01*
X51940000Y-59422500D02*
X50940000Y-59422500D01*
X52110000Y-57902500D02*
X52890000Y-57902500D01*
X54010000Y-57902500D02*
X54060000Y-57902500D01*
X54060000Y-57902500D02*
X54060000Y-59422500D01*
X54060000Y-59422500D02*
X53060000Y-59422500D01*
X52880000Y-57362500D02*
X52550000Y-57602500D01*
X52550000Y-57122500D01*
X52880000Y-57362500D01*
G36*
X52880000Y-57362500D02*
G01*
X52550000Y-57602500D01*
X52550000Y-57122500D01*
X52880000Y-57362500D01*
G37*
%TO.C,IC1*%
D15*
X52000000Y-47000000D02*
X53600000Y-47000000D01*
X52000000Y-49000000D02*
X52000000Y-47000000D01*
X53600000Y-47000000D02*
X53600000Y-49000000D01*
X53600000Y-49000000D02*
X52000000Y-49000000D01*
X54800000Y-49250000D02*
X53950000Y-49250000D01*
%TO.C,R8*%
D16*
X57762258Y-44277500D02*
X57287742Y-44277500D01*
X57762258Y-45322500D02*
X57287742Y-45322500D01*
%TO.C,R7*%
X57762258Y-47077500D02*
X57287742Y-47077500D01*
X57762258Y-48122500D02*
X57287742Y-48122500D01*
%TO.C,D1*%
X43540000Y-62315000D02*
X43590000Y-62315000D01*
X43540000Y-63835000D02*
X43540000Y-62315000D01*
X44540000Y-63835000D02*
X43540000Y-63835000D01*
X44710000Y-62315000D02*
X45490000Y-62315000D01*
X46610000Y-62315000D02*
X46660000Y-62315000D01*
X46660000Y-62315000D02*
X46660000Y-63835000D01*
X46660000Y-63835000D02*
X45660000Y-63835000D01*
X45480000Y-61775000D02*
X45150000Y-62015000D01*
X45150000Y-61535000D01*
X45480000Y-61775000D01*
G36*
X45480000Y-61775000D02*
G01*
X45150000Y-62015000D01*
X45150000Y-61535000D01*
X45480000Y-61775000D01*
G37*
%TO.C,C3*%
X54927500Y-62765580D02*
X54927500Y-62484420D01*
X55947500Y-62765580D02*
X55947500Y-62484420D01*
%TO.C,C1*%
X49190000Y-62765580D02*
X49190000Y-62484420D01*
X50210000Y-62765580D02*
X50210000Y-62484420D01*
%TO.C,R6*%
X47537742Y-47377500D02*
X48012258Y-47377500D01*
X47537742Y-48422500D02*
X48012258Y-48422500D01*
%TO.C,R5*%
X47537742Y-41677500D02*
X48012258Y-41677500D01*
X47537742Y-42722500D02*
X48012258Y-42722500D01*
%TO.C,R3*%
X49177500Y-66162258D02*
X49177500Y-65687742D01*
X50222500Y-66162258D02*
X50222500Y-65687742D01*
%TD*%
%LPC*%
D17*
%TO.C,CON2*%
X62860000Y-40100000D03*
D18*
X62860000Y-42640000D03*
X62860000Y-45180000D03*
X62860000Y-47720000D03*
X62860000Y-50260000D03*
X62860000Y-52800000D03*
X62860000Y-55340000D03*
X62860000Y-57880000D03*
X40000000Y-57880000D03*
X40000000Y-55340000D03*
X40000000Y-52800000D03*
X40000000Y-50260000D03*
X40000000Y-47720000D03*
X40000000Y-45180000D03*
X40000000Y-42640000D03*
D19*
X40000000Y-40100000D03*
%TD*%
D20*
%TO.C,U2*%
X52765000Y-52850000D03*
D21*
X52765000Y-53350000D03*
X52765000Y-53850000D03*
D20*
X52765000Y-54350000D03*
D22*
X53400000Y-54460000D03*
D20*
X54035000Y-54350000D03*
D21*
X54035000Y-53850000D03*
X54035000Y-53350000D03*
D20*
X54035000Y-52850000D03*
D22*
X53400000Y-52740000D03*
%TD*%
D23*
%TO.C,R4*%
X46950000Y-45050000D03*
X48600000Y-45050000D03*
%TD*%
D24*
%TO.C,R1*%
X55400000Y-66750000D03*
X55400000Y-65100000D03*
%TD*%
D25*
%TO.C,D3*%
X60387500Y-62137500D03*
X58487500Y-62137500D03*
X59437500Y-64012500D03*
%TD*%
D24*
%TO.C,R2*%
X52550000Y-66750000D03*
X52550000Y-65100000D03*
%TD*%
D26*
%TO.C,C4*%
X56700000Y-54325000D03*
X56700000Y-55875000D03*
%TD*%
D27*
%TO.C,C2*%
X52500000Y-63400000D03*
X52500000Y-61850000D03*
%TD*%
D25*
%TO.C,D2*%
X53450000Y-57725000D03*
X51550000Y-57725000D03*
X52500000Y-59600000D03*
%TD*%
D28*
%TO.C,IC1*%
X54375000Y-48750000D03*
X54375000Y-48250000D03*
X54375000Y-47750000D03*
X54375000Y-47250000D03*
X51225000Y-47250000D03*
X51225000Y-47750000D03*
X51225000Y-48250000D03*
X51225000Y-48750000D03*
%TD*%
D29*
%TO.C,R8*%
X58350000Y-44800000D03*
X56700000Y-44800000D03*
%TD*%
%TO.C,R7*%
X58350000Y-47600000D03*
X56700000Y-47600000D03*
%TD*%
D25*
%TO.C,D1*%
X46050000Y-62137500D03*
X44150000Y-62137500D03*
X45100000Y-64012500D03*
%TD*%
D27*
%TO.C,C3*%
X55437500Y-63400000D03*
X55437500Y-61850000D03*
%TD*%
%TO.C,C1*%
X49700000Y-63400000D03*
X49700000Y-61850000D03*
%TD*%
D23*
%TO.C,R6*%
X46950000Y-47900000D03*
X48600000Y-47900000D03*
%TD*%
%TO.C,R5*%
X46950000Y-42200000D03*
X48600000Y-42200000D03*
%TD*%
D24*
%TO.C,R3*%
X49700000Y-66750000D03*
X49700000Y-65100000D03*
%TD*%
D30*
%TO.C,J1*%
X47520000Y-69600000D03*
D31*
X50060000Y-69600000D03*
X52600000Y-69600000D03*
X55140000Y-69600000D03*
%TD*%
%LPD*%
M02*
