%TF.GenerationSoftware,KiCad,Pcbnew,10.0.0*%
%TF.CreationDate,2026-04-11T10:32:21-06:00*%
%TF.ProjectId,Moisture1,4d6f6973-7475-4726-9531-2e6b69636164,rev?*%
%TF.SameCoordinates,Original*%
%TF.FileFunction,Copper,L1,Top*%
%TF.FilePolarity,Positive*%
%FSLAX46Y46*%
G04 Gerber Fmt 4.6, Leading zero omitted, Abs format (unit mm)*
G04 Created by KiCad (PCBNEW 10.0.0) date 2026-04-11 10:32:21*
%MOMM*%
%LPD*%
G01*
G04 APERTURE LIST*
G04 Aperture macros list*
%AMRoundRect*
0 Rectangle with rounded corners*
0 $1 Rounding radius*
0 $2 $3 $4 $5 $6 $7 $8 $9 X,Y pos of 4 corners*
0 Add a 4 corners polygon primitive as box body*
4,1,4,$2,$3,$4,$5,$6,$7,$8,$9,$2,$3,0*
0 Add four circle primitives for the rounded corners*
1,1,$1+$1,$2,$3*
1,1,$1+$1,$4,$5*
1,1,$1+$1,$6,$7*
1,1,$1+$1,$8,$9*
0 Add four rect primitives between the rounded corners*
20,1,$1+$1,$2,$3,$4,$5,0*
20,1,$1+$1,$4,$5,$6,$7,0*
20,1,$1+$1,$6,$7,$8,$9,0*
20,1,$1+$1,$8,$9,$2,$3,0*%
G04 Aperture macros list end*
%TA.AperFunction,ComponentPad*%
%ADD10R,1.524000X1.524000*%
%TD*%
%TA.AperFunction,ComponentPad*%
%ADD11C,1.524000*%
%TD*%
%TA.AperFunction,ComponentPad*%
%ADD12R,1.676400X1.676400*%
%TD*%
%TA.AperFunction,SMDPad,CuDef*%
%ADD13R,0.580000X0.300000*%
%TD*%
%TA.AperFunction,SMDPad,CuDef*%
%ADD14R,0.580000X0.250000*%
%TD*%
%TA.AperFunction,SMDPad,CuDef*%
%ADD15R,0.350000X0.630000*%
%TD*%
%TA.AperFunction,SMDPad,CuDef*%
%ADD16RoundRect,0.200000X-0.200000X-0.275000X0.200000X-0.275000X0.200000X0.275000X-0.200000X0.275000X0*%
%TD*%
%TA.AperFunction,SMDPad,CuDef*%
%ADD17RoundRect,0.200000X0.275000X-0.200000X0.275000X0.200000X-0.275000X0.200000X-0.275000X-0.200000X0*%
%TD*%
%TA.AperFunction,SMDPad,CuDef*%
%ADD18RoundRect,0.150000X-0.150000X0.587500X-0.150000X-0.587500X0.150000X-0.587500X0.150000X0.587500X0*%
%TD*%
%TA.AperFunction,SMDPad,CuDef*%
%ADD19RoundRect,0.225000X-0.250000X0.225000X-0.250000X-0.225000X0.250000X-0.225000X0.250000X0.225000X0*%
%TD*%
%TA.AperFunction,SMDPad,CuDef*%
%ADD20RoundRect,0.225000X0.250000X-0.225000X0.250000X0.225000X-0.250000X0.225000X-0.250000X-0.225000X0*%
%TD*%
%TA.AperFunction,SMDPad,CuDef*%
%ADD21R,0.850000X0.300000*%
%TD*%
%TA.AperFunction,SMDPad,CuDef*%
%ADD22RoundRect,0.200000X0.200000X0.275000X-0.200000X0.275000X-0.200000X-0.275000X0.200000X-0.275000X0*%
%TD*%
%TA.AperFunction,ComponentPad*%
%ADD23R,1.700000X1.700000*%
%TD*%
%TA.AperFunction,ComponentPad*%
%ADD24C,1.700000*%
%TD*%
%TA.AperFunction,ViaPad*%
%ADD25C,0.600000*%
%TD*%
%TA.AperFunction,Conductor*%
%ADD26C,0.254000*%
%TD*%
G04 APERTURE END LIST*
D10*
%TO.P,CON2,P16,PWM_P16*%
%TO.N,unconnected-(CON2-PWM-PadP16)*%
X62860000Y-40100000D03*
D11*
%TO.P,CON2,P15,INT_P15*%
%TO.N,Alert*%
X62860000Y-42640000D03*
%TO.P,CON2,P14,TX_P14*%
%TO.N,unconnected-(CON2-TX-PadP14)*%
X62860000Y-45180000D03*
%TO.P,CON2,P13,RX_P13*%
%TO.N,unconnected-(CON2-RX-PadP13)*%
X62860000Y-47720000D03*
%TO.P,CON2,P12,SCL_P12*%
%TO.N,SCL*%
X62860000Y-50260000D03*
%TO.P,CON2,P11,SDA_P11*%
%TO.N,SDA*%
X62860000Y-52800000D03*
%TO.P,CON2,P10,5V_P10*%
%TO.N,+5V*%
X62860000Y-55340000D03*
%TO.P,CON2,P9,GND2_P9*%
%TO.N,GND*%
X62860000Y-57880000D03*
%TO.P,CON2,P8,GND1_P8*%
X40000000Y-57880000D03*
%TO.P,CON2,P7,3V3_P7*%
%TO.N,+3.3V*%
X40000000Y-55340000D03*
%TO.P,CON2,P6,MOSI_P6*%
%TO.N,unconnected-(CON2-MOSI-PadP6)*%
X40000000Y-52800000D03*
%TO.P,CON2,P5,MISO_P5*%
%TO.N,unconnected-(CON2-MISO-PadP5)*%
X40000000Y-50260000D03*
%TO.P,CON2,P4,SCK_P4*%
%TO.N,unconnected-(CON2-SCK-PadP4)*%
X40000000Y-47720000D03*
%TO.P,CON2,P3,CS_P3*%
%TO.N,unconnected-(CON2-CS-PadP3)*%
X40000000Y-45180000D03*
%TO.P,CON2,P2,RST_P2*%
%TO.N,unconnected-(CON2-RST-PadP2)*%
X40000000Y-42640000D03*
D12*
%TO.P,CON2,P1,AN_P1*%
%TO.N,unconnected-(CON2-AN-PadP1)*%
X40000000Y-40100000D03*
%TD*%
D13*
%TO.P,U2,1,ADDR_1*%
%TO.N,GND*%
X52765000Y-52850000D03*
D14*
%TO.P,U2,2,ALERT/RDY_2*%
%TO.N,Alert*%
X52765000Y-53350000D03*
%TO.P,U2,3,GND_3*%
%TO.N,GND*%
X52765000Y-53850000D03*
D13*
%TO.P,U2,4,AIN0_4*%
%TO.N,Net-(U2-AIN0)*%
X52765000Y-54350000D03*
D15*
%TO.P,U2,5,AIN1_5*%
%TO.N,Net-(U2-AIN1)*%
X53400000Y-54460000D03*
D13*
%TO.P,U2,6,AIN2_6*%
%TO.N,Net-(U2-AIN2)*%
X54035000Y-54350000D03*
D14*
%TO.P,U2,7,AIN3_7*%
%TO.N,unconnected-(U2-AIN3-Pad7)*%
X54035000Y-53850000D03*
%TO.P,U2,8,VDD_8*%
%TO.N,+5V*%
X54035000Y-53350000D03*
D13*
%TO.P,U2,9,SDA_9*%
%TO.N,Net-(IC1-SDA2)*%
X54035000Y-52850000D03*
D15*
%TO.P,U2,10,SCL_10*%
%TO.N,Net-(IC1-SCL2)*%
X53400000Y-52740000D03*
%TD*%
D16*
%TO.P,R4,1*%
%TO.N,+5V*%
X46950000Y-45050000D03*
%TO.P,R4,2*%
%TO.N,Net-(IC1-SCL2)*%
X48600000Y-45050000D03*
%TD*%
D17*
%TO.P,R1,1*%
%TO.N,AIN2*%
X55400000Y-66750000D03*
%TO.P,R1,2*%
%TO.N,Net-(U2-AIN2)*%
X55400000Y-65100000D03*
%TD*%
D18*
%TO.P,D3,1,K_1*%
%TO.N,GND*%
X60387500Y-62137500D03*
%TO.P,D3,2,A_2*%
%TO.N,+5V*%
X58487500Y-62137500D03*
%TO.P,D3,3,K_3*%
%TO.N,Net-(U2-AIN2)*%
X59437500Y-64012500D03*
%TD*%
D17*
%TO.P,R2,1*%
%TO.N,AIN1*%
X52550000Y-66750000D03*
%TO.P,R2,2*%
%TO.N,Net-(U2-AIN1)*%
X52550000Y-65100000D03*
%TD*%
D19*
%TO.P,C4,1*%
%TO.N,+5V*%
X56700000Y-54325000D03*
%TO.P,C4,2*%
%TO.N,GND*%
X56700000Y-55875000D03*
%TD*%
D20*
%TO.P,C2,1*%
%TO.N,Net-(U2-AIN1)*%
X52500000Y-63400000D03*
%TO.P,C2,2*%
%TO.N,GND*%
X52500000Y-61850000D03*
%TD*%
D18*
%TO.P,D2,1,K_1*%
%TO.N,GND*%
X53450000Y-57725000D03*
%TO.P,D2,2,A_2*%
%TO.N,+5V*%
X51550000Y-57725000D03*
%TO.P,D2,3,K_3*%
%TO.N,Net-(U2-AIN1)*%
X52500000Y-59600000D03*
%TD*%
D21*
%TO.P,IC1,1,GND_1*%
%TO.N,GND*%
X54375000Y-48750000D03*
%TO.P,IC1,2,VREF1_2*%
%TO.N,+3.3V*%
X54375000Y-48250000D03*
%TO.P,IC1,3,SCL1_3*%
%TO.N,SCL*%
X54375000Y-47750000D03*
%TO.P,IC1,4,SDA1_4*%
%TO.N,SDA*%
X54375000Y-47250000D03*
%TO.P,IC1,5,SDA2_5*%
%TO.N,Net-(IC1-SDA2)*%
X51225000Y-47250000D03*
%TO.P,IC1,6,SCL2_6*%
%TO.N,Net-(IC1-SCL2)*%
X51225000Y-47750000D03*
%TO.P,IC1,7,VREF2_7*%
%TO.N,Net-(IC1-EN)*%
X51225000Y-48250000D03*
%TO.P,IC1,8,EN_8*%
X51225000Y-48750000D03*
%TD*%
D22*
%TO.P,R8,1*%
%TO.N,+3.3V*%
X58350000Y-44800000D03*
%TO.P,R8,2*%
%TO.N,SDA*%
X56700000Y-44800000D03*
%TD*%
%TO.P,R7,1*%
%TO.N,+3.3V*%
X58350000Y-47600000D03*
%TO.P,R7,2*%
%TO.N,SCL*%
X56700000Y-47600000D03*
%TD*%
D18*
%TO.P,D1,1,K_1*%
%TO.N,GND*%
X46050000Y-62137500D03*
%TO.P,D1,2,A_2*%
%TO.N,+5V*%
X44150000Y-62137500D03*
%TO.P,D1,3,K_3*%
%TO.N,Net-(U2-AIN0)*%
X45100000Y-64012500D03*
%TD*%
D20*
%TO.P,C3,1*%
%TO.N,Net-(U2-AIN2)*%
X55437500Y-63400000D03*
%TO.P,C3,2*%
%TO.N,GND*%
X55437500Y-61850000D03*
%TD*%
%TO.P,C1,1*%
%TO.N,Net-(U2-AIN0)*%
X49700000Y-63400000D03*
%TO.P,C1,2*%
%TO.N,GND*%
X49700000Y-61850000D03*
%TD*%
D16*
%TO.P,R6,1*%
%TO.N,+5V*%
X46950000Y-47900000D03*
%TO.P,R6,2*%
%TO.N,Net-(IC1-EN)*%
X48600000Y-47900000D03*
%TD*%
%TO.P,R5,1*%
%TO.N,+5V*%
X46950000Y-42200000D03*
%TO.P,R5,2*%
%TO.N,Net-(IC1-SDA2)*%
X48600000Y-42200000D03*
%TD*%
D17*
%TO.P,R3,1*%
%TO.N,AIN0*%
X49700000Y-66750000D03*
%TO.P,R3,2*%
%TO.N,Net-(U2-AIN0)*%
X49700000Y-65100000D03*
%TD*%
D23*
%TO.P,J1,1,Pin_1_1*%
%TO.N,GND*%
X47520000Y-69600000D03*
D24*
%TO.P,J1,2,Pin_2_2*%
%TO.N,AIN0*%
X50060000Y-69600000D03*
%TO.P,J1,3,Pin_3_3*%
%TO.N,AIN1*%
X52600000Y-69600000D03*
%TO.P,J1,4,Pin_4_4*%
%TO.N,AIN2*%
X55140000Y-69600000D03*
%TD*%
D25*
%TO.N,GND*%
X49100000Y-55600000D03*
%TO.N,Alert*%
X56200000Y-41300000D03*
X53100000Y-41300000D03*
%TO.N,GND*%
X55400000Y-49600000D03*
%TO.N,+3.3V*%
X56123000Y-48897236D03*
%TO.N,GND*%
X52600000Y-51600000D03*
%TO.N,+5V*%
X45900000Y-57877000D03*
X44150000Y-57700000D03*
%TO.N,GND*%
X56700000Y-57000000D03*
X48000000Y-50800000D03*
X53200000Y-56200000D03*
X51000000Y-53500000D03*
X52600000Y-43100000D03*
X49200000Y-60500000D03*
X55400000Y-60500000D03*
X46100000Y-60500000D03*
X53700000Y-60500000D03*
X44900000Y-45000000D03*
%TO.N,+3.3V*%
X57800000Y-48900000D03*
%TD*%
%TO.N,GND*%
D26*
X51350000Y-53850000D02*
X51000000Y-53500000D01*
X52765000Y-53850000D02*
X51350000Y-53850000D01*
%TO.N,SDA*%
X53300000Y-48834053D02*
X53300000Y-47596000D01*
X53646000Y-47250000D02*
X54375000Y-47250000D01*
X57244447Y-52778500D02*
X53300000Y-48834053D01*
X53300000Y-47596000D02*
X53646000Y-47250000D01*
X62863500Y-52778500D02*
X57244447Y-52778500D01*
%TO.N,Net-(U2-AIN2)*%
X54800000Y-55100000D02*
X54800000Y-58600000D01*
X54800000Y-58600000D02*
X57300000Y-61100000D01*
X54050000Y-54350000D02*
X54800000Y-55100000D01*
X57300000Y-61100000D02*
X57300000Y-63400000D01*
X54035000Y-54350000D02*
X54050000Y-54350000D01*
%TO.N,GND*%
X56700000Y-55875000D02*
X56700000Y-57000000D01*
%TO.N,+5V*%
X55725000Y-53350000D02*
X56700000Y-54325000D01*
X56725000Y-54300000D02*
X61820000Y-54300000D01*
X61820000Y-54300000D02*
X62860000Y-55340000D01*
X54035000Y-53350000D02*
X55725000Y-53350000D01*
X56700000Y-54325000D02*
X56725000Y-54300000D01*
%TO.N,Alert*%
X57540000Y-42640000D02*
X56200000Y-41300000D01*
X62860000Y-42640000D02*
X57540000Y-42640000D01*
%TO.N,+3.3V*%
X43500000Y-42600000D02*
X43500000Y-51822000D01*
X53950000Y-40400000D02*
X45700000Y-40400000D01*
X43500000Y-51822000D02*
X40003500Y-55318500D01*
X58350000Y-44800000D02*
X53950000Y-40400000D01*
X45700000Y-40400000D02*
X43500000Y-42600000D01*
%TO.N,Alert*%
X48274168Y-41300000D02*
X53100000Y-41300000D01*
X47873000Y-41701168D02*
X48274168Y-41300000D01*
X47873000Y-49052000D02*
X47873000Y-41701168D01*
X52171000Y-53350000D02*
X47873000Y-49052000D01*
X52765000Y-53350000D02*
X52171000Y-53350000D01*
%TO.N,GND*%
X52600000Y-51600000D02*
X52600000Y-52685000D01*
X52600000Y-52685000D02*
X52765000Y-52850000D01*
%TO.N,Net-(U2-AIN0)*%
X45100000Y-57200000D02*
X45100000Y-64012500D01*
X47950000Y-54350000D02*
X45100000Y-57200000D01*
X52765000Y-54350000D02*
X47950000Y-54350000D01*
%TO.N,+5V*%
X46052000Y-57725000D02*
X45900000Y-57877000D01*
X51550000Y-57725000D02*
X46052000Y-57725000D01*
%TO.N,Net-(U2-AIN2)*%
X57300000Y-63400000D02*
X58825000Y-63400000D01*
%TO.N,Net-(U2-AIN1)*%
X53400000Y-54809000D02*
X52500000Y-55709000D01*
X52500000Y-55709000D02*
X52500000Y-59600000D01*
X53400000Y-54460000D02*
X53400000Y-54809000D01*
%TO.N,Net-(IC1-SCL2)*%
X51954000Y-47750000D02*
X51225000Y-47750000D01*
X52300000Y-48096000D02*
X51954000Y-47750000D01*
X53400000Y-50542052D02*
X52300000Y-49442052D01*
X52300000Y-49442052D02*
X52300000Y-48096000D01*
X53400000Y-52740000D02*
X53400000Y-50542052D01*
%TO.N,Net-(IC1-SDA2)*%
X52450000Y-47250000D02*
X51225000Y-47250000D01*
X52800000Y-47600000D02*
X52450000Y-47250000D01*
X54035000Y-50281053D02*
X52800000Y-49046053D01*
X54035000Y-52850000D02*
X54035000Y-50281053D01*
X52800000Y-49046053D02*
X52800000Y-47600000D01*
%TO.N,Net-(U2-AIN2)*%
X57000000Y-63400000D02*
X57300000Y-63400000D01*
%TO.N,+5V*%
X62842000Y-55340000D02*
X58487500Y-59694500D01*
X44150000Y-53800000D02*
X44150000Y-50700000D01*
X62860000Y-55340000D02*
X64100000Y-56580000D01*
X44150000Y-64478736D02*
X45498264Y-65827000D01*
X61673000Y-65827000D02*
X64100000Y-63400000D01*
X44150000Y-62137500D02*
X44150000Y-53800000D01*
X64100000Y-63400000D02*
X64100000Y-56580000D01*
X46950000Y-45050000D02*
X46950000Y-42200000D01*
X44150000Y-50700000D02*
X46950000Y-47900000D01*
X44150000Y-62137500D02*
X44150000Y-64478736D01*
X58487500Y-59694500D02*
X58487500Y-62137500D01*
X45498264Y-65827000D02*
X61673000Y-65827000D01*
X62885000Y-55340000D02*
X62842000Y-55340000D01*
X46950000Y-47900000D02*
X46950000Y-45050000D01*
%TO.N,Net-(IC1-SCL2)*%
X48600000Y-45050000D02*
X48600000Y-45854000D01*
X48600000Y-45854000D02*
X50496000Y-47750000D01*
X50496000Y-47750000D02*
X51225000Y-47750000D01*
%TO.N,AIN2*%
X55110000Y-69500000D02*
X55110000Y-67040000D01*
X55110000Y-67040000D02*
X55400000Y-66750000D01*
%TO.N,Net-(U2-AIN2)*%
X55400000Y-63437500D02*
X55437500Y-63400000D01*
X55437500Y-63400000D02*
X57000000Y-63400000D01*
X58825000Y-63400000D02*
X59437500Y-64012500D01*
X55400000Y-65100000D02*
X55400000Y-63437500D01*
%TO.N,GND*%
X46100000Y-62087500D02*
X46050000Y-62137500D01*
X49200000Y-61350000D02*
X49700000Y-61850000D01*
X49200000Y-60500000D02*
X49200000Y-61350000D01*
X53200000Y-56200000D02*
X53200000Y-57475000D01*
X53700000Y-60500000D02*
X53700000Y-60650000D01*
X55400000Y-61812500D02*
X55437500Y-61850000D01*
X53200000Y-57475000D02*
X53450000Y-57725000D01*
X46100000Y-60500000D02*
X46100000Y-62087500D01*
X53700000Y-60650000D02*
X52500000Y-61850000D01*
X60387500Y-62137500D02*
X60387500Y-60334500D01*
X60387500Y-60334500D02*
X62863500Y-57858500D01*
X55400000Y-60500000D02*
X55400000Y-61812500D01*
%TO.N,+3.3V*%
X58350000Y-47600000D02*
X58350000Y-44800000D01*
X58350000Y-47600000D02*
X58350000Y-48350000D01*
X58350000Y-48350000D02*
X57800000Y-48900000D01*
%TO.N,SDA*%
X56700000Y-44800000D02*
X54375000Y-47125000D01*
X54375000Y-47125000D02*
X54375000Y-47250000D01*
%TO.N,SCL*%
X56700000Y-47600000D02*
X56550000Y-47750000D01*
X56550000Y-47750000D02*
X54375000Y-47750000D01*
%TO.N,AIN1*%
X52570000Y-69500000D02*
X52570000Y-66770000D01*
X52570000Y-66770000D02*
X52550000Y-66750000D01*
%TO.N,Net-(U2-AIN1)*%
X52550000Y-63450000D02*
X52500000Y-63400000D01*
X52550000Y-65100000D02*
X52550000Y-63450000D01*
X51698000Y-62598000D02*
X51698000Y-60402000D01*
X51698000Y-60402000D02*
X52500000Y-59600000D01*
X52500000Y-63400000D02*
X51698000Y-62598000D01*
%TO.N,Net-(IC1-SDA2)*%
X51225000Y-44825000D02*
X51225000Y-47250000D01*
X48600000Y-42200000D02*
X51225000Y-44825000D01*
%TO.N,Net-(IC1-EN)*%
X51225000Y-48250000D02*
X51225000Y-48750000D01*
X48600000Y-47900000D02*
X48950000Y-48250000D01*
X48950000Y-48250000D02*
X51225000Y-48250000D01*
%TO.N,Net-(U2-AIN0)*%
X49700000Y-65100000D02*
X49700000Y-63400000D01*
X49700000Y-63400000D02*
X45712500Y-63400000D01*
X45712500Y-63400000D02*
X45100000Y-64012500D01*
%TO.N,AIN0*%
X50030000Y-69500000D02*
X50030000Y-67080000D01*
X50030000Y-67080000D02*
X49700000Y-66750000D01*
%TO.N,SCL*%
X56800000Y-49200000D02*
X56800000Y-47700000D01*
X57838500Y-50238500D02*
X56800000Y-49200000D01*
X62863500Y-50238500D02*
X57838500Y-50238500D01*
%TO.N,+3.3V*%
X55475764Y-48250000D02*
X56123000Y-48897236D01*
X54375000Y-48250000D02*
X55475764Y-48250000D01*
%TO.N,SCL*%
X56800000Y-47700000D02*
X56700000Y-47600000D01*
%TO.N,GND*%
X54550000Y-48750000D02*
X55400000Y-49600000D01*
%TO.N,+3.3V*%
X56300000Y-48900000D02*
X56125764Y-48900000D01*
%TO.N,GND*%
X54375000Y-48750000D02*
X54550000Y-48750000D01*
%TO.N,+3.3V*%
X56125764Y-48900000D02*
X56123000Y-48897236D01*
%TD*%
%TA.AperFunction,Conductor*%
%TO.N,GND*%
G36*
X50708161Y-58372185D02*
G01*
X50753916Y-58424989D01*
X50760198Y-58441905D01*
X50798253Y-58572893D01*
X50798255Y-58572896D01*
X50798256Y-58572898D01*
X50806239Y-58586397D01*
X50881917Y-58714362D01*
X50881923Y-58714370D01*
X50998129Y-58830576D01*
X50998133Y-58830579D01*
X50998135Y-58830581D01*
X51139602Y-58914244D01*
X51181224Y-58926336D01*
X51297426Y-58960097D01*
X51297429Y-58960097D01*
X51297431Y-58960098D01*
X51334306Y-58963000D01*
X51575500Y-58963000D01*
X51642539Y-58982685D01*
X51688294Y-59035489D01*
X51699500Y-59087000D01*
X51699500Y-59461719D01*
X51679815Y-59528758D01*
X51663181Y-59549400D01*
X51297992Y-59914589D01*
X51273840Y-59938741D01*
X51210586Y-60001994D01*
X51210585Y-60001996D01*
X51141580Y-60105269D01*
X51140814Y-60107429D01*
X51094614Y-60218965D01*
X51087806Y-60253194D01*
X51086060Y-60261971D01*
X51086057Y-60261980D01*
X51070500Y-60340192D01*
X51070500Y-62659807D01*
X51094612Y-62781027D01*
X51094614Y-62781035D01*
X51116601Y-62834116D01*
X51141915Y-62895229D01*
X51141917Y-62895233D01*
X51153514Y-62912589D01*
X51153515Y-62912590D01*
X51153514Y-62912590D01*
X51210585Y-62998003D01*
X51210591Y-62998011D01*
X51488181Y-63275600D01*
X51521666Y-63336923D01*
X51524500Y-63363281D01*
X51524500Y-63673336D01*
X51524501Y-63673355D01*
X51534650Y-63772707D01*
X51534651Y-63772710D01*
X51587996Y-63933694D01*
X51588001Y-63933705D01*
X51677029Y-64078040D01*
X51677032Y-64078044D01*
X51802063Y-64203075D01*
X51800283Y-64204854D01*
X51833813Y-64252204D01*
X51836954Y-64322003D01*
X51804209Y-64380133D01*
X51719529Y-64464813D01*
X51631522Y-64610393D01*
X51580913Y-64772807D01*
X51574500Y-64843385D01*
X51574500Y-65075500D01*
X51554815Y-65142539D01*
X51502011Y-65188294D01*
X51450500Y-65199500D01*
X50799500Y-65199500D01*
X50732461Y-65179815D01*
X50686706Y-65127011D01*
X50675500Y-65075500D01*
X50675500Y-64843385D01*
X50675500Y-64843384D01*
X50669086Y-64772804D01*
X50618478Y-64610394D01*
X50530472Y-64464815D01*
X50530470Y-64464813D01*
X50530469Y-64464811D01*
X50421016Y-64355358D01*
X50387531Y-64294035D01*
X50392515Y-64224343D01*
X50421016Y-64179996D01*
X50449512Y-64151500D01*
X50522968Y-64078044D01*
X50612003Y-63933697D01*
X50665349Y-63772708D01*
X50675500Y-63673345D01*
X50675499Y-63126656D01*
X50675489Y-63126561D01*
X50665349Y-63027292D01*
X50665347Y-63027285D01*
X50647993Y-62974915D01*
X50612003Y-62866303D01*
X50611999Y-62866297D01*
X50611998Y-62866294D01*
X50522970Y-62721959D01*
X50522967Y-62721955D01*
X50513339Y-62712327D01*
X50479854Y-62651004D01*
X50484838Y-62581312D01*
X50513345Y-62536959D01*
X50522573Y-62527731D01*
X50611542Y-62383492D01*
X50611547Y-62383481D01*
X50664855Y-62222606D01*
X50674999Y-62123322D01*
X50675000Y-62123309D01*
X50675000Y-62100000D01*
X48725001Y-62100000D01*
X48725001Y-62123322D01*
X48735144Y-62222607D01*
X48788452Y-62383481D01*
X48788457Y-62383492D01*
X48877424Y-62527728D01*
X48877427Y-62527732D01*
X48886660Y-62536965D01*
X48920145Y-62598288D01*
X48915161Y-62667980D01*
X48890236Y-62708600D01*
X48888488Y-62710499D01*
X48877032Y-62721956D01*
X48875166Y-62724980D01*
X48868291Y-62732454D01*
X48842159Y-62748169D01*
X48817277Y-62765788D01*
X48811169Y-62766806D01*
X48808415Y-62768463D01*
X48802324Y-62768281D01*
X48777034Y-62772500D01*
X46974000Y-62772500D01*
X46906961Y-62752815D01*
X46861206Y-62700011D01*
X46850000Y-62648500D01*
X46850000Y-62387500D01*
X46174000Y-62387500D01*
X46106961Y-62367815D01*
X46061206Y-62315011D01*
X46050000Y-62263500D01*
X46050000Y-62137500D01*
X45924000Y-62137500D01*
X45856961Y-62117815D01*
X45811206Y-62065011D01*
X45800000Y-62013500D01*
X45800000Y-61887500D01*
X46300000Y-61887500D01*
X46850000Y-61887500D01*
X46850000Y-61576677D01*
X48725000Y-61576677D01*
X48725000Y-61600000D01*
X49450000Y-61600000D01*
X49950000Y-61600000D01*
X50674999Y-61600000D01*
X50674999Y-61576692D01*
X50674998Y-61576677D01*
X50664855Y-61477392D01*
X50611547Y-61316518D01*
X50611542Y-61316507D01*
X50522575Y-61172271D01*
X50522572Y-61172267D01*
X50402732Y-61052427D01*
X50402728Y-61052424D01*
X50258492Y-60963457D01*
X50258481Y-60963452D01*
X50097606Y-60910144D01*
X49998322Y-60900000D01*
X49950000Y-60900000D01*
X49950000Y-61600000D01*
X49450000Y-61600000D01*
X49450000Y-60900000D01*
X49449999Y-60899999D01*
X49401693Y-60900000D01*
X49401675Y-60900001D01*
X49302392Y-60910144D01*
X49141518Y-60963452D01*
X49141507Y-60963457D01*
X48997271Y-61052424D01*
X48997267Y-61052427D01*
X48877427Y-61172267D01*
X48877424Y-61172271D01*
X48788457Y-61316507D01*
X48788452Y-61316518D01*
X48735144Y-61477393D01*
X48725000Y-61576677D01*
X46850000Y-61576677D01*
X46850000Y-61484365D01*
X46849999Y-61484350D01*
X46847100Y-61447510D01*
X46847099Y-61447504D01*
X46801283Y-61289806D01*
X46801282Y-61289803D01*
X46717685Y-61148447D01*
X46717678Y-61148438D01*
X46601561Y-61032321D01*
X46601552Y-61032314D01*
X46460196Y-60948717D01*
X46460193Y-60948716D01*
X46302494Y-60902900D01*
X46302497Y-60902900D01*
X46300000Y-60902703D01*
X46300000Y-61887500D01*
X45800000Y-61887500D01*
X45800000Y-60902702D01*
X45767346Y-60872529D01*
X45731468Y-60812574D01*
X45727500Y-60781457D01*
X45727500Y-58801500D01*
X45747185Y-58734461D01*
X45799989Y-58688706D01*
X45851500Y-58677500D01*
X45978844Y-58677500D01*
X45978845Y-58677499D01*
X46133497Y-58646737D01*
X46279179Y-58586394D01*
X46410289Y-58498789D01*
X46410292Y-58498786D01*
X46520260Y-58388819D01*
X46581583Y-58355334D01*
X46607941Y-58352500D01*
X50641122Y-58352500D01*
X50708161Y-58372185D01*
G37*
%TD.AperFunction*%
%TA.AperFunction,Conductor*%
G36*
X53997834Y-55201099D02*
G01*
X54042181Y-55229600D01*
X54136181Y-55323600D01*
X54169666Y-55384923D01*
X54172500Y-55411281D01*
X54172500Y-56503517D01*
X54152815Y-56570556D01*
X54100011Y-56616311D01*
X54030853Y-56626255D01*
X53985380Y-56610249D01*
X53860200Y-56536219D01*
X53860193Y-56536216D01*
X53702494Y-56490400D01*
X53702497Y-56490400D01*
X53700000Y-56490203D01*
X53700000Y-58959795D01*
X53700001Y-58959795D01*
X53702486Y-58959600D01*
X53860198Y-58913781D01*
X54001552Y-58830185D01*
X54001556Y-58830182D01*
X54022066Y-58809672D01*
X54083389Y-58776186D01*
X54153080Y-58781169D01*
X54209015Y-58823040D01*
X54218748Y-58838231D01*
X54221835Y-58843923D01*
X54243917Y-58897233D01*
X54277041Y-58946806D01*
X54280217Y-58951559D01*
X54280218Y-58951561D01*
X54312590Y-59000010D01*
X54312593Y-59000013D01*
X56044865Y-60732284D01*
X56078350Y-60793607D01*
X56073366Y-60863299D01*
X56031494Y-60919232D01*
X55966030Y-60943649D01*
X55918181Y-60937671D01*
X55835108Y-60910144D01*
X55735822Y-60900000D01*
X55687500Y-60900000D01*
X55687500Y-61600000D01*
X56412499Y-61600000D01*
X56412499Y-61576692D01*
X56412498Y-61576677D01*
X56402356Y-61477394D01*
X56374827Y-61394319D01*
X56372425Y-61324490D01*
X56408156Y-61264448D01*
X56470677Y-61233255D01*
X56540136Y-61240815D01*
X56580214Y-61267633D01*
X56636181Y-61323600D01*
X56669666Y-61384923D01*
X56672500Y-61411281D01*
X56672500Y-62648500D01*
X56652815Y-62715539D01*
X56600011Y-62761294D01*
X56548500Y-62772500D01*
X56360466Y-62772500D01*
X56293427Y-62752815D01*
X56269211Y-62732456D01*
X56262333Y-62724980D01*
X56260468Y-62721956D01*
X56249001Y-62710489D01*
X56247265Y-62708602D01*
X56232905Y-62679484D01*
X56217354Y-62651004D01*
X56217544Y-62648336D01*
X56216362Y-62645938D01*
X56220022Y-62613696D01*
X56222338Y-62581312D01*
X56223990Y-62578741D01*
X56224243Y-62576514D01*
X56229802Y-62569698D01*
X56250845Y-62536959D01*
X56260073Y-62527731D01*
X56349042Y-62383492D01*
X56349047Y-62383481D01*
X56402355Y-62222606D01*
X56412499Y-62123322D01*
X56412500Y-62123309D01*
X56412500Y-62100000D01*
X54462501Y-62100000D01*
X54462501Y-62123322D01*
X54472644Y-62222607D01*
X54525952Y-62383481D01*
X54525957Y-62383492D01*
X54614924Y-62527728D01*
X54614927Y-62527732D01*
X54624160Y-62536965D01*
X54657645Y-62598288D01*
X54652661Y-62667980D01*
X54624163Y-62712324D01*
X54614533Y-62721953D01*
X54614529Y-62721959D01*
X54525501Y-62866294D01*
X54525496Y-62866305D01*
X54472151Y-63027290D01*
X54462000Y-63126647D01*
X54462000Y-63673337D01*
X54462001Y-63673355D01*
X54472150Y-63772707D01*
X54472151Y-63772710D01*
X54525496Y-63933694D01*
X54525501Y-63933705D01*
X54614529Y-64078040D01*
X54614532Y-64078044D01*
X54698051Y-64161563D01*
X54731536Y-64222886D01*
X54726552Y-64292578D01*
X54693568Y-64337674D01*
X54695118Y-64339224D01*
X54569531Y-64464810D01*
X54569530Y-64464811D01*
X54481522Y-64610393D01*
X54430913Y-64772807D01*
X54424500Y-64843385D01*
X54424500Y-65075500D01*
X54404815Y-65142539D01*
X54352011Y-65188294D01*
X54300500Y-65199500D01*
X53649500Y-65199500D01*
X53582461Y-65179815D01*
X53536706Y-65127011D01*
X53525500Y-65075500D01*
X53525500Y-64843385D01*
X53525500Y-64843384D01*
X53519086Y-64772804D01*
X53468478Y-64610394D01*
X53380472Y-64464815D01*
X53380470Y-64464813D01*
X53380469Y-64464811D01*
X53260186Y-64344528D01*
X53256146Y-64341363D01*
X53215514Y-64284523D01*
X53212062Y-64214738D01*
X53244936Y-64156075D01*
X53322968Y-64078044D01*
X53412003Y-63933697D01*
X53465349Y-63772708D01*
X53475500Y-63673345D01*
X53475499Y-63126656D01*
X53475489Y-63126561D01*
X53465349Y-63027292D01*
X53465347Y-63027285D01*
X53447993Y-62974915D01*
X53412003Y-62866303D01*
X53411999Y-62866297D01*
X53411998Y-62866294D01*
X53322970Y-62721959D01*
X53322967Y-62721955D01*
X53313339Y-62712327D01*
X53279854Y-62651004D01*
X53284838Y-62581312D01*
X53313345Y-62536959D01*
X53322573Y-62527731D01*
X53411542Y-62383492D01*
X53411547Y-62383481D01*
X53464855Y-62222606D01*
X53474999Y-62123322D01*
X53475000Y-62123309D01*
X53475000Y-62100000D01*
X52624000Y-62100000D01*
X52556961Y-62080315D01*
X52511206Y-62027511D01*
X52500000Y-61976000D01*
X52500000Y-61724000D01*
X52519685Y-61656961D01*
X52572489Y-61611206D01*
X52624000Y-61600000D01*
X53474999Y-61600000D01*
X53474999Y-61576693D01*
X53474998Y-61576677D01*
X54462500Y-61576677D01*
X54462500Y-61600000D01*
X55187500Y-61600000D01*
X55187500Y-60900000D01*
X55187499Y-60899999D01*
X55139193Y-60900000D01*
X55139175Y-60900001D01*
X55039892Y-60910144D01*
X54879018Y-60963452D01*
X54879007Y-60963457D01*
X54734771Y-61052424D01*
X54734767Y-61052427D01*
X54614927Y-61172267D01*
X54614924Y-61172271D01*
X54525957Y-61316507D01*
X54525952Y-61316518D01*
X54472644Y-61477393D01*
X54462500Y-61576677D01*
X53474998Y-61576677D01*
X53474998Y-61576676D01*
X53464855Y-61477392D01*
X53411547Y-61316518D01*
X53411542Y-61316507D01*
X53322575Y-61172271D01*
X53322572Y-61172267D01*
X53202732Y-61052427D01*
X53202728Y-61052424D01*
X53058492Y-60963457D01*
X53058481Y-60963452D01*
X53033465Y-60955163D01*
X52976020Y-60915390D01*
X52949197Y-60850875D01*
X52961512Y-60782099D01*
X53009055Y-60730899D01*
X53009144Y-60730845D01*
X53051865Y-60705581D01*
X53168081Y-60589365D01*
X53251744Y-60447898D01*
X53297598Y-60290069D01*
X53300500Y-60253194D01*
X53300500Y-58946806D01*
X53297598Y-58909931D01*
X53274544Y-58830581D01*
X53251745Y-58752106D01*
X53251745Y-58752105D01*
X53251744Y-58752104D01*
X53251744Y-58752102D01*
X53217267Y-58693804D01*
X53200000Y-58630684D01*
X53200000Y-56490202D01*
X53167346Y-56460029D01*
X53131468Y-56400074D01*
X53127500Y-56368957D01*
X53127500Y-56020281D01*
X53147185Y-55953242D01*
X53163819Y-55932600D01*
X53866819Y-55229600D01*
X53928142Y-55196115D01*
X53997834Y-55201099D01*
G37*
%TD.AperFunction*%
%TA.AperFunction,Conductor*%
G36*
X61517763Y-57654167D02*
G01*
X61573696Y-57696039D01*
X61598113Y-57761503D01*
X61598048Y-57780067D01*
X61598000Y-57780677D01*
X61598000Y-57979321D01*
X61629075Y-58175520D01*
X61629075Y-58175523D01*
X61690457Y-58364437D01*
X61780641Y-58541432D01*
X61807730Y-58578715D01*
X62422352Y-57964093D01*
X62445792Y-58051571D01*
X62504311Y-58152930D01*
X62587070Y-58235689D01*
X62688429Y-58294208D01*
X62775904Y-58317647D01*
X62161283Y-58932268D01*
X62161283Y-58932269D01*
X62198567Y-58959358D01*
X62375562Y-59049542D01*
X62564477Y-59110924D01*
X62760679Y-59142000D01*
X62959321Y-59142000D01*
X63155519Y-59110925D01*
X63310181Y-59060671D01*
X63380022Y-59058676D01*
X63439855Y-59094755D01*
X63470684Y-59157456D01*
X63472500Y-59178602D01*
X63472500Y-63088719D01*
X63452815Y-63155758D01*
X63436181Y-63176400D01*
X61449400Y-65163181D01*
X61388077Y-65196666D01*
X61361719Y-65199500D01*
X60205395Y-65199500D01*
X60138356Y-65179815D01*
X60092601Y-65127011D01*
X60082657Y-65057853D01*
X60103171Y-65009503D01*
X60101610Y-65008580D01*
X60115526Y-64985048D01*
X60189244Y-64860398D01*
X60235098Y-64702569D01*
X60238000Y-64665694D01*
X60238000Y-63372295D01*
X60637500Y-63372295D01*
X60637501Y-63372295D01*
X60639986Y-63372100D01*
X60797698Y-63326281D01*
X60939052Y-63242685D01*
X60939061Y-63242678D01*
X61055178Y-63126561D01*
X61055185Y-63126552D01*
X61138782Y-62985196D01*
X61138783Y-62985193D01*
X61184599Y-62827495D01*
X61184600Y-62827489D01*
X61187499Y-62790649D01*
X61187500Y-62790634D01*
X61187500Y-62387500D01*
X60637500Y-62387500D01*
X60637500Y-63372295D01*
X60238000Y-63372295D01*
X60238000Y-63359306D01*
X60235098Y-63322431D01*
X60211929Y-63242685D01*
X60189245Y-63164606D01*
X60189245Y-63164605D01*
X60189244Y-63164604D01*
X60189244Y-63164602D01*
X60154767Y-63106304D01*
X60137500Y-63043184D01*
X60137500Y-62387500D01*
X59587500Y-62387500D01*
X59587500Y-62650500D01*
X59567815Y-62717539D01*
X59515011Y-62763294D01*
X59463500Y-62774500D01*
X59412000Y-62774500D01*
X59344961Y-62754815D01*
X59299206Y-62702011D01*
X59288000Y-62650500D01*
X59288000Y-61484350D01*
X59587500Y-61484350D01*
X59587500Y-61887500D01*
X60137500Y-61887500D01*
X60637500Y-61887500D01*
X61187500Y-61887500D01*
X61187500Y-61484365D01*
X61187499Y-61484350D01*
X61184600Y-61447510D01*
X61184599Y-61447504D01*
X61138783Y-61289806D01*
X61138782Y-61289803D01*
X61055185Y-61148447D01*
X61055178Y-61148438D01*
X60939061Y-61032321D01*
X60939052Y-61032314D01*
X60797696Y-60948717D01*
X60797693Y-60948716D01*
X60639994Y-60902900D01*
X60639997Y-60902900D01*
X60637500Y-60902703D01*
X60637500Y-61887500D01*
X60137500Y-61887500D01*
X60137500Y-60902703D01*
X60135003Y-60902900D01*
X59977306Y-60948716D01*
X59977303Y-60948717D01*
X59835947Y-61032314D01*
X59835938Y-61032321D01*
X59719821Y-61148438D01*
X59719814Y-61148447D01*
X59636217Y-61289803D01*
X59636216Y-61289806D01*
X59590400Y-61447504D01*
X59590399Y-61447510D01*
X59587500Y-61484350D01*
X59288000Y-61484350D01*
X59288000Y-61484313D01*
X59287999Y-61484298D01*
X59285098Y-61447432D01*
X59285097Y-61447426D01*
X59239245Y-61289606D01*
X59239244Y-61289603D01*
X59239244Y-61289602D01*
X59155581Y-61148135D01*
X59155579Y-61148133D01*
X59155576Y-61148129D01*
X59151319Y-61143872D01*
X59117834Y-61082549D01*
X59115000Y-61056191D01*
X59115000Y-60005780D01*
X59134685Y-59938741D01*
X59151314Y-59918104D01*
X61386753Y-57682665D01*
X61448071Y-57649183D01*
X61517763Y-57654167D01*
G37*
%TD.AperFunction*%
%TA.AperFunction,Conductor*%
G36*
X55480758Y-53997185D02*
G01*
X55501400Y-54013819D01*
X55688181Y-54200600D01*
X55721666Y-54261923D01*
X55724500Y-54288281D01*
X55724500Y-54598336D01*
X55724501Y-54598355D01*
X55734650Y-54697707D01*
X55734651Y-54697710D01*
X55787996Y-54858694D01*
X55788001Y-54858705D01*
X55877029Y-55003040D01*
X55877032Y-55003044D01*
X55886660Y-55012672D01*
X55920145Y-55073995D01*
X55915161Y-55143687D01*
X55886663Y-55188031D01*
X55877428Y-55197265D01*
X55877424Y-55197271D01*
X55788457Y-55341507D01*
X55788452Y-55341518D01*
X55735144Y-55502393D01*
X55725000Y-55601677D01*
X55725000Y-55625000D01*
X57674999Y-55625000D01*
X57674999Y-55601692D01*
X57674998Y-55601677D01*
X57664855Y-55502392D01*
X57611547Y-55341518D01*
X57611542Y-55341507D01*
X57522575Y-55197271D01*
X57522572Y-55197267D01*
X57513339Y-55188034D01*
X57479854Y-55126711D01*
X57484838Y-55057019D01*
X57502902Y-55024532D01*
X57507737Y-55018274D01*
X57522968Y-55003044D01*
X57536658Y-54980848D01*
X57540653Y-54975679D01*
X57563863Y-54958852D01*
X57585181Y-54939678D01*
X57592652Y-54937980D01*
X57597220Y-54934669D01*
X57610507Y-54933922D01*
X57638771Y-54927500D01*
X61501911Y-54927500D01*
X61568950Y-54947185D01*
X61614705Y-54999989D01*
X61624649Y-55069147D01*
X61624384Y-55070898D01*
X61597500Y-55240639D01*
X61597500Y-55439361D01*
X61597499Y-55439361D01*
X61622853Y-55599440D01*
X61613898Y-55668733D01*
X61588061Y-55706518D01*
X58954500Y-58340081D01*
X58087492Y-59207089D01*
X58000089Y-59294492D01*
X57931416Y-59397269D01*
X57917561Y-59430714D01*
X57917562Y-59430715D01*
X57884114Y-59511464D01*
X57884112Y-59511472D01*
X57860000Y-59632692D01*
X57860000Y-60473219D01*
X57840315Y-60540258D01*
X57787511Y-60586013D01*
X57718353Y-60595957D01*
X57654797Y-60566932D01*
X57648319Y-60560900D01*
X55463819Y-58376400D01*
X55430334Y-58315077D01*
X55427500Y-58288719D01*
X55427500Y-56148322D01*
X55725001Y-56148322D01*
X55735144Y-56247607D01*
X55788452Y-56408481D01*
X55788457Y-56408492D01*
X55877424Y-56552728D01*
X55877427Y-56552732D01*
X55997267Y-56672572D01*
X55997271Y-56672575D01*
X56141507Y-56761542D01*
X56141518Y-56761547D01*
X56302393Y-56814855D01*
X56401683Y-56824999D01*
X56950000Y-56824999D01*
X56998308Y-56824999D01*
X56998322Y-56824998D01*
X57097607Y-56814855D01*
X57258481Y-56761547D01*
X57258492Y-56761542D01*
X57402728Y-56672575D01*
X57402732Y-56672572D01*
X57522572Y-56552732D01*
X57522575Y-56552728D01*
X57611542Y-56408492D01*
X57611547Y-56408481D01*
X57664855Y-56247606D01*
X57674999Y-56148322D01*
X57675000Y-56148309D01*
X57675000Y-56125000D01*
X56950000Y-56125000D01*
X56950000Y-56824999D01*
X56401683Y-56824999D01*
X56449999Y-56824998D01*
X56450000Y-56824998D01*
X56450000Y-56125000D01*
X55725001Y-56125000D01*
X55725001Y-56148322D01*
X55427500Y-56148322D01*
X55427500Y-55038194D01*
X55403386Y-54916970D01*
X55403385Y-54916969D01*
X55403385Y-54916965D01*
X55377871Y-54855368D01*
X55356086Y-54802773D01*
X55356079Y-54802760D01*
X55287412Y-54699993D01*
X55265724Y-54678305D01*
X55200008Y-54612589D01*
X54776600Y-54189181D01*
X54743115Y-54127858D01*
X54748099Y-54058166D01*
X54789971Y-54002233D01*
X54855435Y-53977816D01*
X54864281Y-53977500D01*
X55413719Y-53977500D01*
X55480758Y-53997185D01*
G37*
%TD.AperFunction*%
%TA.AperFunction,Conductor*%
G36*
X52111758Y-54997185D02*
G01*
X52157513Y-55049989D01*
X52167457Y-55119147D01*
X52138432Y-55182703D01*
X52132400Y-55189181D01*
X52099992Y-55221589D01*
X52056232Y-55265349D01*
X52012589Y-55308992D01*
X51944242Y-55411281D01*
X51943917Y-55411767D01*
X51933672Y-55436500D01*
X51932487Y-55439361D01*
X51896615Y-55525962D01*
X51896612Y-55525972D01*
X51884391Y-55587410D01*
X51884392Y-55587411D01*
X51874800Y-55635637D01*
X51872500Y-55647198D01*
X51872500Y-56363000D01*
X51852815Y-56430039D01*
X51800011Y-56475794D01*
X51748500Y-56487000D01*
X51334298Y-56487000D01*
X51297432Y-56489901D01*
X51297426Y-56489902D01*
X51139606Y-56535754D01*
X51139603Y-56535755D01*
X50998137Y-56619417D01*
X50998129Y-56619423D01*
X50881923Y-56735629D01*
X50881917Y-56735637D01*
X50798255Y-56877103D01*
X50798253Y-56877106D01*
X50760198Y-57008095D01*
X50722592Y-57066981D01*
X50659119Y-57096187D01*
X50641122Y-57097500D01*
X46389281Y-57097500D01*
X46322242Y-57077815D01*
X46276487Y-57025011D01*
X46266543Y-56955853D01*
X46295568Y-56892297D01*
X46301600Y-56885819D01*
X48173600Y-55013819D01*
X48234923Y-54980334D01*
X48261281Y-54977500D01*
X52044719Y-54977500D01*
X52111758Y-54997185D01*
G37*
%TD.AperFunction*%
%TA.AperFunction,Conductor*%
G36*
X47188539Y-48895185D02*
G01*
X47234294Y-48947989D01*
X47245500Y-48999500D01*
X47245500Y-49113807D01*
X47269612Y-49235027D01*
X47269614Y-49235035D01*
X47296527Y-49300008D01*
X47316915Y-49349229D01*
X47316920Y-49349239D01*
X47365907Y-49422552D01*
X47365908Y-49422553D01*
X47385590Y-49452010D01*
X47385591Y-49452011D01*
X51444400Y-53510819D01*
X51477885Y-53572142D01*
X51472901Y-53641834D01*
X51431029Y-53697767D01*
X51365565Y-53722184D01*
X51356719Y-53722500D01*
X47888192Y-53722500D01*
X47766973Y-53746611D01*
X47766973Y-53746612D01*
X47766970Y-53746613D01*
X47766966Y-53746614D01*
X47700070Y-53774323D01*
X47700068Y-53774323D01*
X47652770Y-53793915D01*
X47587674Y-53837411D01*
X47549989Y-53862590D01*
X47549986Y-53862593D01*
X44989181Y-56423399D01*
X44927858Y-56456884D01*
X44858166Y-56451900D01*
X44802233Y-56410028D01*
X44777816Y-56344564D01*
X44777500Y-56335718D01*
X44777500Y-51011281D01*
X44797185Y-50944242D01*
X44813819Y-50923600D01*
X46825600Y-48911819D01*
X46886923Y-48878334D01*
X46913281Y-48875500D01*
X47121500Y-48875500D01*
X47188539Y-48895185D01*
G37*
%TD.AperFunction*%
%TA.AperFunction,Conductor*%
G36*
X50247590Y-48897185D02*
G01*
X50293345Y-48949989D01*
X50303841Y-48988246D01*
X50305909Y-49007483D01*
X50356202Y-49142328D01*
X50356206Y-49142335D01*
X50442452Y-49257544D01*
X50442455Y-49257547D01*
X50557664Y-49343793D01*
X50557671Y-49343797D01*
X50692517Y-49394091D01*
X50692516Y-49394091D01*
X50699444Y-49394835D01*
X50752127Y-49400500D01*
X51550176Y-49400499D01*
X51617215Y-49420183D01*
X51662970Y-49472987D01*
X51671793Y-49500307D01*
X51696612Y-49625081D01*
X51696614Y-49625087D01*
X51722430Y-49687412D01*
X51743916Y-49739283D01*
X51743918Y-49739287D01*
X51768027Y-49775369D01*
X51768028Y-49775369D01*
X51812590Y-49842062D01*
X51812591Y-49842063D01*
X52736181Y-50765652D01*
X52769666Y-50826975D01*
X52772500Y-50853333D01*
X52772500Y-52076000D01*
X52752815Y-52143039D01*
X52700011Y-52188794D01*
X52648500Y-52200000D01*
X52427155Y-52200000D01*
X52367627Y-52206401D01*
X52367620Y-52206403D01*
X52232913Y-52256645D01*
X52232910Y-52256647D01*
X52165749Y-52306924D01*
X52100284Y-52331341D01*
X52032011Y-52316489D01*
X52003757Y-52295338D01*
X48797600Y-49089181D01*
X48764115Y-49027858D01*
X48769099Y-48958166D01*
X48810971Y-48902233D01*
X48876435Y-48877816D01*
X48885281Y-48877500D01*
X48888197Y-48877500D01*
X50180551Y-48877500D01*
X50247590Y-48897185D01*
G37*
%TD.AperFunction*%
%TA.AperFunction,Conductor*%
G36*
X55318253Y-49174257D02*
G01*
X55325069Y-49174501D01*
X55348525Y-49190787D01*
X55373591Y-49204474D01*
X55378222Y-49211406D01*
X55382461Y-49214349D01*
X55399363Y-49242112D01*
X55399926Y-49243390D01*
X55413606Y-49276415D01*
X55416215Y-49280320D01*
X55416218Y-49280326D01*
X55501210Y-49407524D01*
X55501213Y-49407528D01*
X55612707Y-49519022D01*
X55612711Y-49519025D01*
X55743814Y-49606626D01*
X55743827Y-49606633D01*
X55865148Y-49656885D01*
X55889503Y-49666973D01*
X56044153Y-49697735D01*
X56044156Y-49697736D01*
X56044158Y-49697736D01*
X56201844Y-49697736D01*
X56279418Y-49682305D01*
X56310722Y-49676078D01*
X56380313Y-49682305D01*
X56422595Y-49710014D01*
X57351089Y-50638508D01*
X57438492Y-50725911D01*
X57438494Y-50725913D01*
X57438496Y-50725914D01*
X57541256Y-50794576D01*
X57541258Y-50794577D01*
X57541267Y-50794583D01*
X57559104Y-50801971D01*
X57588571Y-50814177D01*
X57630754Y-50831649D01*
X57655466Y-50841886D01*
X57713015Y-50853333D01*
X57776692Y-50865999D01*
X57776696Y-50866000D01*
X57776697Y-50866000D01*
X61676640Y-50866000D01*
X61743679Y-50885685D01*
X61776016Y-50918720D01*
X61777349Y-50917752D01*
X61780212Y-50921693D01*
X61780213Y-50921694D01*
X61897019Y-51082464D01*
X62037536Y-51222981D01*
X62198306Y-51339787D01*
X62316832Y-51400179D01*
X62354780Y-51419515D01*
X62405576Y-51467490D01*
X62422371Y-51535311D01*
X62399833Y-51601446D01*
X62354780Y-51640485D01*
X62198305Y-51720213D01*
X62037533Y-51837021D01*
X61897021Y-51977533D01*
X61897016Y-51977539D01*
X61808127Y-52099885D01*
X61752797Y-52142551D01*
X61707809Y-52151000D01*
X57555728Y-52151000D01*
X57488689Y-52131315D01*
X57468047Y-52114681D01*
X54926976Y-49573610D01*
X54893491Y-49512287D01*
X54898475Y-49442595D01*
X54940347Y-49386662D01*
X54971324Y-49369747D01*
X55042086Y-49343354D01*
X55042093Y-49343350D01*
X55157186Y-49257190D01*
X55186642Y-49217844D01*
X55192101Y-49213757D01*
X55195154Y-49207659D01*
X55219713Y-49193087D01*
X55242576Y-49175973D01*
X55249378Y-49175486D01*
X55255243Y-49172007D01*
X55283780Y-49173026D01*
X55312268Y-49170989D01*
X55318253Y-49174257D01*
G37*
%TD.AperFunction*%
%TA.AperFunction,Conductor*%
G36*
X46527887Y-41047185D02*
G01*
X46573642Y-41099989D01*
X46583586Y-41169147D01*
X46554561Y-41232703D01*
X46497739Y-41269884D01*
X46472745Y-41277673D01*
X46460393Y-41281522D01*
X46314811Y-41369530D01*
X46194530Y-41489811D01*
X46106522Y-41635393D01*
X46055913Y-41797807D01*
X46050782Y-41854275D01*
X46049500Y-41868384D01*
X46049500Y-42531616D01*
X46050098Y-42538197D01*
X46055913Y-42602192D01*
X46055913Y-42602194D01*
X46055914Y-42602196D01*
X46106522Y-42764606D01*
X46194530Y-42910188D01*
X46286181Y-43001839D01*
X46319666Y-43063162D01*
X46322500Y-43089520D01*
X46322500Y-44160480D01*
X46302815Y-44227519D01*
X46286181Y-44248161D01*
X46194531Y-44339810D01*
X46194530Y-44339811D01*
X46106522Y-44485393D01*
X46055913Y-44647807D01*
X46049500Y-44718386D01*
X46049500Y-45381613D01*
X46055913Y-45452192D01*
X46055913Y-45452194D01*
X46055914Y-45452196D01*
X46069207Y-45494854D01*
X46106522Y-45614606D01*
X46194530Y-45760188D01*
X46286181Y-45851839D01*
X46319666Y-45913162D01*
X46322500Y-45939520D01*
X46322500Y-47010480D01*
X46302815Y-47077519D01*
X46286181Y-47098161D01*
X46194531Y-47189810D01*
X46194530Y-47189811D01*
X46106522Y-47335393D01*
X46055913Y-47497807D01*
X46049500Y-47568386D01*
X46049500Y-47861719D01*
X46029815Y-47928758D01*
X46013181Y-47949400D01*
X44339181Y-49623400D01*
X44277858Y-49656885D01*
X44208166Y-49651901D01*
X44152233Y-49610029D01*
X44127816Y-49544565D01*
X44127500Y-49535719D01*
X44127500Y-42911281D01*
X44147185Y-42844242D01*
X44163819Y-42823600D01*
X45923600Y-41063819D01*
X45984923Y-41030334D01*
X46011281Y-41027500D01*
X46460848Y-41027500D01*
X46527887Y-41047185D01*
G37*
%TD.AperFunction*%
%TA.AperFunction,Conductor*%
G36*
X54041491Y-41396083D02*
G01*
X54087920Y-41425339D01*
X56319778Y-43657197D01*
X56353263Y-43718520D01*
X56348279Y-43788212D01*
X56306407Y-43844145D01*
X56268988Y-43863263D01*
X56210396Y-43881521D01*
X56064811Y-43969530D01*
X55944530Y-44089811D01*
X55856522Y-44235393D01*
X55805913Y-44397807D01*
X55799500Y-44468386D01*
X55799500Y-44761718D01*
X55779815Y-44828757D01*
X55763181Y-44849399D01*
X54049398Y-46563181D01*
X53988075Y-46596666D01*
X53976930Y-46598563D01*
X53969347Y-46599500D01*
X53902128Y-46599501D01*
X53842517Y-46605909D01*
X53805340Y-46619774D01*
X53790875Y-46621563D01*
X53785627Y-46620702D01*
X53775662Y-46622500D01*
X53584192Y-46622500D01*
X53462972Y-46646612D01*
X53462964Y-46646614D01*
X53388808Y-46677331D01*
X53382215Y-46680062D01*
X53348767Y-46693917D01*
X53302260Y-46724992D01*
X53245992Y-46762589D01*
X53132918Y-46875662D01*
X53129975Y-46878256D01*
X53101716Y-46891444D01*
X53074358Y-46906384D01*
X53070326Y-46906095D01*
X53066662Y-46907806D01*
X53035761Y-46903623D01*
X53004666Y-46901400D01*
X53000753Y-46898885D01*
X52997424Y-46898435D01*
X52989358Y-46891562D01*
X52960319Y-46872899D01*
X52850010Y-46762590D01*
X52797944Y-46727801D01*
X52797943Y-46727800D01*
X52793740Y-46724992D01*
X52747233Y-46693917D01*
X52713784Y-46680062D01*
X52707199Y-46677334D01*
X52707193Y-46677331D01*
X52633035Y-46646614D01*
X52633027Y-46646612D01*
X52511807Y-46622500D01*
X52511803Y-46622500D01*
X51976500Y-46622500D01*
X51909461Y-46602815D01*
X51863706Y-46550011D01*
X51852500Y-46498500D01*
X51852500Y-44763194D01*
X51839008Y-44695368D01*
X51829982Y-44649992D01*
X51828386Y-44641966D01*
X51782768Y-44531838D01*
X51782193Y-44530336D01*
X51782156Y-44529879D01*
X51781765Y-44528786D01*
X51712414Y-44424996D01*
X51712413Y-44424994D01*
X51685223Y-44397804D01*
X51625008Y-44337589D01*
X49536819Y-42249400D01*
X49503334Y-42188077D01*
X49500500Y-42161719D01*
X49500500Y-42051500D01*
X49520185Y-41984461D01*
X49572989Y-41938706D01*
X49624500Y-41927500D01*
X52560643Y-41927500D01*
X52627682Y-41947185D01*
X52629534Y-41948398D01*
X52720814Y-42009390D01*
X52720827Y-42009397D01*
X52866498Y-42069735D01*
X52866503Y-42069737D01*
X53021153Y-42100499D01*
X53021156Y-42100500D01*
X53021158Y-42100500D01*
X53178844Y-42100500D01*
X53178845Y-42100499D01*
X53333497Y-42069737D01*
X53446166Y-42023067D01*
X53479172Y-42009397D01*
X53479172Y-42009396D01*
X53479179Y-42009394D01*
X53610289Y-41921789D01*
X53721789Y-41810289D01*
X53809394Y-41679179D01*
X53816089Y-41663017D01*
X53869735Y-41533501D01*
X53869737Y-41533497D01*
X53878622Y-41488827D01*
X53911006Y-41426919D01*
X53971721Y-41392344D01*
X54041491Y-41396083D01*
G37*
%TD.AperFunction*%
%TA.AperFunction,Conductor*%
G36*
X62603736Y-34600726D02*
G01*
X62893800Y-34618271D01*
X62908655Y-34620075D01*
X63045608Y-34645173D01*
X63107358Y-34676023D01*
X64975000Y-36400000D01*
X64978869Y-36403571D01*
X65013146Y-36457795D01*
X65024636Y-36494664D01*
X65028219Y-36509202D01*
X65079923Y-36791340D01*
X65081728Y-36806205D01*
X65099274Y-37096263D01*
X65099500Y-37103750D01*
X65099500Y-68796249D01*
X65099274Y-68803736D01*
X65081728Y-69093794D01*
X65079923Y-69108659D01*
X65028219Y-69390797D01*
X65024635Y-69405335D01*
X64939305Y-69679171D01*
X64933995Y-69693173D01*
X64883715Y-69804888D01*
X64858321Y-69841677D01*
X63641677Y-71058321D01*
X63604888Y-71083715D01*
X63493173Y-71133995D01*
X63479171Y-71139305D01*
X63205335Y-71224635D01*
X63190797Y-71228219D01*
X62908659Y-71279923D01*
X62893794Y-71281728D01*
X62603736Y-71299274D01*
X62596249Y-71299500D01*
X40203751Y-71299500D01*
X40196264Y-71299274D01*
X39906205Y-71281728D01*
X39891340Y-71279923D01*
X39689927Y-71243012D01*
X39633571Y-71216861D01*
X38296330Y-70118414D01*
X37939688Y-69825458D01*
X37905322Y-69780534D01*
X37866000Y-69693163D01*
X37860693Y-69679167D01*
X37775364Y-69405335D01*
X37771780Y-69390797D01*
X37720076Y-69108659D01*
X37718271Y-69093794D01*
X37700726Y-68803736D01*
X37700500Y-68796249D01*
X37700500Y-39213935D01*
X38661300Y-39213935D01*
X38661300Y-40986070D01*
X38661301Y-40986076D01*
X38667708Y-41045683D01*
X38718002Y-41180528D01*
X38718006Y-41180535D01*
X38804252Y-41295744D01*
X38804255Y-41295747D01*
X38919464Y-41381993D01*
X38919471Y-41381997D01*
X38947213Y-41392344D01*
X39054317Y-41432291D01*
X39113927Y-41438700D01*
X39123915Y-41438699D01*
X39190953Y-41458379D01*
X39236711Y-41511179D01*
X39246660Y-41580337D01*
X39217640Y-41643895D01*
X39196811Y-41663014D01*
X39177536Y-41677018D01*
X39037021Y-41817533D01*
X38920213Y-41978305D01*
X38829994Y-42155367D01*
X38829993Y-42155370D01*
X38768587Y-42344362D01*
X38768587Y-42344364D01*
X38737500Y-42540639D01*
X38737500Y-42739361D01*
X38750842Y-42823600D01*
X38768587Y-42935637D01*
X38829993Y-43124629D01*
X38829994Y-43124632D01*
X38902790Y-43267500D01*
X38920213Y-43301694D01*
X39037019Y-43462464D01*
X39177536Y-43602981D01*
X39338306Y-43719787D01*
X39456832Y-43780179D01*
X39494780Y-43799515D01*
X39545576Y-43847490D01*
X39562371Y-43915311D01*
X39539833Y-43981446D01*
X39494780Y-44020485D01*
X39338305Y-44100213D01*
X39177533Y-44217021D01*
X39037021Y-44357533D01*
X38920213Y-44518305D01*
X38829994Y-44695367D01*
X38829993Y-44695370D01*
X38768587Y-44884362D01*
X38737500Y-45080639D01*
X38737500Y-45279360D01*
X38768587Y-45475637D01*
X38829993Y-45664629D01*
X38829994Y-45664632D01*
X38878683Y-45760188D01*
X38920213Y-45841694D01*
X39037019Y-46002464D01*
X39177536Y-46142981D01*
X39338306Y-46259787D01*
X39456832Y-46320179D01*
X39494780Y-46339515D01*
X39545576Y-46387490D01*
X39562371Y-46455311D01*
X39539833Y-46521446D01*
X39494780Y-46560485D01*
X39338305Y-46640213D01*
X39177533Y-46757021D01*
X39037021Y-46897533D01*
X38920213Y-47058305D01*
X38829994Y-47235367D01*
X38829993Y-47235370D01*
X38768587Y-47424362D01*
X38737500Y-47620639D01*
X38737500Y-47819360D01*
X38768587Y-48015637D01*
X38829993Y-48204629D01*
X38829994Y-48204632D01*
X38920213Y-48381694D01*
X39037019Y-48542464D01*
X39177536Y-48682981D01*
X39338306Y-48799787D01*
X39456832Y-48860179D01*
X39494780Y-48879515D01*
X39545576Y-48927490D01*
X39562371Y-48995311D01*
X39539833Y-49061446D01*
X39494780Y-49100485D01*
X39338305Y-49180213D01*
X39177533Y-49297021D01*
X39037021Y-49437533D01*
X38920213Y-49598305D01*
X38829994Y-49775367D01*
X38829994Y-49775369D01*
X38768587Y-49964362D01*
X38737500Y-50160639D01*
X38737500Y-50359360D01*
X38768587Y-50555637D01*
X38829993Y-50744629D01*
X38829994Y-50744632D01*
X38879549Y-50841887D01*
X38920213Y-50921694D01*
X39037019Y-51082464D01*
X39177536Y-51222981D01*
X39338306Y-51339787D01*
X39456832Y-51400179D01*
X39494780Y-51419515D01*
X39545576Y-51467490D01*
X39562371Y-51535311D01*
X39539833Y-51601446D01*
X39494780Y-51640485D01*
X39338305Y-51720213D01*
X39177533Y-51837021D01*
X39037021Y-51977533D01*
X38920213Y-52138305D01*
X38829994Y-52315367D01*
X38829993Y-52315370D01*
X38768587Y-52504362D01*
X38768587Y-52504364D01*
X38737500Y-52700639D01*
X38737500Y-52899361D01*
X38749866Y-52977434D01*
X38768587Y-53095637D01*
X38829993Y-53284629D01*
X38829994Y-53284632D01*
X38908139Y-53437997D01*
X38920213Y-53461694D01*
X39037019Y-53622464D01*
X39177536Y-53762981D01*
X39338306Y-53879787D01*
X39456832Y-53940179D01*
X39494780Y-53959515D01*
X39545576Y-54007490D01*
X39562371Y-54075311D01*
X39539833Y-54141446D01*
X39494780Y-54180485D01*
X39338305Y-54260213D01*
X39177533Y-54377021D01*
X39037021Y-54517533D01*
X38920213Y-54678305D01*
X38829994Y-54855367D01*
X38829993Y-54855370D01*
X38768587Y-55044362D01*
X38737500Y-55240639D01*
X38737500Y-55439360D01*
X38768587Y-55635637D01*
X38829993Y-55824629D01*
X38829994Y-55824632D01*
X38895525Y-55953242D01*
X38920213Y-56001694D01*
X39037019Y-56162464D01*
X39177536Y-56302981D01*
X39338306Y-56419787D01*
X39495332Y-56499796D01*
X39546127Y-56547769D01*
X39562922Y-56615590D01*
X39540385Y-56681725D01*
X39495332Y-56720764D01*
X39338566Y-56800641D01*
X39301283Y-56827729D01*
X39301282Y-56827730D01*
X39915906Y-57442352D01*
X39828429Y-57465792D01*
X39727070Y-57524311D01*
X39644311Y-57607070D01*
X39585792Y-57708429D01*
X39562352Y-57795905D01*
X38947730Y-57181282D01*
X38947729Y-57181283D01*
X38920643Y-57218564D01*
X38830457Y-57395562D01*
X38769075Y-57584476D01*
X38769075Y-57584479D01*
X38738000Y-57780678D01*
X38738000Y-57979321D01*
X38769075Y-58175520D01*
X38769075Y-58175523D01*
X38830457Y-58364437D01*
X38920641Y-58541432D01*
X38947730Y-58578715D01*
X38947731Y-58578716D01*
X39562352Y-57964094D01*
X39585792Y-58051571D01*
X39644311Y-58152930D01*
X39727070Y-58235689D01*
X39828429Y-58294208D01*
X39915905Y-58317647D01*
X39301283Y-58932268D01*
X39301283Y-58932269D01*
X39338567Y-58959358D01*
X39515562Y-59049542D01*
X39704477Y-59110924D01*
X39900679Y-59142000D01*
X40099321Y-59142000D01*
X40295520Y-59110924D01*
X40295523Y-59110924D01*
X40484437Y-59049542D01*
X40661425Y-58959362D01*
X40698716Y-58932268D01*
X40084095Y-58317647D01*
X40171571Y-58294208D01*
X40272930Y-58235689D01*
X40355689Y-58152930D01*
X40414208Y-58051571D01*
X40437647Y-57964094D01*
X41052268Y-58578715D01*
X41079362Y-58541425D01*
X41169542Y-58364437D01*
X41230924Y-58175523D01*
X41230924Y-58175520D01*
X41262000Y-57979321D01*
X41262000Y-57780678D01*
X41230924Y-57584479D01*
X41230924Y-57584476D01*
X41169542Y-57395562D01*
X41079358Y-57218567D01*
X41052268Y-57181283D01*
X40437647Y-57795904D01*
X40414208Y-57708429D01*
X40355689Y-57607070D01*
X40272930Y-57524311D01*
X40171571Y-57465792D01*
X40084094Y-57442352D01*
X40698716Y-56827731D01*
X40698715Y-56827730D01*
X40661432Y-56800641D01*
X40504668Y-56720765D01*
X40453872Y-56672790D01*
X40437077Y-56604969D01*
X40459615Y-56538834D01*
X40504667Y-56499796D01*
X40661694Y-56419787D01*
X40822464Y-56302981D01*
X40962981Y-56162464D01*
X41079787Y-56001694D01*
X41170005Y-55824632D01*
X41231413Y-55635636D01*
X41262500Y-55439361D01*
X41262500Y-55240639D01*
X41232223Y-55049479D01*
X41241177Y-54980188D01*
X41267012Y-54942405D01*
X43310821Y-52898597D01*
X43372142Y-52865114D01*
X43441834Y-52870098D01*
X43497767Y-52911970D01*
X43522184Y-52977434D01*
X43522500Y-52986280D01*
X43522500Y-57160642D01*
X43502815Y-57227681D01*
X43501602Y-57229533D01*
X43440609Y-57320814D01*
X43440602Y-57320827D01*
X43380264Y-57466498D01*
X43380261Y-57466510D01*
X43349500Y-57621153D01*
X43349500Y-57778846D01*
X43380261Y-57933489D01*
X43380264Y-57933501D01*
X43440603Y-58079174D01*
X43440604Y-58079175D01*
X43440606Y-58079179D01*
X43454592Y-58100110D01*
X43501602Y-58170465D01*
X43522480Y-58237142D01*
X43522500Y-58239356D01*
X43522500Y-61056191D01*
X43502815Y-61123230D01*
X43486181Y-61143872D01*
X43481923Y-61148129D01*
X43481917Y-61148137D01*
X43398255Y-61289603D01*
X43398254Y-61289606D01*
X43352402Y-61447426D01*
X43352401Y-61447432D01*
X43349500Y-61484298D01*
X43349500Y-62790701D01*
X43352401Y-62827567D01*
X43352402Y-62827573D01*
X43398254Y-62985393D01*
X43398255Y-62985396D01*
X43459359Y-63088719D01*
X43481919Y-63126865D01*
X43486178Y-63131124D01*
X43519665Y-63192444D01*
X43522500Y-63218808D01*
X43522500Y-64540543D01*
X43546612Y-64661763D01*
X43546614Y-64661771D01*
X43580062Y-64742521D01*
X43593917Y-64775970D01*
X43638962Y-64843385D01*
X43662585Y-64878739D01*
X43662591Y-64878747D01*
X45010853Y-66227008D01*
X45098256Y-66314411D01*
X45098257Y-66314412D01*
X45201024Y-66383079D01*
X45201037Y-66383086D01*
X45315224Y-66430383D01*
X45315229Y-66430385D01*
X45315233Y-66430385D01*
X45315234Y-66430386D01*
X45436458Y-66454500D01*
X45436461Y-66454500D01*
X48600500Y-66454500D01*
X48667539Y-66474185D01*
X48713294Y-66526989D01*
X48724500Y-66578500D01*
X48724500Y-67006613D01*
X48730913Y-67077192D01*
X48730913Y-67077194D01*
X48730914Y-67077196D01*
X48742500Y-67114377D01*
X48781522Y-67239606D01*
X48869530Y-67385188D01*
X48989811Y-67505469D01*
X48989813Y-67505470D01*
X48989815Y-67505472D01*
X49135394Y-67593478D01*
X49297804Y-67644086D01*
X49297813Y-67644086D01*
X49302690Y-67645057D01*
X49364602Y-67677442D01*
X49399176Y-67738158D01*
X49402500Y-67766675D01*
X49402500Y-68345210D01*
X49382815Y-68412249D01*
X49351385Y-68445528D01*
X49180215Y-68569889D01*
X49066285Y-68683819D01*
X49004962Y-68717303D01*
X48935270Y-68712319D01*
X48879337Y-68670447D01*
X48862422Y-68639470D01*
X48813354Y-68507913D01*
X48813350Y-68507906D01*
X48727190Y-68392812D01*
X48727187Y-68392809D01*
X48612093Y-68306649D01*
X48612086Y-68306645D01*
X48477379Y-68256403D01*
X48477372Y-68256401D01*
X48417844Y-68250000D01*
X47770000Y-68250000D01*
X47770000Y-69166988D01*
X47712993Y-69134075D01*
X47585826Y-69100000D01*
X47454174Y-69100000D01*
X47327007Y-69134075D01*
X47270000Y-69166988D01*
X47270000Y-68250000D01*
X46622155Y-68250000D01*
X46562627Y-68256401D01*
X46562620Y-68256403D01*
X46427913Y-68306645D01*
X46427906Y-68306649D01*
X46312812Y-68392809D01*
X46312809Y-68392812D01*
X46226649Y-68507906D01*
X46226645Y-68507913D01*
X46176403Y-68642620D01*
X46176401Y-68642627D01*
X46170000Y-68702155D01*
X46170000Y-69350000D01*
X47086988Y-69350000D01*
X47054075Y-69407007D01*
X47020000Y-69534174D01*
X47020000Y-69665826D01*
X47054075Y-69792993D01*
X47086988Y-69850000D01*
X46170000Y-69850000D01*
X46170000Y-70497844D01*
X46176401Y-70557372D01*
X46176403Y-70557379D01*
X46226645Y-70692086D01*
X46226649Y-70692093D01*
X46312809Y-70807187D01*
X46312812Y-70807190D01*
X46427906Y-70893350D01*
X46427913Y-70893354D01*
X46562620Y-70943596D01*
X46562627Y-70943598D01*
X46622155Y-70949999D01*
X46622172Y-70950000D01*
X47270000Y-70950000D01*
X47270000Y-70033012D01*
X47327007Y-70065925D01*
X47454174Y-70100000D01*
X47585826Y-70100000D01*
X47712993Y-70065925D01*
X47770000Y-70033012D01*
X47770000Y-70950000D01*
X48417828Y-70950000D01*
X48417844Y-70949999D01*
X48477372Y-70943598D01*
X48477379Y-70943596D01*
X48612086Y-70893354D01*
X48612093Y-70893350D01*
X48727187Y-70807190D01*
X48727190Y-70807187D01*
X48813350Y-70692093D01*
X48813354Y-70692086D01*
X48862422Y-70560529D01*
X48904293Y-70504595D01*
X48969757Y-70480178D01*
X49038030Y-70495030D01*
X49066285Y-70516181D01*
X49180213Y-70630109D01*
X49352179Y-70755048D01*
X49352181Y-70755049D01*
X49352184Y-70755051D01*
X49541588Y-70851557D01*
X49743757Y-70917246D01*
X49953713Y-70950500D01*
X49953714Y-70950500D01*
X50166286Y-70950500D01*
X50166287Y-70950500D01*
X50376243Y-70917246D01*
X50578412Y-70851557D01*
X50767816Y-70755051D01*
X50854471Y-70692093D01*
X50939786Y-70630109D01*
X50939788Y-70630106D01*
X50939792Y-70630104D01*
X51090104Y-70479792D01*
X51090106Y-70479788D01*
X51090109Y-70479786D01*
X51215048Y-70307820D01*
X51215047Y-70307820D01*
X51215051Y-70307816D01*
X51219514Y-70299054D01*
X51267488Y-70248259D01*
X51335308Y-70231463D01*
X51401444Y-70253999D01*
X51440486Y-70299056D01*
X51444951Y-70307820D01*
X51569890Y-70479786D01*
X51720213Y-70630109D01*
X51892179Y-70755048D01*
X51892181Y-70755049D01*
X51892184Y-70755051D01*
X52081588Y-70851557D01*
X52283757Y-70917246D01*
X52493713Y-70950500D01*
X52493714Y-70950500D01*
X52706286Y-70950500D01*
X52706287Y-70950500D01*
X52916243Y-70917246D01*
X53118412Y-70851557D01*
X53307816Y-70755051D01*
X53394471Y-70692093D01*
X53479786Y-70630109D01*
X53479788Y-70630106D01*
X53479792Y-70630104D01*
X53630104Y-70479792D01*
X53630106Y-70479788D01*
X53630109Y-70479786D01*
X53755048Y-70307820D01*
X53755047Y-70307820D01*
X53755051Y-70307816D01*
X53759514Y-70299054D01*
X53807488Y-70248259D01*
X53875308Y-70231463D01*
X53941444Y-70253999D01*
X53980486Y-70299056D01*
X53984951Y-70307820D01*
X54109890Y-70479786D01*
X54260213Y-70630109D01*
X54432179Y-70755048D01*
X54432181Y-70755049D01*
X54432184Y-70755051D01*
X54621588Y-70851557D01*
X54823757Y-70917246D01*
X55033713Y-70950500D01*
X55033714Y-70950500D01*
X55246286Y-70950500D01*
X55246287Y-70950500D01*
X55456243Y-70917246D01*
X55658412Y-70851557D01*
X55847816Y-70755051D01*
X55934471Y-70692093D01*
X56019786Y-70630109D01*
X56019788Y-70630106D01*
X56019792Y-70630104D01*
X56170104Y-70479792D01*
X56170106Y-70479788D01*
X56170109Y-70479786D01*
X56295048Y-70307820D01*
X56295047Y-70307820D01*
X56295051Y-70307816D01*
X56391557Y-70118412D01*
X56457246Y-69916243D01*
X56490500Y-69706287D01*
X56490500Y-69493713D01*
X56457246Y-69283757D01*
X56391557Y-69081588D01*
X56295051Y-68892184D01*
X56295049Y-68892181D01*
X56295048Y-68892179D01*
X56170109Y-68720213D01*
X56019786Y-68569890D01*
X55847817Y-68444949D01*
X55805204Y-68423236D01*
X55754408Y-68375261D01*
X55737500Y-68312752D01*
X55737500Y-67755486D01*
X55757185Y-67688447D01*
X55809989Y-67642692D01*
X55824592Y-67637107D01*
X55964606Y-67593478D01*
X56110185Y-67505472D01*
X56230472Y-67385185D01*
X56318478Y-67239606D01*
X56369086Y-67077196D01*
X56375500Y-67006616D01*
X56375500Y-66578500D01*
X56395185Y-66511461D01*
X56447989Y-66465706D01*
X56499500Y-66454500D01*
X61734804Y-66454500D01*
X61734805Y-66454499D01*
X61856035Y-66430386D01*
X61936784Y-66396937D01*
X61970233Y-66383083D01*
X62073008Y-66314411D01*
X62160411Y-66227008D01*
X64587411Y-63800008D01*
X64656083Y-63697233D01*
X64703385Y-63583035D01*
X64727500Y-63461803D01*
X64727500Y-63338197D01*
X64727500Y-56518197D01*
X64703386Y-56396966D01*
X64658407Y-56288379D01*
X64656763Y-56283784D01*
X64587414Y-56179996D01*
X64587413Y-56179994D01*
X64555728Y-56148309D01*
X64500008Y-56092589D01*
X64129477Y-55722058D01*
X64095992Y-55660735D01*
X64094685Y-55614979D01*
X64122500Y-55439360D01*
X64122500Y-55240639D01*
X64115631Y-55197271D01*
X64091413Y-55044364D01*
X64050017Y-54916960D01*
X64030006Y-54855370D01*
X64030005Y-54855367D01*
X63950837Y-54699993D01*
X63939787Y-54678306D01*
X63822981Y-54517536D01*
X63682464Y-54377019D01*
X63521694Y-54260213D01*
X63365218Y-54180484D01*
X63314423Y-54132510D01*
X63297628Y-54064689D01*
X63320165Y-53998554D01*
X63365218Y-53959515D01*
X63521694Y-53879787D01*
X63682464Y-53762981D01*
X63822981Y-53622464D01*
X63939787Y-53461694D01*
X64030005Y-53284632D01*
X64091413Y-53095636D01*
X64122500Y-52899361D01*
X64122500Y-52700639D01*
X64091413Y-52504364D01*
X64035195Y-52331341D01*
X64030006Y-52315370D01*
X64030005Y-52315367D01*
X63946255Y-52151000D01*
X63939787Y-52138306D01*
X63822981Y-51977536D01*
X63682464Y-51837019D01*
X63521694Y-51720213D01*
X63365218Y-51640484D01*
X63314423Y-51592510D01*
X63297628Y-51524689D01*
X63320165Y-51458554D01*
X63365218Y-51419515D01*
X63521694Y-51339787D01*
X63682464Y-51222981D01*
X63822981Y-51082464D01*
X63939787Y-50921694D01*
X64030005Y-50744632D01*
X64091413Y-50555636D01*
X64122500Y-50359361D01*
X64122500Y-50160639D01*
X64091413Y-49964364D01*
X64070439Y-49899812D01*
X64030006Y-49775369D01*
X64030005Y-49775367D01*
X63971333Y-49660219D01*
X63939787Y-49598306D01*
X63822981Y-49437536D01*
X63682464Y-49297019D01*
X63521694Y-49180213D01*
X63365218Y-49100484D01*
X63314423Y-49052510D01*
X63297628Y-48984689D01*
X63320165Y-48918554D01*
X63365218Y-48879515D01*
X63521694Y-48799787D01*
X63682464Y-48682981D01*
X63822981Y-48542464D01*
X63939787Y-48381694D01*
X64030005Y-48204632D01*
X64091413Y-48015636D01*
X64122500Y-47819361D01*
X64122500Y-47620639D01*
X64091413Y-47424364D01*
X64040733Y-47268386D01*
X64030006Y-47235370D01*
X64030005Y-47235367D01*
X63984035Y-47145149D01*
X63939787Y-47058306D01*
X63822981Y-46897536D01*
X63682464Y-46757019D01*
X63521694Y-46640213D01*
X63365218Y-46560484D01*
X63314423Y-46512510D01*
X63297628Y-46444689D01*
X63320165Y-46378554D01*
X63365218Y-46339515D01*
X63521694Y-46259787D01*
X63682464Y-46142981D01*
X63822981Y-46002464D01*
X63939787Y-45841694D01*
X64030005Y-45664632D01*
X64091413Y-45475636D01*
X64122500Y-45279361D01*
X64122500Y-45080639D01*
X64091413Y-44884364D01*
X64037484Y-44718386D01*
X64030006Y-44695370D01*
X64030005Y-44695367D01*
X63984035Y-44605149D01*
X63939787Y-44518306D01*
X63822981Y-44357536D01*
X63682464Y-44217019D01*
X63521694Y-44100213D01*
X63365218Y-44020484D01*
X63314423Y-43972510D01*
X63297628Y-43904689D01*
X63320165Y-43838554D01*
X63365218Y-43799515D01*
X63521694Y-43719787D01*
X63682464Y-43602981D01*
X63822981Y-43462464D01*
X63939787Y-43301694D01*
X64030005Y-43124632D01*
X64091413Y-42935636D01*
X64122500Y-42739361D01*
X64122500Y-42540639D01*
X64091413Y-42344364D01*
X64048757Y-42213081D01*
X64030006Y-42155370D01*
X64030005Y-42155367D01*
X63977081Y-42051500D01*
X63939787Y-41978306D01*
X63822981Y-41817536D01*
X63682464Y-41677019D01*
X63558310Y-41586816D01*
X63515646Y-41531487D01*
X63509667Y-41461874D01*
X63542273Y-41400079D01*
X63603112Y-41365721D01*
X63631196Y-41362499D01*
X63669872Y-41362499D01*
X63729483Y-41356091D01*
X63864331Y-41305796D01*
X63979546Y-41219546D01*
X64065796Y-41104331D01*
X64116091Y-40969483D01*
X64122500Y-40909873D01*
X64122499Y-39290128D01*
X64116091Y-39230517D01*
X64109906Y-39213935D01*
X64065797Y-39095671D01*
X64065793Y-39095664D01*
X63979547Y-38980455D01*
X63979544Y-38980452D01*
X63864335Y-38894206D01*
X63864328Y-38894202D01*
X63729482Y-38843908D01*
X63729483Y-38843908D01*
X63669883Y-38837501D01*
X63669881Y-38837500D01*
X63669873Y-38837500D01*
X63669864Y-38837500D01*
X62050129Y-38837500D01*
X62050123Y-38837501D01*
X61990516Y-38843908D01*
X61855671Y-38894202D01*
X61855664Y-38894206D01*
X61740455Y-38980452D01*
X61740452Y-38980455D01*
X61654206Y-39095664D01*
X61654202Y-39095671D01*
X61603908Y-39230517D01*
X61597501Y-39290116D01*
X61597501Y-39290123D01*
X61597500Y-39290135D01*
X61597500Y-40909870D01*
X61597501Y-40909876D01*
X61603908Y-40969483D01*
X61654202Y-41104328D01*
X61654206Y-41104335D01*
X61740452Y-41219544D01*
X61740455Y-41219547D01*
X61855664Y-41305793D01*
X61855671Y-41305797D01*
X61990517Y-41356091D01*
X61990516Y-41356091D01*
X61997444Y-41356835D01*
X62050127Y-41362500D01*
X62088801Y-41362499D01*
X62155838Y-41382182D01*
X62201594Y-41434985D01*
X62211539Y-41504143D01*
X62182516Y-41567699D01*
X62161687Y-41586816D01*
X62037542Y-41677014D01*
X62037533Y-41677021D01*
X61897021Y-41817533D01*
X61897021Y-41817534D01*
X61897019Y-41817536D01*
X61821277Y-41921786D01*
X61792506Y-41961386D01*
X61737176Y-42004051D01*
X61692188Y-42012500D01*
X57851281Y-42012500D01*
X57784242Y-41992815D01*
X57763600Y-41976181D01*
X57025091Y-41237672D01*
X56991606Y-41176349D01*
X56991183Y-41174323D01*
X56969737Y-41066503D01*
X56936426Y-40986083D01*
X56909397Y-40920827D01*
X56909390Y-40920814D01*
X56821789Y-40789711D01*
X56821786Y-40789707D01*
X56710292Y-40678213D01*
X56710288Y-40678210D01*
X56579185Y-40590609D01*
X56579172Y-40590602D01*
X56433501Y-40530264D01*
X56433489Y-40530261D01*
X56278845Y-40499500D01*
X56278842Y-40499500D01*
X56121158Y-40499500D01*
X56121155Y-40499500D01*
X55966510Y-40530261D01*
X55966498Y-40530264D01*
X55820827Y-40590602D01*
X55820814Y-40590609D01*
X55689711Y-40678210D01*
X55689707Y-40678213D01*
X55578213Y-40789707D01*
X55521530Y-40874539D01*
X55467917Y-40919343D01*
X55398592Y-40928050D01*
X55335565Y-40897895D01*
X55330747Y-40893328D01*
X54350011Y-39912591D01*
X54350007Y-39912588D01*
X54247239Y-39843920D01*
X54247226Y-39843913D01*
X54213785Y-39830062D01*
X54133035Y-39796614D01*
X54133027Y-39796612D01*
X54011807Y-39772500D01*
X54011803Y-39772500D01*
X45761803Y-39772500D01*
X45638197Y-39772500D01*
X45638192Y-39772500D01*
X45516973Y-39796611D01*
X45516973Y-39796612D01*
X45516970Y-39796613D01*
X45516966Y-39796614D01*
X45450070Y-39824323D01*
X45450068Y-39824323D01*
X45402770Y-39843915D01*
X45299989Y-39912590D01*
X45299988Y-39912591D01*
X43644882Y-41567699D01*
X43099992Y-42112589D01*
X43057214Y-42155367D01*
X43012586Y-42199994D01*
X43012585Y-42199996D01*
X42943233Y-42303789D01*
X42941586Y-42308393D01*
X42896614Y-42416964D01*
X42896612Y-42416972D01*
X42873808Y-42531610D01*
X42873809Y-42531611D01*
X42872500Y-42538190D01*
X42872500Y-51510718D01*
X42852815Y-51577757D01*
X42836181Y-51598399D01*
X41474181Y-52960399D01*
X41412858Y-52993884D01*
X41343166Y-52988900D01*
X41287233Y-52947028D01*
X41262816Y-52881564D01*
X41262500Y-52872718D01*
X41262500Y-52700639D01*
X41247967Y-52608883D01*
X41231413Y-52504364D01*
X41175195Y-52331341D01*
X41170006Y-52315370D01*
X41170005Y-52315367D01*
X41086255Y-52151000D01*
X41079787Y-52138306D01*
X40962981Y-51977536D01*
X40822464Y-51837019D01*
X40661694Y-51720213D01*
X40505218Y-51640484D01*
X40454423Y-51592510D01*
X40437628Y-51524689D01*
X40460165Y-51458554D01*
X40505218Y-51419515D01*
X40661694Y-51339787D01*
X40822464Y-51222981D01*
X40962981Y-51082464D01*
X41079787Y-50921694D01*
X41170005Y-50744632D01*
X41231413Y-50555636D01*
X41262500Y-50359361D01*
X41262500Y-50160639D01*
X41231413Y-49964364D01*
X41210439Y-49899812D01*
X41170006Y-49775369D01*
X41170005Y-49775367D01*
X41111333Y-49660219D01*
X41079787Y-49598306D01*
X40962981Y-49437536D01*
X40822464Y-49297019D01*
X40661694Y-49180213D01*
X40505218Y-49100484D01*
X40454423Y-49052510D01*
X40437628Y-48984689D01*
X40460165Y-48918554D01*
X40505218Y-48879515D01*
X40661694Y-48799787D01*
X40822464Y-48682981D01*
X40962981Y-48542464D01*
X41079787Y-48381694D01*
X41170005Y-48204632D01*
X41231413Y-48015636D01*
X41262500Y-47819361D01*
X41262500Y-47620639D01*
X41231413Y-47424364D01*
X41180733Y-47268386D01*
X41170006Y-47235370D01*
X41170005Y-47235367D01*
X41124035Y-47145149D01*
X41079787Y-47058306D01*
X40962981Y-46897536D01*
X40822464Y-46757019D01*
X40661694Y-46640213D01*
X40505218Y-46560484D01*
X40454423Y-46512510D01*
X40437628Y-46444689D01*
X40460165Y-46378554D01*
X40505218Y-46339515D01*
X40661694Y-46259787D01*
X40822464Y-46142981D01*
X40962981Y-46002464D01*
X41079787Y-45841694D01*
X41170005Y-45664632D01*
X41231413Y-45475636D01*
X41262500Y-45279361D01*
X41262500Y-45080639D01*
X41231413Y-44884364D01*
X41177484Y-44718386D01*
X41170006Y-44695370D01*
X41170005Y-44695367D01*
X41124035Y-44605149D01*
X41079787Y-44518306D01*
X40962981Y-44357536D01*
X40822464Y-44217019D01*
X40661694Y-44100213D01*
X40505218Y-44020484D01*
X40454423Y-43972510D01*
X40437628Y-43904689D01*
X40460165Y-43838554D01*
X40505218Y-43799515D01*
X40661694Y-43719787D01*
X40822464Y-43602981D01*
X40962981Y-43462464D01*
X41079787Y-43301694D01*
X41170005Y-43124632D01*
X41231413Y-42935636D01*
X41262500Y-42739361D01*
X41262500Y-42540639D01*
X41231413Y-42344364D01*
X41188757Y-42213081D01*
X41170006Y-42155370D01*
X41170005Y-42155367D01*
X41117081Y-42051500D01*
X41079787Y-41978306D01*
X40962981Y-41817536D01*
X40822464Y-41677019D01*
X40803192Y-41663017D01*
X40760526Y-41607687D01*
X40754547Y-41538074D01*
X40787153Y-41476279D01*
X40847992Y-41441921D01*
X40876077Y-41438699D01*
X40886071Y-41438699D01*
X40886072Y-41438699D01*
X40945683Y-41432291D01*
X41080531Y-41381996D01*
X41195746Y-41295746D01*
X41281996Y-41180531D01*
X41332291Y-41045683D01*
X41338700Y-40986073D01*
X41338699Y-39213928D01*
X41332291Y-39154317D01*
X41310417Y-39095671D01*
X41281997Y-39019471D01*
X41281993Y-39019464D01*
X41195747Y-38904255D01*
X41195744Y-38904252D01*
X41080535Y-38818006D01*
X41080528Y-38818002D01*
X40945682Y-38767708D01*
X40945683Y-38767708D01*
X40886083Y-38761301D01*
X40886081Y-38761300D01*
X40886073Y-38761300D01*
X40886064Y-38761300D01*
X39113929Y-38761300D01*
X39113923Y-38761301D01*
X39054316Y-38767708D01*
X38919471Y-38818002D01*
X38919464Y-38818006D01*
X38804255Y-38904252D01*
X38804252Y-38904255D01*
X38718006Y-39019464D01*
X38718002Y-39019471D01*
X38667708Y-39154317D01*
X38661301Y-39213916D01*
X38661301Y-39213923D01*
X38661300Y-39213935D01*
X37700500Y-39213935D01*
X37700500Y-37103750D01*
X37700726Y-37096263D01*
X37718271Y-36806205D01*
X37720076Y-36791340D01*
X37771780Y-36509202D01*
X37775364Y-36494664D01*
X37860696Y-36220821D01*
X37865998Y-36206841D01*
X37973940Y-35967003D01*
X38010400Y-35920399D01*
X39572513Y-34693024D01*
X39626765Y-34668561D01*
X39891344Y-34620075D01*
X39906201Y-34618271D01*
X40196264Y-34600726D01*
X40203751Y-34600500D01*
X40265892Y-34600500D01*
X62534108Y-34600500D01*
X62596249Y-34600500D01*
X62603736Y-34600726D01*
G37*
%TD.AperFunction*%
%TD*%
M02*
