%TF.GenerationSoftware,KiCad,Pcbnew,10.0.0*%
%TF.CreationDate,2026-04-11T10:32:21-06:00*%
%TF.ProjectId,Moisture1,4d6f6973-7475-4726-9531-2e6b69636164,rev?*%
%TF.SameCoordinates,Original*%
%TF.FileFunction,Legend,Bot*%
%TF.FilePolarity,Positive*%
%FSLAX46Y46*%
G04 Gerber Fmt 4.6, Leading zero omitted, Abs format (unit mm)*
G04 Created by KiCad (PCBNEW 10.0.0) date 2026-04-11 10:32:21*
%MOMM*%
%LPD*%
G01*
G04 APERTURE LIST*
%ADD10C,0.100000*%
%ADD11C,0.050000*%
%ADD12C,0.150000*%
%ADD13C,0.127000*%
%ADD14C,0.120000*%
%ADD15R,1.524000X1.524000*%
%ADD16C,1.524000*%
%ADD17R,1.676400X1.676400*%
%ADD18R,1.700000X1.700000*%
%ADD19C,1.700000*%
G04 APERTURE END LIST*
D10*
X47879961Y-67072306D02*
X47927580Y-67167544D01*
X47927580Y-67167544D02*
X47927580Y-67310401D01*
X47927580Y-67310401D02*
X47879961Y-67453258D01*
X47879961Y-67453258D02*
X47784723Y-67548496D01*
X47784723Y-67548496D02*
X47689485Y-67596115D01*
X47689485Y-67596115D02*
X47499009Y-67643734D01*
X47499009Y-67643734D02*
X47356152Y-67643734D01*
X47356152Y-67643734D02*
X47165676Y-67596115D01*
X47165676Y-67596115D02*
X47070438Y-67548496D01*
X47070438Y-67548496D02*
X46975200Y-67453258D01*
X46975200Y-67453258D02*
X46927580Y-67310401D01*
X46927580Y-67310401D02*
X46927580Y-67215163D01*
X46927580Y-67215163D02*
X46975200Y-67072306D01*
X46975200Y-67072306D02*
X47022819Y-67024687D01*
X47022819Y-67024687D02*
X47356152Y-67024687D01*
X47356152Y-67024687D02*
X47356152Y-67215163D01*
X46927580Y-66596115D02*
X47927580Y-66596115D01*
X47927580Y-66596115D02*
X46927580Y-66024687D01*
X46927580Y-66024687D02*
X47927580Y-66024687D01*
X46927580Y-65548496D02*
X47927580Y-65548496D01*
X47927580Y-65548496D02*
X47927580Y-65310401D01*
X47927580Y-65310401D02*
X47879961Y-65167544D01*
X47879961Y-65167544D02*
X47784723Y-65072306D01*
X47784723Y-65072306D02*
X47689485Y-65024687D01*
X47689485Y-65024687D02*
X47499009Y-64977068D01*
X47499009Y-64977068D02*
X47356152Y-64977068D01*
X47356152Y-64977068D02*
X47165676Y-65024687D01*
X47165676Y-65024687D02*
X47070438Y-65072306D01*
X47070438Y-65072306D02*
X46975200Y-65167544D01*
X46975200Y-65167544D02*
X46927580Y-65310401D01*
X46927580Y-65310401D02*
X46927580Y-65548496D01*
X50527580Y-67738972D02*
X50527580Y-67167544D01*
X49527580Y-67453258D02*
X50527580Y-67453258D01*
X49575200Y-66453258D02*
X49527580Y-66548496D01*
X49527580Y-66548496D02*
X49527580Y-66738972D01*
X49527580Y-66738972D02*
X49575200Y-66834210D01*
X49575200Y-66834210D02*
X49670438Y-66881829D01*
X49670438Y-66881829D02*
X50051390Y-66881829D01*
X50051390Y-66881829D02*
X50146628Y-66834210D01*
X50146628Y-66834210D02*
X50194247Y-66738972D01*
X50194247Y-66738972D02*
X50194247Y-66548496D01*
X50194247Y-66548496D02*
X50146628Y-66453258D01*
X50146628Y-66453258D02*
X50051390Y-66405639D01*
X50051390Y-66405639D02*
X49956152Y-66405639D01*
X49956152Y-66405639D02*
X49860914Y-66881829D01*
X49527580Y-65977067D02*
X50194247Y-65977067D01*
X50099009Y-65977067D02*
X50146628Y-65929448D01*
X50146628Y-65929448D02*
X50194247Y-65834210D01*
X50194247Y-65834210D02*
X50194247Y-65691353D01*
X50194247Y-65691353D02*
X50146628Y-65596115D01*
X50146628Y-65596115D02*
X50051390Y-65548496D01*
X50051390Y-65548496D02*
X49527580Y-65548496D01*
X50051390Y-65548496D02*
X50146628Y-65500877D01*
X50146628Y-65500877D02*
X50194247Y-65405639D01*
X50194247Y-65405639D02*
X50194247Y-65262782D01*
X50194247Y-65262782D02*
X50146628Y-65167543D01*
X50146628Y-65167543D02*
X50051390Y-65119924D01*
X50051390Y-65119924D02*
X49527580Y-65119924D01*
X50194247Y-64643734D02*
X49194247Y-64643734D01*
X50146628Y-64643734D02*
X50194247Y-64548496D01*
X50194247Y-64548496D02*
X50194247Y-64358020D01*
X50194247Y-64358020D02*
X50146628Y-64262782D01*
X50146628Y-64262782D02*
X50099009Y-64215163D01*
X50099009Y-64215163D02*
X50003771Y-64167544D01*
X50003771Y-64167544D02*
X49718057Y-64167544D01*
X49718057Y-64167544D02*
X49622819Y-64215163D01*
X49622819Y-64215163D02*
X49575200Y-64262782D01*
X49575200Y-64262782D02*
X49527580Y-64358020D01*
X49527580Y-64358020D02*
X49527580Y-64548496D01*
X49527580Y-64548496D02*
X49575200Y-64643734D01*
X49575200Y-63358020D02*
X49527580Y-63453258D01*
X49527580Y-63453258D02*
X49527580Y-63643734D01*
X49527580Y-63643734D02*
X49575200Y-63738972D01*
X49575200Y-63738972D02*
X49670438Y-63786591D01*
X49670438Y-63786591D02*
X50051390Y-63786591D01*
X50051390Y-63786591D02*
X50146628Y-63738972D01*
X50146628Y-63738972D02*
X50194247Y-63643734D01*
X50194247Y-63643734D02*
X50194247Y-63453258D01*
X50194247Y-63453258D02*
X50146628Y-63358020D01*
X50146628Y-63358020D02*
X50051390Y-63310401D01*
X50051390Y-63310401D02*
X49956152Y-63310401D01*
X49956152Y-63310401D02*
X49860914Y-63786591D01*
X49527580Y-62881829D02*
X50194247Y-62881829D01*
X50003771Y-62881829D02*
X50099009Y-62834210D01*
X50099009Y-62834210D02*
X50146628Y-62786591D01*
X50146628Y-62786591D02*
X50194247Y-62691353D01*
X50194247Y-62691353D02*
X50194247Y-62596115D01*
X49527580Y-61834210D02*
X50051390Y-61834210D01*
X50051390Y-61834210D02*
X50146628Y-61881829D01*
X50146628Y-61881829D02*
X50194247Y-61977067D01*
X50194247Y-61977067D02*
X50194247Y-62167543D01*
X50194247Y-62167543D02*
X50146628Y-62262781D01*
X49575200Y-61834210D02*
X49527580Y-61929448D01*
X49527580Y-61929448D02*
X49527580Y-62167543D01*
X49527580Y-62167543D02*
X49575200Y-62262781D01*
X49575200Y-62262781D02*
X49670438Y-62310400D01*
X49670438Y-62310400D02*
X49765676Y-62310400D01*
X49765676Y-62310400D02*
X49860914Y-62262781D01*
X49860914Y-62262781D02*
X49908533Y-62167543D01*
X49908533Y-62167543D02*
X49908533Y-61929448D01*
X49908533Y-61929448D02*
X49956152Y-61834210D01*
X50194247Y-61500876D02*
X50194247Y-61119924D01*
X50527580Y-61358019D02*
X49670438Y-61358019D01*
X49670438Y-61358019D02*
X49575200Y-61310400D01*
X49575200Y-61310400D02*
X49527580Y-61215162D01*
X49527580Y-61215162D02*
X49527580Y-61119924D01*
X50194247Y-60358019D02*
X49527580Y-60358019D01*
X50194247Y-60786590D02*
X49670438Y-60786590D01*
X49670438Y-60786590D02*
X49575200Y-60738971D01*
X49575200Y-60738971D02*
X49527580Y-60643733D01*
X49527580Y-60643733D02*
X49527580Y-60500876D01*
X49527580Y-60500876D02*
X49575200Y-60405638D01*
X49575200Y-60405638D02*
X49622819Y-60358019D01*
X49527580Y-59881828D02*
X50194247Y-59881828D01*
X50003771Y-59881828D02*
X50099009Y-59834209D01*
X50099009Y-59834209D02*
X50146628Y-59786590D01*
X50146628Y-59786590D02*
X50194247Y-59691352D01*
X50194247Y-59691352D02*
X50194247Y-59596114D01*
X49575200Y-58881828D02*
X49527580Y-58977066D01*
X49527580Y-58977066D02*
X49527580Y-59167542D01*
X49527580Y-59167542D02*
X49575200Y-59262780D01*
X49575200Y-59262780D02*
X49670438Y-59310399D01*
X49670438Y-59310399D02*
X50051390Y-59310399D01*
X50051390Y-59310399D02*
X50146628Y-59262780D01*
X50146628Y-59262780D02*
X50194247Y-59167542D01*
X50194247Y-59167542D02*
X50194247Y-58977066D01*
X50194247Y-58977066D02*
X50146628Y-58881828D01*
X50146628Y-58881828D02*
X50051390Y-58834209D01*
X50051390Y-58834209D02*
X49956152Y-58834209D01*
X49956152Y-58834209D02*
X49860914Y-59310399D01*
X52027580Y-67596115D02*
X53027580Y-67596115D01*
X53027580Y-67596115D02*
X52313295Y-67262782D01*
X52313295Y-67262782D02*
X53027580Y-66929449D01*
X53027580Y-66929449D02*
X52027580Y-66929449D01*
X52027580Y-66310401D02*
X52075200Y-66405639D01*
X52075200Y-66405639D02*
X52122819Y-66453258D01*
X52122819Y-66453258D02*
X52218057Y-66500877D01*
X52218057Y-66500877D02*
X52503771Y-66500877D01*
X52503771Y-66500877D02*
X52599009Y-66453258D01*
X52599009Y-66453258D02*
X52646628Y-66405639D01*
X52646628Y-66405639D02*
X52694247Y-66310401D01*
X52694247Y-66310401D02*
X52694247Y-66167544D01*
X52694247Y-66167544D02*
X52646628Y-66072306D01*
X52646628Y-66072306D02*
X52599009Y-66024687D01*
X52599009Y-66024687D02*
X52503771Y-65977068D01*
X52503771Y-65977068D02*
X52218057Y-65977068D01*
X52218057Y-65977068D02*
X52122819Y-66024687D01*
X52122819Y-66024687D02*
X52075200Y-66072306D01*
X52075200Y-66072306D02*
X52027580Y-66167544D01*
X52027580Y-66167544D02*
X52027580Y-66310401D01*
X52027580Y-65548496D02*
X52694247Y-65548496D01*
X53027580Y-65548496D02*
X52979961Y-65596115D01*
X52979961Y-65596115D02*
X52932342Y-65548496D01*
X52932342Y-65548496D02*
X52979961Y-65500877D01*
X52979961Y-65500877D02*
X53027580Y-65548496D01*
X53027580Y-65548496D02*
X52932342Y-65548496D01*
X52075200Y-65119925D02*
X52027580Y-65024687D01*
X52027580Y-65024687D02*
X52027580Y-64834211D01*
X52027580Y-64834211D02*
X52075200Y-64738973D01*
X52075200Y-64738973D02*
X52170438Y-64691354D01*
X52170438Y-64691354D02*
X52218057Y-64691354D01*
X52218057Y-64691354D02*
X52313295Y-64738973D01*
X52313295Y-64738973D02*
X52360914Y-64834211D01*
X52360914Y-64834211D02*
X52360914Y-64977068D01*
X52360914Y-64977068D02*
X52408533Y-65072306D01*
X52408533Y-65072306D02*
X52503771Y-65119925D01*
X52503771Y-65119925D02*
X52551390Y-65119925D01*
X52551390Y-65119925D02*
X52646628Y-65072306D01*
X52646628Y-65072306D02*
X52694247Y-64977068D01*
X52694247Y-64977068D02*
X52694247Y-64834211D01*
X52694247Y-64834211D02*
X52646628Y-64738973D01*
X52694247Y-64405639D02*
X52694247Y-64024687D01*
X53027580Y-64262782D02*
X52170438Y-64262782D01*
X52170438Y-64262782D02*
X52075200Y-64215163D01*
X52075200Y-64215163D02*
X52027580Y-64119925D01*
X52027580Y-64119925D02*
X52027580Y-64024687D01*
X52694247Y-63262782D02*
X52027580Y-63262782D01*
X52694247Y-63691353D02*
X52170438Y-63691353D01*
X52170438Y-63691353D02*
X52075200Y-63643734D01*
X52075200Y-63643734D02*
X52027580Y-63548496D01*
X52027580Y-63548496D02*
X52027580Y-63405639D01*
X52027580Y-63405639D02*
X52075200Y-63310401D01*
X52075200Y-63310401D02*
X52122819Y-63262782D01*
X52027580Y-62786591D02*
X52694247Y-62786591D01*
X52503771Y-62786591D02*
X52599009Y-62738972D01*
X52599009Y-62738972D02*
X52646628Y-62691353D01*
X52646628Y-62691353D02*
X52694247Y-62596115D01*
X52694247Y-62596115D02*
X52694247Y-62500877D01*
X52075200Y-61786591D02*
X52027580Y-61881829D01*
X52027580Y-61881829D02*
X52027580Y-62072305D01*
X52027580Y-62072305D02*
X52075200Y-62167543D01*
X52075200Y-62167543D02*
X52170438Y-62215162D01*
X52170438Y-62215162D02*
X52551390Y-62215162D01*
X52551390Y-62215162D02*
X52646628Y-62167543D01*
X52646628Y-62167543D02*
X52694247Y-62072305D01*
X52694247Y-62072305D02*
X52694247Y-61881829D01*
X52694247Y-61881829D02*
X52646628Y-61786591D01*
X52646628Y-61786591D02*
X52551390Y-61738972D01*
X52551390Y-61738972D02*
X52456152Y-61738972D01*
X52456152Y-61738972D02*
X52360914Y-62215162D01*
X52551390Y-60215162D02*
X52503771Y-60072305D01*
X52503771Y-60072305D02*
X52456152Y-60024686D01*
X52456152Y-60024686D02*
X52360914Y-59977067D01*
X52360914Y-59977067D02*
X52218057Y-59977067D01*
X52218057Y-59977067D02*
X52122819Y-60024686D01*
X52122819Y-60024686D02*
X52075200Y-60072305D01*
X52075200Y-60072305D02*
X52027580Y-60167543D01*
X52027580Y-60167543D02*
X52027580Y-60548495D01*
X52027580Y-60548495D02*
X53027580Y-60548495D01*
X53027580Y-60548495D02*
X53027580Y-60215162D01*
X53027580Y-60215162D02*
X52979961Y-60119924D01*
X52979961Y-60119924D02*
X52932342Y-60072305D01*
X52932342Y-60072305D02*
X52837104Y-60024686D01*
X52837104Y-60024686D02*
X52741866Y-60024686D01*
X52741866Y-60024686D02*
X52646628Y-60072305D01*
X52646628Y-60072305D02*
X52599009Y-60119924D01*
X52599009Y-60119924D02*
X52551390Y-60215162D01*
X52551390Y-60215162D02*
X52551390Y-60548495D01*
X54627580Y-67596115D02*
X55627580Y-67596115D01*
X55627580Y-67596115D02*
X54913295Y-67262782D01*
X54913295Y-67262782D02*
X55627580Y-66929449D01*
X55627580Y-66929449D02*
X54627580Y-66929449D01*
X54627580Y-66310401D02*
X54675200Y-66405639D01*
X54675200Y-66405639D02*
X54722819Y-66453258D01*
X54722819Y-66453258D02*
X54818057Y-66500877D01*
X54818057Y-66500877D02*
X55103771Y-66500877D01*
X55103771Y-66500877D02*
X55199009Y-66453258D01*
X55199009Y-66453258D02*
X55246628Y-66405639D01*
X55246628Y-66405639D02*
X55294247Y-66310401D01*
X55294247Y-66310401D02*
X55294247Y-66167544D01*
X55294247Y-66167544D02*
X55246628Y-66072306D01*
X55246628Y-66072306D02*
X55199009Y-66024687D01*
X55199009Y-66024687D02*
X55103771Y-65977068D01*
X55103771Y-65977068D02*
X54818057Y-65977068D01*
X54818057Y-65977068D02*
X54722819Y-66024687D01*
X54722819Y-66024687D02*
X54675200Y-66072306D01*
X54675200Y-66072306D02*
X54627580Y-66167544D01*
X54627580Y-66167544D02*
X54627580Y-66310401D01*
X54627580Y-65548496D02*
X55294247Y-65548496D01*
X55627580Y-65548496D02*
X55579961Y-65596115D01*
X55579961Y-65596115D02*
X55532342Y-65548496D01*
X55532342Y-65548496D02*
X55579961Y-65500877D01*
X55579961Y-65500877D02*
X55627580Y-65548496D01*
X55627580Y-65548496D02*
X55532342Y-65548496D01*
X54675200Y-65119925D02*
X54627580Y-65024687D01*
X54627580Y-65024687D02*
X54627580Y-64834211D01*
X54627580Y-64834211D02*
X54675200Y-64738973D01*
X54675200Y-64738973D02*
X54770438Y-64691354D01*
X54770438Y-64691354D02*
X54818057Y-64691354D01*
X54818057Y-64691354D02*
X54913295Y-64738973D01*
X54913295Y-64738973D02*
X54960914Y-64834211D01*
X54960914Y-64834211D02*
X54960914Y-64977068D01*
X54960914Y-64977068D02*
X55008533Y-65072306D01*
X55008533Y-65072306D02*
X55103771Y-65119925D01*
X55103771Y-65119925D02*
X55151390Y-65119925D01*
X55151390Y-65119925D02*
X55246628Y-65072306D01*
X55246628Y-65072306D02*
X55294247Y-64977068D01*
X55294247Y-64977068D02*
X55294247Y-64834211D01*
X55294247Y-64834211D02*
X55246628Y-64738973D01*
X55294247Y-64405639D02*
X55294247Y-64024687D01*
X55627580Y-64262782D02*
X54770438Y-64262782D01*
X54770438Y-64262782D02*
X54675200Y-64215163D01*
X54675200Y-64215163D02*
X54627580Y-64119925D01*
X54627580Y-64119925D02*
X54627580Y-64024687D01*
X55294247Y-63262782D02*
X54627580Y-63262782D01*
X55294247Y-63691353D02*
X54770438Y-63691353D01*
X54770438Y-63691353D02*
X54675200Y-63643734D01*
X54675200Y-63643734D02*
X54627580Y-63548496D01*
X54627580Y-63548496D02*
X54627580Y-63405639D01*
X54627580Y-63405639D02*
X54675200Y-63310401D01*
X54675200Y-63310401D02*
X54722819Y-63262782D01*
X54627580Y-62786591D02*
X55294247Y-62786591D01*
X55103771Y-62786591D02*
X55199009Y-62738972D01*
X55199009Y-62738972D02*
X55246628Y-62691353D01*
X55246628Y-62691353D02*
X55294247Y-62596115D01*
X55294247Y-62596115D02*
X55294247Y-62500877D01*
X54675200Y-61786591D02*
X54627580Y-61881829D01*
X54627580Y-61881829D02*
X54627580Y-62072305D01*
X54627580Y-62072305D02*
X54675200Y-62167543D01*
X54675200Y-62167543D02*
X54770438Y-62215162D01*
X54770438Y-62215162D02*
X55151390Y-62215162D01*
X55151390Y-62215162D02*
X55246628Y-62167543D01*
X55246628Y-62167543D02*
X55294247Y-62072305D01*
X55294247Y-62072305D02*
X55294247Y-61881829D01*
X55294247Y-61881829D02*
X55246628Y-61786591D01*
X55246628Y-61786591D02*
X55151390Y-61738972D01*
X55151390Y-61738972D02*
X55056152Y-61738972D01*
X55056152Y-61738972D02*
X54960914Y-62215162D01*
X54913295Y-60596114D02*
X54913295Y-60119924D01*
X54627580Y-60691352D02*
X55627580Y-60358019D01*
X55627580Y-60358019D02*
X54627580Y-60024686D01*
D11*
X61172418Y-47415019D02*
X60600990Y-47415019D01*
X60886704Y-48415019D02*
X60886704Y-47415019D01*
X60362894Y-47415019D02*
X59696228Y-48415019D01*
X59696228Y-47415019D02*
X60362894Y-48415019D01*
X60458132Y-45875019D02*
X60791465Y-45398828D01*
X61029560Y-45875019D02*
X61029560Y-44875019D01*
X61029560Y-44875019D02*
X60648608Y-44875019D01*
X60648608Y-44875019D02*
X60553370Y-44922638D01*
X60553370Y-44922638D02*
X60505751Y-44970257D01*
X60505751Y-44970257D02*
X60458132Y-45065495D01*
X60458132Y-45065495D02*
X60458132Y-45208352D01*
X60458132Y-45208352D02*
X60505751Y-45303590D01*
X60505751Y-45303590D02*
X60553370Y-45351209D01*
X60553370Y-45351209D02*
X60648608Y-45398828D01*
X60648608Y-45398828D02*
X61029560Y-45398828D01*
X60124798Y-44875019D02*
X59458132Y-45875019D01*
X59458132Y-44875019D02*
X60124798Y-45875019D01*
X61029561Y-43335019D02*
X61029561Y-42335019D01*
X60553371Y-43335019D02*
X60553371Y-42335019D01*
X60553371Y-42335019D02*
X59981943Y-43335019D01*
X59981943Y-43335019D02*
X59981943Y-42335019D01*
X59648609Y-42335019D02*
X59077181Y-42335019D01*
X59362895Y-43335019D02*
X59362895Y-42335019D01*
X61077179Y-50907400D02*
X60934322Y-50955019D01*
X60934322Y-50955019D02*
X60696227Y-50955019D01*
X60696227Y-50955019D02*
X60600989Y-50907400D01*
X60600989Y-50907400D02*
X60553370Y-50859780D01*
X60553370Y-50859780D02*
X60505751Y-50764542D01*
X60505751Y-50764542D02*
X60505751Y-50669304D01*
X60505751Y-50669304D02*
X60553370Y-50574066D01*
X60553370Y-50574066D02*
X60600989Y-50526447D01*
X60600989Y-50526447D02*
X60696227Y-50478828D01*
X60696227Y-50478828D02*
X60886703Y-50431209D01*
X60886703Y-50431209D02*
X60981941Y-50383590D01*
X60981941Y-50383590D02*
X61029560Y-50335971D01*
X61029560Y-50335971D02*
X61077179Y-50240733D01*
X61077179Y-50240733D02*
X61077179Y-50145495D01*
X61077179Y-50145495D02*
X61029560Y-50050257D01*
X61029560Y-50050257D02*
X60981941Y-50002638D01*
X60981941Y-50002638D02*
X60886703Y-49955019D01*
X60886703Y-49955019D02*
X60648608Y-49955019D01*
X60648608Y-49955019D02*
X60505751Y-50002638D01*
X59505751Y-50859780D02*
X59553370Y-50907400D01*
X59553370Y-50907400D02*
X59696227Y-50955019D01*
X59696227Y-50955019D02*
X59791465Y-50955019D01*
X59791465Y-50955019D02*
X59934322Y-50907400D01*
X59934322Y-50907400D02*
X60029560Y-50812161D01*
X60029560Y-50812161D02*
X60077179Y-50716923D01*
X60077179Y-50716923D02*
X60124798Y-50526447D01*
X60124798Y-50526447D02*
X60124798Y-50383590D01*
X60124798Y-50383590D02*
X60077179Y-50193114D01*
X60077179Y-50193114D02*
X60029560Y-50097876D01*
X60029560Y-50097876D02*
X59934322Y-50002638D01*
X59934322Y-50002638D02*
X59791465Y-49955019D01*
X59791465Y-49955019D02*
X59696227Y-49955019D01*
X59696227Y-49955019D02*
X59553370Y-50002638D01*
X59553370Y-50002638D02*
X59505751Y-50050257D01*
X58600989Y-50955019D02*
X59077179Y-50955019D01*
X59077179Y-50955019D02*
X59077179Y-49955019D01*
X61077180Y-53447400D02*
X60934323Y-53495019D01*
X60934323Y-53495019D02*
X60696228Y-53495019D01*
X60696228Y-53495019D02*
X60600990Y-53447400D01*
X60600990Y-53447400D02*
X60553371Y-53399780D01*
X60553371Y-53399780D02*
X60505752Y-53304542D01*
X60505752Y-53304542D02*
X60505752Y-53209304D01*
X60505752Y-53209304D02*
X60553371Y-53114066D01*
X60553371Y-53114066D02*
X60600990Y-53066447D01*
X60600990Y-53066447D02*
X60696228Y-53018828D01*
X60696228Y-53018828D02*
X60886704Y-52971209D01*
X60886704Y-52971209D02*
X60981942Y-52923590D01*
X60981942Y-52923590D02*
X61029561Y-52875971D01*
X61029561Y-52875971D02*
X61077180Y-52780733D01*
X61077180Y-52780733D02*
X61077180Y-52685495D01*
X61077180Y-52685495D02*
X61029561Y-52590257D01*
X61029561Y-52590257D02*
X60981942Y-52542638D01*
X60981942Y-52542638D02*
X60886704Y-52495019D01*
X60886704Y-52495019D02*
X60648609Y-52495019D01*
X60648609Y-52495019D02*
X60505752Y-52542638D01*
X60077180Y-53495019D02*
X60077180Y-52495019D01*
X60077180Y-52495019D02*
X59839085Y-52495019D01*
X59839085Y-52495019D02*
X59696228Y-52542638D01*
X59696228Y-52542638D02*
X59600990Y-52637876D01*
X59600990Y-52637876D02*
X59553371Y-52733114D01*
X59553371Y-52733114D02*
X59505752Y-52923590D01*
X59505752Y-52923590D02*
X59505752Y-53066447D01*
X59505752Y-53066447D02*
X59553371Y-53256923D01*
X59553371Y-53256923D02*
X59600990Y-53352161D01*
X59600990Y-53352161D02*
X59696228Y-53447400D01*
X59696228Y-53447400D02*
X59839085Y-53495019D01*
X59839085Y-53495019D02*
X60077180Y-53495019D01*
X59124799Y-53209304D02*
X58648609Y-53209304D01*
X59220037Y-53495019D02*
X58886704Y-52495019D01*
X58886704Y-52495019D02*
X58553371Y-53495019D01*
X60505751Y-57622638D02*
X60600989Y-57575019D01*
X60600989Y-57575019D02*
X60743846Y-57575019D01*
X60743846Y-57575019D02*
X60886703Y-57622638D01*
X60886703Y-57622638D02*
X60981941Y-57717876D01*
X60981941Y-57717876D02*
X61029560Y-57813114D01*
X61029560Y-57813114D02*
X61077179Y-58003590D01*
X61077179Y-58003590D02*
X61077179Y-58146447D01*
X61077179Y-58146447D02*
X61029560Y-58336923D01*
X61029560Y-58336923D02*
X60981941Y-58432161D01*
X60981941Y-58432161D02*
X60886703Y-58527400D01*
X60886703Y-58527400D02*
X60743846Y-58575019D01*
X60743846Y-58575019D02*
X60648608Y-58575019D01*
X60648608Y-58575019D02*
X60505751Y-58527400D01*
X60505751Y-58527400D02*
X60458132Y-58479780D01*
X60458132Y-58479780D02*
X60458132Y-58146447D01*
X60458132Y-58146447D02*
X60648608Y-58146447D01*
X60029560Y-58575019D02*
X60029560Y-57575019D01*
X60029560Y-57575019D02*
X59458132Y-58575019D01*
X59458132Y-58575019D02*
X59458132Y-57575019D01*
X58981941Y-58575019D02*
X58981941Y-57575019D01*
X58981941Y-57575019D02*
X58743846Y-57575019D01*
X58743846Y-57575019D02*
X58600989Y-57622638D01*
X58600989Y-57622638D02*
X58505751Y-57717876D01*
X58505751Y-57717876D02*
X58458132Y-57813114D01*
X58458132Y-57813114D02*
X58410513Y-58003590D01*
X58410513Y-58003590D02*
X58410513Y-58146447D01*
X58410513Y-58146447D02*
X58458132Y-58336923D01*
X58458132Y-58336923D02*
X58505751Y-58432161D01*
X58505751Y-58432161D02*
X58600989Y-58527400D01*
X58600989Y-58527400D02*
X58743846Y-58575019D01*
X58743846Y-58575019D02*
X58981941Y-58575019D01*
X61029560Y-55654066D02*
X60267656Y-55654066D01*
X60648608Y-56035019D02*
X60648608Y-55273114D01*
X59315275Y-55035019D02*
X59791465Y-55035019D01*
X59791465Y-55035019D02*
X59839084Y-55511209D01*
X59839084Y-55511209D02*
X59791465Y-55463590D01*
X59791465Y-55463590D02*
X59696227Y-55415971D01*
X59696227Y-55415971D02*
X59458132Y-55415971D01*
X59458132Y-55415971D02*
X59362894Y-55463590D01*
X59362894Y-55463590D02*
X59315275Y-55511209D01*
X59315275Y-55511209D02*
X59267656Y-55606447D01*
X59267656Y-55606447D02*
X59267656Y-55844542D01*
X59267656Y-55844542D02*
X59315275Y-55939780D01*
X59315275Y-55939780D02*
X59362894Y-55987400D01*
X59362894Y-55987400D02*
X59458132Y-56035019D01*
X59458132Y-56035019D02*
X59696227Y-56035019D01*
X59696227Y-56035019D02*
X59791465Y-55987400D01*
X59791465Y-55987400D02*
X59839084Y-55939780D01*
X58981941Y-55035019D02*
X58648608Y-56035019D01*
X58648608Y-56035019D02*
X58315275Y-55035019D01*
X61029561Y-40922019D02*
X61029561Y-39922019D01*
X61029561Y-39922019D02*
X60648609Y-39922019D01*
X60648609Y-39922019D02*
X60553371Y-39969638D01*
X60553371Y-39969638D02*
X60505752Y-40017257D01*
X60505752Y-40017257D02*
X60458133Y-40112495D01*
X60458133Y-40112495D02*
X60458133Y-40255352D01*
X60458133Y-40255352D02*
X60505752Y-40350590D01*
X60505752Y-40350590D02*
X60553371Y-40398209D01*
X60553371Y-40398209D02*
X60648609Y-40445828D01*
X60648609Y-40445828D02*
X61029561Y-40445828D01*
X60124799Y-39922019D02*
X59886704Y-40922019D01*
X59886704Y-40922019D02*
X59696228Y-40207733D01*
X59696228Y-40207733D02*
X59505752Y-40922019D01*
X59505752Y-40922019D02*
X59267657Y-39922019D01*
X58886704Y-40922019D02*
X58886704Y-39922019D01*
X58886704Y-39922019D02*
X58553371Y-40636304D01*
X58553371Y-40636304D02*
X58220038Y-39922019D01*
X58220038Y-39922019D02*
X58220038Y-40922019D01*
X45357714Y-55628666D02*
X44595810Y-55628666D01*
X44976762Y-56009619D02*
X44976762Y-55247714D01*
X44214857Y-55009619D02*
X43595810Y-55009619D01*
X43595810Y-55009619D02*
X43929143Y-55390571D01*
X43929143Y-55390571D02*
X43786286Y-55390571D01*
X43786286Y-55390571D02*
X43691048Y-55438190D01*
X43691048Y-55438190D02*
X43643429Y-55485809D01*
X43643429Y-55485809D02*
X43595810Y-55581047D01*
X43595810Y-55581047D02*
X43595810Y-55819142D01*
X43595810Y-55819142D02*
X43643429Y-55914380D01*
X43643429Y-55914380D02*
X43691048Y-55962000D01*
X43691048Y-55962000D02*
X43786286Y-56009619D01*
X43786286Y-56009619D02*
X44072000Y-56009619D01*
X44072000Y-56009619D02*
X44167238Y-55962000D01*
X44167238Y-55962000D02*
X44214857Y-55914380D01*
X43310095Y-55009619D02*
X42976762Y-56009619D01*
X42976762Y-56009619D02*
X42643429Y-55009619D01*
X42405333Y-55009619D02*
X41786286Y-55009619D01*
X41786286Y-55009619D02*
X42119619Y-55390571D01*
X42119619Y-55390571D02*
X41976762Y-55390571D01*
X41976762Y-55390571D02*
X41881524Y-55438190D01*
X41881524Y-55438190D02*
X41833905Y-55485809D01*
X41833905Y-55485809D02*
X41786286Y-55581047D01*
X41786286Y-55581047D02*
X41786286Y-55819142D01*
X41786286Y-55819142D02*
X41833905Y-55914380D01*
X41833905Y-55914380D02*
X41881524Y-55962000D01*
X41881524Y-55962000D02*
X41976762Y-56009619D01*
X41976762Y-56009619D02*
X42262476Y-56009619D01*
X42262476Y-56009619D02*
X42357714Y-55962000D01*
X42357714Y-55962000D02*
X42405333Y-55914380D01*
X43881523Y-57622638D02*
X43976761Y-57575019D01*
X43976761Y-57575019D02*
X44119618Y-57575019D01*
X44119618Y-57575019D02*
X44262475Y-57622638D01*
X44262475Y-57622638D02*
X44357713Y-57717876D01*
X44357713Y-57717876D02*
X44405332Y-57813114D01*
X44405332Y-57813114D02*
X44452951Y-58003590D01*
X44452951Y-58003590D02*
X44452951Y-58146447D01*
X44452951Y-58146447D02*
X44405332Y-58336923D01*
X44405332Y-58336923D02*
X44357713Y-58432161D01*
X44357713Y-58432161D02*
X44262475Y-58527400D01*
X44262475Y-58527400D02*
X44119618Y-58575019D01*
X44119618Y-58575019D02*
X44024380Y-58575019D01*
X44024380Y-58575019D02*
X43881523Y-58527400D01*
X43881523Y-58527400D02*
X43833904Y-58479780D01*
X43833904Y-58479780D02*
X43833904Y-58146447D01*
X43833904Y-58146447D02*
X44024380Y-58146447D01*
X43405332Y-58575019D02*
X43405332Y-57575019D01*
X43405332Y-57575019D02*
X42833904Y-58575019D01*
X42833904Y-58575019D02*
X42833904Y-57575019D01*
X42357713Y-58575019D02*
X42357713Y-57575019D01*
X42357713Y-57575019D02*
X42119618Y-57575019D01*
X42119618Y-57575019D02*
X41976761Y-57622638D01*
X41976761Y-57622638D02*
X41881523Y-57717876D01*
X41881523Y-57717876D02*
X41833904Y-57813114D01*
X41833904Y-57813114D02*
X41786285Y-58003590D01*
X41786285Y-58003590D02*
X41786285Y-58146447D01*
X41786285Y-58146447D02*
X41833904Y-58336923D01*
X41833904Y-58336923D02*
X41881523Y-58432161D01*
X41881523Y-58432161D02*
X41976761Y-58527400D01*
X41976761Y-58527400D02*
X42119618Y-58575019D01*
X42119618Y-58575019D02*
X42357713Y-58575019D01*
X44357713Y-48367400D02*
X44214856Y-48415019D01*
X44214856Y-48415019D02*
X43976761Y-48415019D01*
X43976761Y-48415019D02*
X43881523Y-48367400D01*
X43881523Y-48367400D02*
X43833904Y-48319780D01*
X43833904Y-48319780D02*
X43786285Y-48224542D01*
X43786285Y-48224542D02*
X43786285Y-48129304D01*
X43786285Y-48129304D02*
X43833904Y-48034066D01*
X43833904Y-48034066D02*
X43881523Y-47986447D01*
X43881523Y-47986447D02*
X43976761Y-47938828D01*
X43976761Y-47938828D02*
X44167237Y-47891209D01*
X44167237Y-47891209D02*
X44262475Y-47843590D01*
X44262475Y-47843590D02*
X44310094Y-47795971D01*
X44310094Y-47795971D02*
X44357713Y-47700733D01*
X44357713Y-47700733D02*
X44357713Y-47605495D01*
X44357713Y-47605495D02*
X44310094Y-47510257D01*
X44310094Y-47510257D02*
X44262475Y-47462638D01*
X44262475Y-47462638D02*
X44167237Y-47415019D01*
X44167237Y-47415019D02*
X43929142Y-47415019D01*
X43929142Y-47415019D02*
X43786285Y-47462638D01*
X42786285Y-48319780D02*
X42833904Y-48367400D01*
X42833904Y-48367400D02*
X42976761Y-48415019D01*
X42976761Y-48415019D02*
X43071999Y-48415019D01*
X43071999Y-48415019D02*
X43214856Y-48367400D01*
X43214856Y-48367400D02*
X43310094Y-48272161D01*
X43310094Y-48272161D02*
X43357713Y-48176923D01*
X43357713Y-48176923D02*
X43405332Y-47986447D01*
X43405332Y-47986447D02*
X43405332Y-47843590D01*
X43405332Y-47843590D02*
X43357713Y-47653114D01*
X43357713Y-47653114D02*
X43310094Y-47557876D01*
X43310094Y-47557876D02*
X43214856Y-47462638D01*
X43214856Y-47462638D02*
X43071999Y-47415019D01*
X43071999Y-47415019D02*
X42976761Y-47415019D01*
X42976761Y-47415019D02*
X42833904Y-47462638D01*
X42833904Y-47462638D02*
X42786285Y-47510257D01*
X42357713Y-48415019D02*
X42357713Y-47415019D01*
X41786285Y-48415019D02*
X42214856Y-47843590D01*
X41786285Y-47415019D02*
X42357713Y-47986447D01*
X44359523Y-50792400D02*
X44216666Y-50840019D01*
X44216666Y-50840019D02*
X43978571Y-50840019D01*
X43978571Y-50840019D02*
X43883333Y-50792400D01*
X43883333Y-50792400D02*
X43835714Y-50744780D01*
X43835714Y-50744780D02*
X43788095Y-50649542D01*
X43788095Y-50649542D02*
X43788095Y-50554304D01*
X43788095Y-50554304D02*
X43835714Y-50459066D01*
X43835714Y-50459066D02*
X43883333Y-50411447D01*
X43883333Y-50411447D02*
X43978571Y-50363828D01*
X43978571Y-50363828D02*
X44169047Y-50316209D01*
X44169047Y-50316209D02*
X44264285Y-50268590D01*
X44264285Y-50268590D02*
X44311904Y-50220971D01*
X44311904Y-50220971D02*
X44359523Y-50125733D01*
X44359523Y-50125733D02*
X44359523Y-50030495D01*
X44359523Y-50030495D02*
X44311904Y-49935257D01*
X44311904Y-49935257D02*
X44264285Y-49887638D01*
X44264285Y-49887638D02*
X44169047Y-49840019D01*
X44169047Y-49840019D02*
X43930952Y-49840019D01*
X43930952Y-49840019D02*
X43788095Y-49887638D01*
X43359523Y-50840019D02*
X43359523Y-49840019D01*
X43359523Y-49840019D02*
X43121428Y-49840019D01*
X43121428Y-49840019D02*
X42978571Y-49887638D01*
X42978571Y-49887638D02*
X42883333Y-49982876D01*
X42883333Y-49982876D02*
X42835714Y-50078114D01*
X42835714Y-50078114D02*
X42788095Y-50268590D01*
X42788095Y-50268590D02*
X42788095Y-50411447D01*
X42788095Y-50411447D02*
X42835714Y-50601923D01*
X42835714Y-50601923D02*
X42883333Y-50697161D01*
X42883333Y-50697161D02*
X42978571Y-50792400D01*
X42978571Y-50792400D02*
X43121428Y-50840019D01*
X43121428Y-50840019D02*
X43359523Y-50840019D01*
X42169047Y-49840019D02*
X41978571Y-49840019D01*
X41978571Y-49840019D02*
X41883333Y-49887638D01*
X41883333Y-49887638D02*
X41788095Y-49982876D01*
X41788095Y-49982876D02*
X41740476Y-50173352D01*
X41740476Y-50173352D02*
X41740476Y-50506685D01*
X41740476Y-50506685D02*
X41788095Y-50697161D01*
X41788095Y-50697161D02*
X41883333Y-50792400D01*
X41883333Y-50792400D02*
X41978571Y-50840019D01*
X41978571Y-50840019D02*
X42169047Y-50840019D01*
X42169047Y-50840019D02*
X42264285Y-50792400D01*
X42264285Y-50792400D02*
X42359523Y-50697161D01*
X42359523Y-50697161D02*
X42407142Y-50506685D01*
X42407142Y-50506685D02*
X42407142Y-50173352D01*
X42407142Y-50173352D02*
X42359523Y-49982876D01*
X42359523Y-49982876D02*
X42264285Y-49887638D01*
X42264285Y-49887638D02*
X42169047Y-49840019D01*
X43500572Y-43335019D02*
X43833905Y-42858828D01*
X44072000Y-43335019D02*
X44072000Y-42335019D01*
X44072000Y-42335019D02*
X43691048Y-42335019D01*
X43691048Y-42335019D02*
X43595810Y-42382638D01*
X43595810Y-42382638D02*
X43548191Y-42430257D01*
X43548191Y-42430257D02*
X43500572Y-42525495D01*
X43500572Y-42525495D02*
X43500572Y-42668352D01*
X43500572Y-42668352D02*
X43548191Y-42763590D01*
X43548191Y-42763590D02*
X43595810Y-42811209D01*
X43595810Y-42811209D02*
X43691048Y-42858828D01*
X43691048Y-42858828D02*
X44072000Y-42858828D01*
X43119619Y-43287400D02*
X42976762Y-43335019D01*
X42976762Y-43335019D02*
X42738667Y-43335019D01*
X42738667Y-43335019D02*
X42643429Y-43287400D01*
X42643429Y-43287400D02*
X42595810Y-43239780D01*
X42595810Y-43239780D02*
X42548191Y-43144542D01*
X42548191Y-43144542D02*
X42548191Y-43049304D01*
X42548191Y-43049304D02*
X42595810Y-42954066D01*
X42595810Y-42954066D02*
X42643429Y-42906447D01*
X42643429Y-42906447D02*
X42738667Y-42858828D01*
X42738667Y-42858828D02*
X42929143Y-42811209D01*
X42929143Y-42811209D02*
X43024381Y-42763590D01*
X43024381Y-42763590D02*
X43072000Y-42715971D01*
X43072000Y-42715971D02*
X43119619Y-42620733D01*
X43119619Y-42620733D02*
X43119619Y-42525495D01*
X43119619Y-42525495D02*
X43072000Y-42430257D01*
X43072000Y-42430257D02*
X43024381Y-42382638D01*
X43024381Y-42382638D02*
X42929143Y-42335019D01*
X42929143Y-42335019D02*
X42691048Y-42335019D01*
X42691048Y-42335019D02*
X42548191Y-42382638D01*
X42262476Y-42335019D02*
X41691048Y-42335019D01*
X41976762Y-43335019D02*
X41976762Y-42335019D01*
X43973808Y-53447400D02*
X43830951Y-53495019D01*
X43830951Y-53495019D02*
X43592856Y-53495019D01*
X43592856Y-53495019D02*
X43497618Y-53447400D01*
X43497618Y-53447400D02*
X43449999Y-53399780D01*
X43449999Y-53399780D02*
X43402380Y-53304542D01*
X43402380Y-53304542D02*
X43402380Y-53209304D01*
X43402380Y-53209304D02*
X43449999Y-53114066D01*
X43449999Y-53114066D02*
X43497618Y-53066447D01*
X43497618Y-53066447D02*
X43592856Y-53018828D01*
X43592856Y-53018828D02*
X43783332Y-52971209D01*
X43783332Y-52971209D02*
X43878570Y-52923590D01*
X43878570Y-52923590D02*
X43926189Y-52875971D01*
X43926189Y-52875971D02*
X43973808Y-52780733D01*
X43973808Y-52780733D02*
X43973808Y-52685495D01*
X43973808Y-52685495D02*
X43926189Y-52590257D01*
X43926189Y-52590257D02*
X43878570Y-52542638D01*
X43878570Y-52542638D02*
X43783332Y-52495019D01*
X43783332Y-52495019D02*
X43545237Y-52495019D01*
X43545237Y-52495019D02*
X43402380Y-52542638D01*
X42973808Y-53495019D02*
X42973808Y-52495019D01*
X42973808Y-52495019D02*
X42735713Y-52495019D01*
X42735713Y-52495019D02*
X42592856Y-52542638D01*
X42592856Y-52542638D02*
X42497618Y-52637876D01*
X42497618Y-52637876D02*
X42449999Y-52733114D01*
X42449999Y-52733114D02*
X42402380Y-52923590D01*
X42402380Y-52923590D02*
X42402380Y-53066447D01*
X42402380Y-53066447D02*
X42449999Y-53256923D01*
X42449999Y-53256923D02*
X42497618Y-53352161D01*
X42497618Y-53352161D02*
X42592856Y-53447400D01*
X42592856Y-53447400D02*
X42735713Y-53495019D01*
X42735713Y-53495019D02*
X42973808Y-53495019D01*
X41973808Y-53495019D02*
X41973808Y-52495019D01*
X42738666Y-45754380D02*
X42786285Y-45802000D01*
X42786285Y-45802000D02*
X42929142Y-45849619D01*
X42929142Y-45849619D02*
X43024380Y-45849619D01*
X43024380Y-45849619D02*
X43167237Y-45802000D01*
X43167237Y-45802000D02*
X43262475Y-45706761D01*
X43262475Y-45706761D02*
X43310094Y-45611523D01*
X43310094Y-45611523D02*
X43357713Y-45421047D01*
X43357713Y-45421047D02*
X43357713Y-45278190D01*
X43357713Y-45278190D02*
X43310094Y-45087714D01*
X43310094Y-45087714D02*
X43262475Y-44992476D01*
X43262475Y-44992476D02*
X43167237Y-44897238D01*
X43167237Y-44897238D02*
X43024380Y-44849619D01*
X43024380Y-44849619D02*
X42929142Y-44849619D01*
X42929142Y-44849619D02*
X42786285Y-44897238D01*
X42786285Y-44897238D02*
X42738666Y-44944857D01*
X42357713Y-45802000D02*
X42214856Y-45849619D01*
X42214856Y-45849619D02*
X41976761Y-45849619D01*
X41976761Y-45849619D02*
X41881523Y-45802000D01*
X41881523Y-45802000D02*
X41833904Y-45754380D01*
X41833904Y-45754380D02*
X41786285Y-45659142D01*
X41786285Y-45659142D02*
X41786285Y-45563904D01*
X41786285Y-45563904D02*
X41833904Y-45468666D01*
X41833904Y-45468666D02*
X41881523Y-45421047D01*
X41881523Y-45421047D02*
X41976761Y-45373428D01*
X41976761Y-45373428D02*
X42167237Y-45325809D01*
X42167237Y-45325809D02*
X42262475Y-45278190D01*
X42262475Y-45278190D02*
X42310094Y-45230571D01*
X42310094Y-45230571D02*
X42357713Y-45135333D01*
X42357713Y-45135333D02*
X42357713Y-45040095D01*
X42357713Y-45040095D02*
X42310094Y-44944857D01*
X42310094Y-44944857D02*
X42262475Y-44897238D01*
X42262475Y-44897238D02*
X42167237Y-44849619D01*
X42167237Y-44849619D02*
X41929142Y-44849619D01*
X41929142Y-44849619D02*
X41786285Y-44897238D01*
X43310095Y-40509304D02*
X42833905Y-40509304D01*
X43405333Y-40795019D02*
X43072000Y-39795019D01*
X43072000Y-39795019D02*
X42738667Y-40795019D01*
X42405333Y-40795019D02*
X42405333Y-39795019D01*
X42405333Y-39795019D02*
X41833905Y-40795019D01*
X41833905Y-40795019D02*
X41833905Y-39795019D01*
D12*
X44484819Y-69366666D02*
X45199104Y-69366666D01*
X45199104Y-69366666D02*
X45341961Y-69319047D01*
X45341961Y-69319047D02*
X45437200Y-69223809D01*
X45437200Y-69223809D02*
X45484819Y-69080952D01*
X45484819Y-69080952D02*
X45484819Y-68985714D01*
X45484819Y-70366666D02*
X45484819Y-69795238D01*
X45484819Y-70080952D02*
X44484819Y-70080952D01*
X44484819Y-70080952D02*
X44627676Y-69985714D01*
X44627676Y-69985714D02*
X44722914Y-69890476D01*
X44722914Y-69890476D02*
X44770533Y-69795238D01*
%TO.C,CON2*%
D13*
X64130000Y-59150000D02*
X61590000Y-61740000D01*
X64130000Y-38830000D02*
X64130000Y-59150000D01*
X61590000Y-59150000D02*
X64130000Y-59150000D01*
X61590000Y-41370000D02*
X64130000Y-41370000D01*
X61590000Y-41370000D02*
X61590000Y-59150000D01*
X61590000Y-38830000D02*
X64130000Y-38830000D01*
X61590000Y-38830000D02*
X61590000Y-41370000D01*
X41270000Y-59150000D02*
X41270000Y-41370000D01*
X41270000Y-41370000D02*
X41270000Y-38830000D01*
X41270000Y-38830000D02*
X38730000Y-38830000D01*
X38730000Y-59150000D02*
X41270000Y-59150000D01*
X38730000Y-41370000D02*
X41270000Y-41370000D01*
X38730000Y-41370000D02*
X38730000Y-59150000D01*
X38730000Y-38830000D02*
X38730000Y-41370000D01*
%TO.C,J1*%
D14*
X46140000Y-68220000D02*
X46140000Y-69600000D01*
X47520000Y-68220000D02*
X46140000Y-68220000D01*
X48790000Y-68220000D02*
X48790000Y-70980000D01*
X48790000Y-68220000D02*
X56520000Y-68220000D01*
X48790000Y-70980000D02*
X56520000Y-70980000D01*
X56520000Y-68220000D02*
X56520000Y-70980000D01*
%TD*%
%LPC*%
D15*
%TO.C,CON2*%
X62860000Y-40100000D03*
D16*
X62860000Y-42640000D03*
X62860000Y-45180000D03*
X62860000Y-47720000D03*
X62860000Y-50260000D03*
X62860000Y-52800000D03*
X62860000Y-55340000D03*
X62860000Y-57880000D03*
X40000000Y-57880000D03*
X40000000Y-55340000D03*
X40000000Y-52800000D03*
X40000000Y-50260000D03*
X40000000Y-47720000D03*
X40000000Y-45180000D03*
X40000000Y-42640000D03*
D17*
X40000000Y-40100000D03*
%TD*%
D18*
%TO.C,J1*%
X47520000Y-69600000D03*
D19*
X50060000Y-69600000D03*
X52600000Y-69600000D03*
X55140000Y-69600000D03*
%TD*%
%LPD*%
M02*
