M48
; DRILL file KiCad 10.0.0 date 2026-04-11T10:32:21
; FORMAT={-:-/ absolute / inch / decimal}
; #@! TF.CreationDate,2026-04-11T10:32:21-06:00
; #@! TF.GenerationSoftware,Kicad,Pcbnew,10.0.0
; #@! TF.FileFunction,Plated,1,2,PTH
FMAT,2
INCH
; #@! TA.AperFunction,Plated,PTH,ViaDrill
T1C0.0118
; #@! TA.AperFunction,Plated,PTH,ComponentDrill
T2C0.0350
; #@! TA.AperFunction,Plated,PTH,ComponentDrill
T3C0.0394
%
G90
G05
T1
X1.7382Y-2.2717
X1.7677Y-1.7717
X1.8071Y-2.2786
X1.815Y-2.3819
X1.8898Y-2.0
X1.9331Y-2.189
X1.937Y-2.3819
X2.0079Y-2.1063
X2.0709Y-1.6969
X2.0709Y-2.0315
X2.0906Y-1.626
X2.0945Y-2.2126
X2.1142Y-2.3819
X2.1811Y-1.9528
X2.1811Y-2.3819
X2.2096Y-1.9251
X2.2126Y-1.626
X2.2323Y-2.2441
X2.2756Y-1.9252
T2
X1.5748Y-1.5787
X1.5748Y-1.6787
X1.5748Y-1.7787
X1.5748Y-1.8787
X1.5748Y-1.9787
X1.5748Y-2.0787
X1.5748Y-2.1787
X1.5748Y-2.2787
X2.4748Y-1.5787
X2.4748Y-1.6787
X2.4748Y-1.7787
X2.4748Y-1.8787
X2.4748Y-1.9787
X2.4748Y-2.0787
X2.4748Y-2.1787
X2.4748Y-2.2787
T3
X1.8709Y-2.7402
X1.9709Y-2.7402
X2.0709Y-2.7402
X2.1709Y-2.7402
M30
