%TF.GenerationSoftware,KiCad,Pcbnew,10.0.0*%
%TF.CreationDate,2026-04-11T10:32:21-06:00*%
%TF.ProjectId,Moisture1,4d6f6973-7475-4726-9531-2e6b69636164,rev?*%
%TF.SameCoordinates,Original*%
%TF.FileFunction,Copper,L2,Bot*%
%TF.FilePolarity,Positive*%
%FSLAX46Y46*%
G04 Gerber Fmt 4.6, Leading zero omitted, Abs format (unit mm)*
G04 Created by KiCad (PCBNEW 10.0.0) date 2026-04-11 10:32:21*
%MOMM*%
%LPD*%
G01*
G04 APERTURE LIST*
%TA.AperFunction,ComponentPad*%
%ADD10R,1.524000X1.524000*%
%TD*%
%TA.AperFunction,ComponentPad*%
%ADD11C,1.524000*%
%TD*%
%TA.AperFunction,ComponentPad*%
%ADD12R,1.676400X1.676400*%
%TD*%
%TA.AperFunction,ComponentPad*%
%ADD13R,1.700000X1.700000*%
%TD*%
%TA.AperFunction,ComponentPad*%
%ADD14C,1.700000*%
%TD*%
%TA.AperFunction,ViaPad*%
%ADD15C,0.600000*%
%TD*%
%TA.AperFunction,Conductor*%
%ADD16C,0.254000*%
%TD*%
G04 APERTURE END LIST*
D10*
%TO.P,CON2,P16,PWM_P16*%
%TO.N,unconnected-(CON2-PWM-PadP16)*%
X62860000Y-40100000D03*
D11*
%TO.P,CON2,P15,INT_P15*%
%TO.N,Alert*%
X62860000Y-42640000D03*
%TO.P,CON2,P14,TX_P14*%
%TO.N,unconnected-(CON2-TX-PadP14)*%
X62860000Y-45180000D03*
%TO.P,CON2,P13,RX_P13*%
%TO.N,unconnected-(CON2-RX-PadP13)*%
X62860000Y-47720000D03*
%TO.P,CON2,P12,SCL_P12*%
%TO.N,SCL*%
X62860000Y-50260000D03*
%TO.P,CON2,P11,SDA_P11*%
%TO.N,SDA*%
X62860000Y-52800000D03*
%TO.P,CON2,P10,5V_P10*%
%TO.N,+5V*%
X62860000Y-55340000D03*
%TO.P,CON2,P9,GND2_P9*%
%TO.N,GND*%
X62860000Y-57880000D03*
%TO.P,CON2,P8,GND1_P8*%
X40000000Y-57880000D03*
%TO.P,CON2,P7,3V3_P7*%
%TO.N,+3.3V*%
X40000000Y-55340000D03*
%TO.P,CON2,P6,MOSI_P6*%
%TO.N,unconnected-(CON2-MOSI-PadP6)*%
X40000000Y-52800000D03*
%TO.P,CON2,P5,MISO_P5*%
%TO.N,unconnected-(CON2-MISO-PadP5)*%
X40000000Y-50260000D03*
%TO.P,CON2,P4,SCK_P4*%
%TO.N,unconnected-(CON2-SCK-PadP4)*%
X40000000Y-47720000D03*
%TO.P,CON2,P3,CS_P3*%
%TO.N,unconnected-(CON2-CS-PadP3)*%
X40000000Y-45180000D03*
%TO.P,CON2,P2,RST_P2*%
%TO.N,unconnected-(CON2-RST-PadP2)*%
X40000000Y-42640000D03*
D12*
%TO.P,CON2,P1,AN_P1*%
%TO.N,unconnected-(CON2-AN-PadP1)*%
X40000000Y-40100000D03*
%TD*%
D13*
%TO.P,J1,1,Pin_1_1*%
%TO.N,GND*%
X47520000Y-69600000D03*
D14*
%TO.P,J1,2,Pin_2_2*%
%TO.N,AIN0*%
X50060000Y-69600000D03*
%TO.P,J1,3,Pin_3_3*%
%TO.N,AIN1*%
X52600000Y-69600000D03*
%TO.P,J1,4,Pin_4_4*%
%TO.N,AIN2*%
X55140000Y-69600000D03*
%TD*%
D15*
%TO.N,GND*%
X49100000Y-55600000D03*
%TO.N,Alert*%
X56200000Y-41300000D03*
X53100000Y-41300000D03*
%TO.N,GND*%
X55400000Y-49600000D03*
%TO.N,+3.3V*%
X56123000Y-48897236D03*
%TO.N,GND*%
X52600000Y-51600000D03*
%TO.N,+5V*%
X45900000Y-57877000D03*
X44150000Y-57700000D03*
%TO.N,GND*%
X56700000Y-57000000D03*
X48000000Y-50800000D03*
X53200000Y-56200000D03*
X51000000Y-53500000D03*
X52600000Y-43100000D03*
X49200000Y-60500000D03*
X55400000Y-60500000D03*
X46100000Y-60500000D03*
X53700000Y-60500000D03*
X44900000Y-45000000D03*
%TO.N,+3.3V*%
X57800000Y-48900000D03*
%TD*%
%TO.N,Alert*%
D16*
X53100000Y-41300000D02*
X56200000Y-41300000D01*
%TO.N,+5V*%
X45723000Y-57700000D02*
X45900000Y-57877000D01*
X44150000Y-57700000D02*
X45723000Y-57700000D01*
X46000000Y-57777000D02*
X45900000Y-57877000D01*
X46000000Y-57700000D02*
X46000000Y-57777000D01*
%TO.N,+3.3V*%
X56123000Y-48897236D02*
X57797236Y-48897236D01*
X57797236Y-48897236D02*
X57800000Y-48900000D01*
%TD*%
%TA.AperFunction,Conductor*%
%TO.N,GND*%
G36*
X62603736Y-34600726D02*
G01*
X62893800Y-34618271D01*
X62908655Y-34620075D01*
X63045608Y-34645173D01*
X63107997Y-34676617D01*
X63143485Y-34736803D01*
X63141063Y-34799777D01*
X64976291Y-36401258D01*
X65013146Y-36457795D01*
X65024636Y-36494664D01*
X65028219Y-36509202D01*
X65079923Y-36791340D01*
X65081728Y-36806205D01*
X65099274Y-37096263D01*
X65099500Y-37103750D01*
X65099500Y-68796249D01*
X65099274Y-68803736D01*
X65081728Y-69093794D01*
X65079923Y-69108659D01*
X65028219Y-69390797D01*
X65024635Y-69405335D01*
X64939305Y-69679171D01*
X64933995Y-69693173D01*
X64883715Y-69804888D01*
X64858321Y-69841677D01*
X63641677Y-71058321D01*
X63604888Y-71083715D01*
X63493173Y-71133995D01*
X63479171Y-71139305D01*
X63205335Y-71224635D01*
X63190797Y-71228219D01*
X62908659Y-71279923D01*
X62893794Y-71281728D01*
X62603736Y-71299274D01*
X62596249Y-71299500D01*
X40203751Y-71299500D01*
X40196264Y-71299274D01*
X39906205Y-71281728D01*
X39891340Y-71279923D01*
X39689927Y-71243012D01*
X39633571Y-71216861D01*
X38296330Y-70118414D01*
X37939688Y-69825458D01*
X37905322Y-69780534D01*
X37866000Y-69693163D01*
X37860693Y-69679167D01*
X37775364Y-69405335D01*
X37771780Y-69390797D01*
X37720076Y-69108659D01*
X37718271Y-69093794D01*
X37700726Y-68803736D01*
X37700500Y-68796249D01*
X37700500Y-68702155D01*
X46170000Y-68702155D01*
X46170000Y-69350000D01*
X47086988Y-69350000D01*
X47054075Y-69407007D01*
X47020000Y-69534174D01*
X47020000Y-69665826D01*
X47054075Y-69792993D01*
X47086988Y-69850000D01*
X46170000Y-69850000D01*
X46170000Y-70497844D01*
X46176401Y-70557372D01*
X46176403Y-70557379D01*
X46226645Y-70692086D01*
X46226649Y-70692093D01*
X46312809Y-70807187D01*
X46312812Y-70807190D01*
X46427906Y-70893350D01*
X46427913Y-70893354D01*
X46562620Y-70943596D01*
X46562627Y-70943598D01*
X46622155Y-70949999D01*
X46622172Y-70950000D01*
X47270000Y-70950000D01*
X47270000Y-70033012D01*
X47327007Y-70065925D01*
X47454174Y-70100000D01*
X47585826Y-70100000D01*
X47712993Y-70065925D01*
X47770000Y-70033012D01*
X47770000Y-70950000D01*
X48417828Y-70950000D01*
X48417844Y-70949999D01*
X48477372Y-70943598D01*
X48477379Y-70943596D01*
X48612086Y-70893354D01*
X48612093Y-70893350D01*
X48727187Y-70807190D01*
X48727190Y-70807187D01*
X48813350Y-70692093D01*
X48813354Y-70692086D01*
X48862422Y-70560529D01*
X48904293Y-70504595D01*
X48969757Y-70480178D01*
X49038030Y-70495030D01*
X49066285Y-70516181D01*
X49180213Y-70630109D01*
X49352179Y-70755048D01*
X49352181Y-70755049D01*
X49352184Y-70755051D01*
X49541588Y-70851557D01*
X49743757Y-70917246D01*
X49953713Y-70950500D01*
X49953714Y-70950500D01*
X50166286Y-70950500D01*
X50166287Y-70950500D01*
X50376243Y-70917246D01*
X50578412Y-70851557D01*
X50767816Y-70755051D01*
X50854471Y-70692093D01*
X50939786Y-70630109D01*
X50939788Y-70630106D01*
X50939792Y-70630104D01*
X51090104Y-70479792D01*
X51090106Y-70479788D01*
X51090109Y-70479786D01*
X51215048Y-70307820D01*
X51215047Y-70307820D01*
X51215051Y-70307816D01*
X51219514Y-70299054D01*
X51267488Y-70248259D01*
X51335308Y-70231463D01*
X51401444Y-70253999D01*
X51440486Y-70299056D01*
X51444951Y-70307820D01*
X51569890Y-70479786D01*
X51720213Y-70630109D01*
X51892179Y-70755048D01*
X51892181Y-70755049D01*
X51892184Y-70755051D01*
X52081588Y-70851557D01*
X52283757Y-70917246D01*
X52493713Y-70950500D01*
X52493714Y-70950500D01*
X52706286Y-70950500D01*
X52706287Y-70950500D01*
X52916243Y-70917246D01*
X53118412Y-70851557D01*
X53307816Y-70755051D01*
X53394471Y-70692093D01*
X53479786Y-70630109D01*
X53479788Y-70630106D01*
X53479792Y-70630104D01*
X53630104Y-70479792D01*
X53630106Y-70479788D01*
X53630109Y-70479786D01*
X53755048Y-70307820D01*
X53755047Y-70307820D01*
X53755051Y-70307816D01*
X53759514Y-70299054D01*
X53807488Y-70248259D01*
X53875308Y-70231463D01*
X53941444Y-70253999D01*
X53980486Y-70299056D01*
X53984951Y-70307820D01*
X54109890Y-70479786D01*
X54260213Y-70630109D01*
X54432179Y-70755048D01*
X54432181Y-70755049D01*
X54432184Y-70755051D01*
X54621588Y-70851557D01*
X54823757Y-70917246D01*
X55033713Y-70950500D01*
X55033714Y-70950500D01*
X55246286Y-70950500D01*
X55246287Y-70950500D01*
X55456243Y-70917246D01*
X55658412Y-70851557D01*
X55847816Y-70755051D01*
X55934471Y-70692093D01*
X56019786Y-70630109D01*
X56019788Y-70630106D01*
X56019792Y-70630104D01*
X56170104Y-70479792D01*
X56170106Y-70479788D01*
X56170109Y-70479786D01*
X56295048Y-70307820D01*
X56295047Y-70307820D01*
X56295051Y-70307816D01*
X56391557Y-70118412D01*
X56457246Y-69916243D01*
X56490500Y-69706287D01*
X56490500Y-69493713D01*
X56457246Y-69283757D01*
X56391557Y-69081588D01*
X56295051Y-68892184D01*
X56295049Y-68892181D01*
X56295048Y-68892179D01*
X56170109Y-68720213D01*
X56019786Y-68569890D01*
X55847820Y-68444951D01*
X55658414Y-68348444D01*
X55658413Y-68348443D01*
X55658412Y-68348443D01*
X55456243Y-68282754D01*
X55456241Y-68282753D01*
X55456240Y-68282753D01*
X55294957Y-68257208D01*
X55246287Y-68249500D01*
X55033713Y-68249500D01*
X54985042Y-68257208D01*
X54823760Y-68282753D01*
X54621585Y-68348444D01*
X54432179Y-68444951D01*
X54260213Y-68569890D01*
X54109890Y-68720213D01*
X53984949Y-68892182D01*
X53980484Y-68900946D01*
X53932509Y-68951742D01*
X53864688Y-68968536D01*
X53798553Y-68945998D01*
X53759516Y-68900946D01*
X53755050Y-68892182D01*
X53630109Y-68720213D01*
X53479786Y-68569890D01*
X53307820Y-68444951D01*
X53118414Y-68348444D01*
X53118413Y-68348443D01*
X53118412Y-68348443D01*
X52916243Y-68282754D01*
X52916241Y-68282753D01*
X52916240Y-68282753D01*
X52754957Y-68257208D01*
X52706287Y-68249500D01*
X52493713Y-68249500D01*
X52445042Y-68257208D01*
X52283760Y-68282753D01*
X52081585Y-68348444D01*
X51892179Y-68444951D01*
X51720213Y-68569890D01*
X51569890Y-68720213D01*
X51444949Y-68892182D01*
X51440484Y-68900946D01*
X51392509Y-68951742D01*
X51324688Y-68968536D01*
X51258553Y-68945998D01*
X51219516Y-68900946D01*
X51215050Y-68892182D01*
X51090109Y-68720213D01*
X50939786Y-68569890D01*
X50767820Y-68444951D01*
X50578414Y-68348444D01*
X50578413Y-68348443D01*
X50578412Y-68348443D01*
X50376243Y-68282754D01*
X50376241Y-68282753D01*
X50376240Y-68282753D01*
X50214957Y-68257208D01*
X50166287Y-68249500D01*
X49953713Y-68249500D01*
X49905042Y-68257208D01*
X49743760Y-68282753D01*
X49541585Y-68348444D01*
X49352179Y-68444951D01*
X49180215Y-68569889D01*
X49066285Y-68683819D01*
X49004962Y-68717303D01*
X48935270Y-68712319D01*
X48879337Y-68670447D01*
X48862422Y-68639470D01*
X48813354Y-68507913D01*
X48813350Y-68507906D01*
X48727190Y-68392812D01*
X48727187Y-68392809D01*
X48612093Y-68306649D01*
X48612086Y-68306645D01*
X48477379Y-68256403D01*
X48477372Y-68256401D01*
X48417844Y-68250000D01*
X47770000Y-68250000D01*
X47770000Y-69166988D01*
X47712993Y-69134075D01*
X47585826Y-69100000D01*
X47454174Y-69100000D01*
X47327007Y-69134075D01*
X47270000Y-69166988D01*
X47270000Y-68250000D01*
X46622155Y-68250000D01*
X46562627Y-68256401D01*
X46562620Y-68256403D01*
X46427913Y-68306645D01*
X46427906Y-68306649D01*
X46312812Y-68392809D01*
X46312809Y-68392812D01*
X46226649Y-68507906D01*
X46226645Y-68507913D01*
X46176403Y-68642620D01*
X46176401Y-68642627D01*
X46170000Y-68702155D01*
X37700500Y-68702155D01*
X37700500Y-39213935D01*
X38661300Y-39213935D01*
X38661300Y-40986070D01*
X38661301Y-40986076D01*
X38667708Y-41045683D01*
X38718002Y-41180528D01*
X38718006Y-41180535D01*
X38804252Y-41295744D01*
X38804255Y-41295747D01*
X38919464Y-41381993D01*
X38919471Y-41381997D01*
X38964418Y-41398761D01*
X39054317Y-41432291D01*
X39113927Y-41438700D01*
X39123915Y-41438699D01*
X39190953Y-41458379D01*
X39236711Y-41511179D01*
X39246660Y-41580337D01*
X39217640Y-41643895D01*
X39196811Y-41663014D01*
X39177536Y-41677018D01*
X39037021Y-41817533D01*
X38920213Y-41978305D01*
X38829994Y-42155367D01*
X38829993Y-42155370D01*
X38768587Y-42344362D01*
X38737500Y-42540639D01*
X38737500Y-42739360D01*
X38768587Y-42935637D01*
X38829993Y-43124629D01*
X38829994Y-43124632D01*
X38920213Y-43301694D01*
X39037019Y-43462464D01*
X39177536Y-43602981D01*
X39338306Y-43719787D01*
X39456832Y-43780179D01*
X39494780Y-43799515D01*
X39545576Y-43847490D01*
X39562371Y-43915311D01*
X39539833Y-43981446D01*
X39494780Y-44020485D01*
X39338305Y-44100213D01*
X39177533Y-44217021D01*
X39037021Y-44357533D01*
X38920213Y-44518305D01*
X38829994Y-44695367D01*
X38829993Y-44695370D01*
X38768587Y-44884362D01*
X38737500Y-45080639D01*
X38737500Y-45279360D01*
X38768587Y-45475637D01*
X38829993Y-45664629D01*
X38829994Y-45664632D01*
X38920213Y-45841694D01*
X39037019Y-46002464D01*
X39177536Y-46142981D01*
X39338306Y-46259787D01*
X39456832Y-46320179D01*
X39494780Y-46339515D01*
X39545576Y-46387490D01*
X39562371Y-46455311D01*
X39539833Y-46521446D01*
X39494780Y-46560485D01*
X39338305Y-46640213D01*
X39177533Y-46757021D01*
X39037021Y-46897533D01*
X38920213Y-47058305D01*
X38829994Y-47235367D01*
X38829993Y-47235370D01*
X38768587Y-47424362D01*
X38737500Y-47620639D01*
X38737500Y-47819360D01*
X38768587Y-48015637D01*
X38829993Y-48204629D01*
X38829994Y-48204632D01*
X38920213Y-48381694D01*
X39037019Y-48542464D01*
X39177536Y-48682981D01*
X39338306Y-48799787D01*
X39380243Y-48821155D01*
X39494780Y-48879515D01*
X39545576Y-48927490D01*
X39562371Y-48995311D01*
X39539833Y-49061446D01*
X39494780Y-49100485D01*
X39338305Y-49180213D01*
X39177533Y-49297021D01*
X39037021Y-49437533D01*
X38920213Y-49598305D01*
X38829994Y-49775367D01*
X38829993Y-49775370D01*
X38768587Y-49964362D01*
X38737500Y-50160639D01*
X38737500Y-50359360D01*
X38768587Y-50555637D01*
X38829993Y-50744629D01*
X38829994Y-50744632D01*
X38920213Y-50921694D01*
X39037019Y-51082464D01*
X39177536Y-51222981D01*
X39338306Y-51339787D01*
X39456832Y-51400179D01*
X39494780Y-51419515D01*
X39545576Y-51467490D01*
X39562371Y-51535311D01*
X39539833Y-51601446D01*
X39494780Y-51640485D01*
X39338305Y-51720213D01*
X39177533Y-51837021D01*
X39037021Y-51977533D01*
X38920213Y-52138305D01*
X38829994Y-52315367D01*
X38829993Y-52315370D01*
X38768587Y-52504362D01*
X38737500Y-52700639D01*
X38737500Y-52899360D01*
X38768587Y-53095637D01*
X38829993Y-53284629D01*
X38829994Y-53284632D01*
X38920213Y-53461694D01*
X39037019Y-53622464D01*
X39177536Y-53762981D01*
X39338306Y-53879787D01*
X39456832Y-53940179D01*
X39494780Y-53959515D01*
X39545576Y-54007490D01*
X39562371Y-54075311D01*
X39539833Y-54141446D01*
X39494780Y-54180485D01*
X39338305Y-54260213D01*
X39177533Y-54377021D01*
X39037021Y-54517533D01*
X38920213Y-54678305D01*
X38829994Y-54855367D01*
X38829993Y-54855370D01*
X38768587Y-55044362D01*
X38737500Y-55240639D01*
X38737500Y-55439360D01*
X38768587Y-55635637D01*
X38829993Y-55824629D01*
X38829994Y-55824632D01*
X38920213Y-56001694D01*
X39037019Y-56162464D01*
X39177536Y-56302981D01*
X39338306Y-56419787D01*
X39495332Y-56499796D01*
X39546127Y-56547769D01*
X39562922Y-56615590D01*
X39540385Y-56681725D01*
X39495332Y-56720764D01*
X39338566Y-56800641D01*
X39301283Y-56827729D01*
X39301282Y-56827730D01*
X39915906Y-57442352D01*
X39828429Y-57465792D01*
X39727070Y-57524311D01*
X39644311Y-57607070D01*
X39585792Y-57708429D01*
X39562352Y-57795905D01*
X38947730Y-57181282D01*
X38947729Y-57181283D01*
X38920643Y-57218564D01*
X38830457Y-57395562D01*
X38769075Y-57584476D01*
X38769075Y-57584479D01*
X38738000Y-57780678D01*
X38738000Y-57979321D01*
X38769075Y-58175520D01*
X38769075Y-58175523D01*
X38830457Y-58364437D01*
X38920641Y-58541432D01*
X38947730Y-58578715D01*
X38947731Y-58578716D01*
X39562352Y-57964094D01*
X39585792Y-58051571D01*
X39644311Y-58152930D01*
X39727070Y-58235689D01*
X39828429Y-58294208D01*
X39915905Y-58317647D01*
X39301283Y-58932268D01*
X39301283Y-58932269D01*
X39338567Y-58959358D01*
X39515562Y-59049542D01*
X39704477Y-59110924D01*
X39900679Y-59142000D01*
X40099321Y-59142000D01*
X40295520Y-59110924D01*
X40295523Y-59110924D01*
X40484437Y-59049542D01*
X40661425Y-58959362D01*
X40698716Y-58932268D01*
X40084095Y-58317647D01*
X40171571Y-58294208D01*
X40272930Y-58235689D01*
X40355689Y-58152930D01*
X40414208Y-58051571D01*
X40437647Y-57964094D01*
X41052268Y-58578715D01*
X41079362Y-58541425D01*
X41169542Y-58364437D01*
X41230924Y-58175523D01*
X41230924Y-58175520D01*
X41262000Y-57979321D01*
X41262000Y-57780678D01*
X41238842Y-57634464D01*
X41236734Y-57621153D01*
X43349500Y-57621153D01*
X43349500Y-57778846D01*
X43380261Y-57933489D01*
X43380264Y-57933501D01*
X43440602Y-58079172D01*
X43440609Y-58079185D01*
X43528210Y-58210288D01*
X43528213Y-58210292D01*
X43639707Y-58321786D01*
X43639711Y-58321789D01*
X43770814Y-58409390D01*
X43770827Y-58409397D01*
X43916498Y-58469735D01*
X43916503Y-58469737D01*
X44062541Y-58498786D01*
X44071153Y-58500499D01*
X44071156Y-58500500D01*
X44071158Y-58500500D01*
X44228844Y-58500500D01*
X44228845Y-58500499D01*
X44383497Y-58469737D01*
X44529179Y-58409394D01*
X44620466Y-58348398D01*
X44687143Y-58327520D01*
X44689357Y-58327500D01*
X45171982Y-58327500D01*
X45239021Y-58347185D01*
X45275086Y-58382612D01*
X45278211Y-58387290D01*
X45389707Y-58498786D01*
X45389711Y-58498789D01*
X45520814Y-58586390D01*
X45520827Y-58586397D01*
X45666498Y-58646735D01*
X45666503Y-58646737D01*
X45821153Y-58677499D01*
X45821156Y-58677500D01*
X45821158Y-58677500D01*
X45978844Y-58677500D01*
X45978845Y-58677499D01*
X46133497Y-58646737D01*
X46279179Y-58586394D01*
X46410289Y-58498789D01*
X46521789Y-58387289D01*
X46609394Y-58256179D01*
X46669737Y-58110497D01*
X46700500Y-57955842D01*
X46700500Y-57798158D01*
X46669737Y-57643503D01*
X46665993Y-57634464D01*
X46609397Y-57497828D01*
X46609396Y-57497827D01*
X46609394Y-57497821D01*
X46579506Y-57453090D01*
X46568048Y-57431652D01*
X46556086Y-57402773D01*
X46556079Y-57402760D01*
X46487411Y-57299992D01*
X46487408Y-57299988D01*
X46400011Y-57212591D01*
X46400007Y-57212588D01*
X46297239Y-57143920D01*
X46297226Y-57143913D01*
X46183039Y-57096616D01*
X46183029Y-57096613D01*
X46061805Y-57072500D01*
X46061803Y-57072500D01*
X45938197Y-57072500D01*
X45930066Y-57074117D01*
X45905875Y-57076500D01*
X45817126Y-57076500D01*
X45792939Y-57074118D01*
X45784805Y-57072500D01*
X45784803Y-57072500D01*
X44689357Y-57072500D01*
X44622318Y-57052815D01*
X44620466Y-57051602D01*
X44529185Y-56990609D01*
X44529172Y-56990602D01*
X44383501Y-56930264D01*
X44383489Y-56930261D01*
X44228845Y-56899500D01*
X44228842Y-56899500D01*
X44071158Y-56899500D01*
X44071155Y-56899500D01*
X43916510Y-56930261D01*
X43916498Y-56930264D01*
X43770827Y-56990602D01*
X43770814Y-56990609D01*
X43639711Y-57078210D01*
X43639707Y-57078213D01*
X43528213Y-57189707D01*
X43528210Y-57189711D01*
X43440609Y-57320814D01*
X43440602Y-57320827D01*
X43380264Y-57466498D01*
X43380261Y-57466510D01*
X43349500Y-57621153D01*
X41236734Y-57621153D01*
X41230924Y-57584477D01*
X41230924Y-57584476D01*
X41169542Y-57395562D01*
X41079358Y-57218567D01*
X41052268Y-57181283D01*
X40437647Y-57795904D01*
X40414208Y-57708429D01*
X40355689Y-57607070D01*
X40272930Y-57524311D01*
X40171571Y-57465792D01*
X40084094Y-57442352D01*
X40698716Y-56827731D01*
X40698715Y-56827730D01*
X40661432Y-56800641D01*
X40504668Y-56720765D01*
X40453872Y-56672790D01*
X40437077Y-56604969D01*
X40459615Y-56538834D01*
X40504667Y-56499796D01*
X40661694Y-56419787D01*
X40822464Y-56302981D01*
X40962981Y-56162464D01*
X41079787Y-56001694D01*
X41170005Y-55824632D01*
X41231413Y-55635636D01*
X41262500Y-55439361D01*
X41262500Y-55240639D01*
X41231413Y-55044364D01*
X41170005Y-54855368D01*
X41170005Y-54855367D01*
X41079786Y-54678305D01*
X40962981Y-54517536D01*
X40822464Y-54377019D01*
X40661694Y-54260213D01*
X40505218Y-54180484D01*
X40454423Y-54132510D01*
X40437628Y-54064689D01*
X40460165Y-53998554D01*
X40505218Y-53959515D01*
X40661694Y-53879787D01*
X40822464Y-53762981D01*
X40962981Y-53622464D01*
X41079787Y-53461694D01*
X41170005Y-53284632D01*
X41231413Y-53095636D01*
X41262500Y-52899361D01*
X41262500Y-52700639D01*
X41231413Y-52504364D01*
X41170005Y-52315368D01*
X41170005Y-52315367D01*
X41079786Y-52138305D01*
X40962981Y-51977536D01*
X40822464Y-51837019D01*
X40661694Y-51720213D01*
X40505218Y-51640484D01*
X40454423Y-51592510D01*
X40437628Y-51524689D01*
X40460165Y-51458554D01*
X40505218Y-51419515D01*
X40661694Y-51339787D01*
X40822464Y-51222981D01*
X40962981Y-51082464D01*
X41079787Y-50921694D01*
X41170005Y-50744632D01*
X41231413Y-50555636D01*
X41262500Y-50359361D01*
X41262500Y-50160639D01*
X41231413Y-49964364D01*
X41170005Y-49775368D01*
X41170005Y-49775367D01*
X41124035Y-49685149D01*
X41079787Y-49598306D01*
X40962981Y-49437536D01*
X40822464Y-49297019D01*
X40661694Y-49180213D01*
X40505218Y-49100484D01*
X40454423Y-49052510D01*
X40437628Y-48984689D01*
X40460165Y-48918554D01*
X40505218Y-48879515D01*
X40625185Y-48818389D01*
X55322500Y-48818389D01*
X55322500Y-48976082D01*
X55353261Y-49130725D01*
X55353264Y-49130737D01*
X55413602Y-49276408D01*
X55413609Y-49276421D01*
X55501210Y-49407524D01*
X55501213Y-49407528D01*
X55612707Y-49519022D01*
X55612711Y-49519025D01*
X55743814Y-49606626D01*
X55743827Y-49606633D01*
X55889498Y-49666971D01*
X55889503Y-49666973D01*
X56044153Y-49697735D01*
X56044156Y-49697736D01*
X56044158Y-49697736D01*
X56201844Y-49697736D01*
X56201845Y-49697735D01*
X56356497Y-49666973D01*
X56502179Y-49606630D01*
X56593466Y-49545634D01*
X56660143Y-49524756D01*
X56662357Y-49524736D01*
X57256506Y-49524736D01*
X57323545Y-49544421D01*
X57325397Y-49545634D01*
X57420821Y-49609394D01*
X57566503Y-49669737D01*
X57707258Y-49697735D01*
X57721153Y-49700499D01*
X57721156Y-49700500D01*
X57721158Y-49700500D01*
X57878844Y-49700500D01*
X57878845Y-49700499D01*
X58033497Y-49669737D01*
X58179179Y-49609394D01*
X58310289Y-49521789D01*
X58421789Y-49410289D01*
X58509394Y-49279179D01*
X58569737Y-49133497D01*
X58600500Y-48978842D01*
X58600500Y-48821158D01*
X58600500Y-48821155D01*
X58600499Y-48821153D01*
X58578784Y-48711984D01*
X58569737Y-48666503D01*
X58518359Y-48542464D01*
X58509397Y-48520827D01*
X58509390Y-48520814D01*
X58421789Y-48389711D01*
X58421786Y-48389707D01*
X58310292Y-48278213D01*
X58310288Y-48278210D01*
X58179185Y-48190609D01*
X58179172Y-48190602D01*
X58033501Y-48130264D01*
X58033489Y-48130261D01*
X57878845Y-48099500D01*
X57878842Y-48099500D01*
X57721158Y-48099500D01*
X57721155Y-48099500D01*
X57566510Y-48130261D01*
X57566498Y-48130264D01*
X57420827Y-48190602D01*
X57420815Y-48190609D01*
X57333671Y-48248838D01*
X57266994Y-48269716D01*
X57264780Y-48269736D01*
X56662357Y-48269736D01*
X56595318Y-48250051D01*
X56593466Y-48248838D01*
X56502185Y-48187845D01*
X56502172Y-48187838D01*
X56356501Y-48127500D01*
X56356489Y-48127497D01*
X56201845Y-48096736D01*
X56201842Y-48096736D01*
X56044158Y-48096736D01*
X56044155Y-48096736D01*
X55889510Y-48127497D01*
X55889498Y-48127500D01*
X55743827Y-48187838D01*
X55743814Y-48187845D01*
X55612711Y-48275446D01*
X55612707Y-48275449D01*
X55501213Y-48386943D01*
X55501210Y-48386947D01*
X55413609Y-48518050D01*
X55413602Y-48518063D01*
X55353264Y-48663734D01*
X55353261Y-48663746D01*
X55322500Y-48818389D01*
X40625185Y-48818389D01*
X40661694Y-48799787D01*
X40822464Y-48682981D01*
X40962981Y-48542464D01*
X41079787Y-48381694D01*
X41170005Y-48204632D01*
X41231413Y-48015636D01*
X41262500Y-47819361D01*
X41262500Y-47620639D01*
X41231413Y-47424364D01*
X41170005Y-47235368D01*
X41170005Y-47235367D01*
X41079786Y-47058305D01*
X40962981Y-46897536D01*
X40822464Y-46757019D01*
X40661694Y-46640213D01*
X40505218Y-46560484D01*
X40454423Y-46512510D01*
X40437628Y-46444689D01*
X40460165Y-46378554D01*
X40505218Y-46339515D01*
X40661694Y-46259787D01*
X40822464Y-46142981D01*
X40962981Y-46002464D01*
X41079787Y-45841694D01*
X41170005Y-45664632D01*
X41231413Y-45475636D01*
X41262500Y-45279361D01*
X41262500Y-45080639D01*
X41231413Y-44884364D01*
X41170005Y-44695368D01*
X41170005Y-44695367D01*
X41079786Y-44518305D01*
X40962981Y-44357536D01*
X40822464Y-44217019D01*
X40661694Y-44100213D01*
X40505218Y-44020484D01*
X40454423Y-43972510D01*
X40437628Y-43904689D01*
X40460165Y-43838554D01*
X40505218Y-43799515D01*
X40661694Y-43719787D01*
X40822464Y-43602981D01*
X40962981Y-43462464D01*
X41079787Y-43301694D01*
X41170005Y-43124632D01*
X41231413Y-42935636D01*
X41262500Y-42739361D01*
X41262500Y-42540639D01*
X41231413Y-42344364D01*
X41170005Y-42155368D01*
X41170005Y-42155367D01*
X41124035Y-42065149D01*
X41079787Y-41978306D01*
X40962981Y-41817536D01*
X40822464Y-41677019D01*
X40803192Y-41663017D01*
X40760526Y-41607687D01*
X40754547Y-41538074D01*
X40787153Y-41476279D01*
X40847992Y-41441921D01*
X40876077Y-41438699D01*
X40886071Y-41438699D01*
X40886072Y-41438699D01*
X40945683Y-41432291D01*
X41080531Y-41381996D01*
X41195746Y-41295746D01*
X41251586Y-41221153D01*
X52299500Y-41221153D01*
X52299500Y-41378846D01*
X52330261Y-41533489D01*
X52330264Y-41533501D01*
X52390602Y-41679172D01*
X52390609Y-41679185D01*
X52478210Y-41810288D01*
X52478213Y-41810292D01*
X52589707Y-41921786D01*
X52589711Y-41921789D01*
X52720814Y-42009390D01*
X52720827Y-42009397D01*
X52866498Y-42069735D01*
X52866503Y-42069737D01*
X53021153Y-42100499D01*
X53021156Y-42100500D01*
X53021158Y-42100500D01*
X53178844Y-42100500D01*
X53178845Y-42100499D01*
X53333497Y-42069737D01*
X53479179Y-42009394D01*
X53479185Y-42009390D01*
X53570466Y-41948398D01*
X53637143Y-41927520D01*
X53639357Y-41927500D01*
X55660643Y-41927500D01*
X55727682Y-41947185D01*
X55729534Y-41948398D01*
X55820814Y-42009390D01*
X55820827Y-42009397D01*
X55966498Y-42069735D01*
X55966503Y-42069737D01*
X56121153Y-42100499D01*
X56121156Y-42100500D01*
X56121158Y-42100500D01*
X56278844Y-42100500D01*
X56278845Y-42100499D01*
X56433497Y-42069737D01*
X56579179Y-42009394D01*
X56710289Y-41921789D01*
X56821789Y-41810289D01*
X56909394Y-41679179D01*
X56916089Y-41663017D01*
X56969735Y-41533501D01*
X56969737Y-41533497D01*
X57000500Y-41378842D01*
X57000500Y-41221158D01*
X57000500Y-41221155D01*
X57000499Y-41221153D01*
X57000179Y-41219544D01*
X56969737Y-41066503D01*
X56961113Y-41045682D01*
X56909397Y-40920827D01*
X56909390Y-40920814D01*
X56821789Y-40789711D01*
X56821786Y-40789707D01*
X56710292Y-40678213D01*
X56710288Y-40678210D01*
X56579185Y-40590609D01*
X56579172Y-40590602D01*
X56433501Y-40530264D01*
X56433489Y-40530261D01*
X56278845Y-40499500D01*
X56278842Y-40499500D01*
X56121158Y-40499500D01*
X56121155Y-40499500D01*
X55966510Y-40530261D01*
X55966498Y-40530264D01*
X55820827Y-40590602D01*
X55820814Y-40590609D01*
X55729534Y-40651602D01*
X55662857Y-40672480D01*
X55660643Y-40672500D01*
X53639357Y-40672500D01*
X53572318Y-40652815D01*
X53570466Y-40651602D01*
X53479185Y-40590609D01*
X53479172Y-40590602D01*
X53333501Y-40530264D01*
X53333489Y-40530261D01*
X53178845Y-40499500D01*
X53178842Y-40499500D01*
X53021158Y-40499500D01*
X53021155Y-40499500D01*
X52866510Y-40530261D01*
X52866498Y-40530264D01*
X52720827Y-40590602D01*
X52720814Y-40590609D01*
X52589711Y-40678210D01*
X52589707Y-40678213D01*
X52478213Y-40789707D01*
X52478210Y-40789711D01*
X52390609Y-40920814D01*
X52390602Y-40920827D01*
X52330264Y-41066498D01*
X52330261Y-41066510D01*
X52299500Y-41221153D01*
X41251586Y-41221153D01*
X41281996Y-41180531D01*
X41332291Y-41045683D01*
X41338700Y-40986073D01*
X41338699Y-39290135D01*
X61597500Y-39290135D01*
X61597500Y-40909870D01*
X61597501Y-40909876D01*
X61603908Y-40969483D01*
X61654202Y-41104328D01*
X61654206Y-41104335D01*
X61740452Y-41219544D01*
X61740455Y-41219547D01*
X61855664Y-41305793D01*
X61855671Y-41305797D01*
X61990517Y-41356091D01*
X61990516Y-41356091D01*
X61997444Y-41356835D01*
X62050127Y-41362500D01*
X62088801Y-41362499D01*
X62155838Y-41382182D01*
X62201594Y-41434985D01*
X62211539Y-41504143D01*
X62182516Y-41567699D01*
X62161687Y-41586816D01*
X62037542Y-41677014D01*
X62037533Y-41677021D01*
X61897021Y-41817533D01*
X61780213Y-41978305D01*
X61689994Y-42155367D01*
X61689993Y-42155370D01*
X61628587Y-42344362D01*
X61597500Y-42540639D01*
X61597500Y-42739360D01*
X61628587Y-42935637D01*
X61689993Y-43124629D01*
X61689994Y-43124632D01*
X61780213Y-43301694D01*
X61897019Y-43462464D01*
X62037536Y-43602981D01*
X62198306Y-43719787D01*
X62316832Y-43780179D01*
X62354780Y-43799515D01*
X62405576Y-43847490D01*
X62422371Y-43915311D01*
X62399833Y-43981446D01*
X62354780Y-44020485D01*
X62198305Y-44100213D01*
X62037533Y-44217021D01*
X61897021Y-44357533D01*
X61780213Y-44518305D01*
X61689994Y-44695367D01*
X61689993Y-44695370D01*
X61628587Y-44884362D01*
X61597500Y-45080639D01*
X61597500Y-45279360D01*
X61628587Y-45475637D01*
X61689993Y-45664629D01*
X61689994Y-45664632D01*
X61780213Y-45841694D01*
X61897019Y-46002464D01*
X62037536Y-46142981D01*
X62198306Y-46259787D01*
X62316832Y-46320179D01*
X62354780Y-46339515D01*
X62405576Y-46387490D01*
X62422371Y-46455311D01*
X62399833Y-46521446D01*
X62354780Y-46560485D01*
X62198305Y-46640213D01*
X62037533Y-46757021D01*
X61897021Y-46897533D01*
X61780213Y-47058305D01*
X61689994Y-47235367D01*
X61689993Y-47235370D01*
X61628587Y-47424362D01*
X61597500Y-47620639D01*
X61597500Y-47819360D01*
X61628587Y-48015637D01*
X61689993Y-48204629D01*
X61689994Y-48204632D01*
X61780213Y-48381694D01*
X61897019Y-48542464D01*
X62037536Y-48682981D01*
X62198306Y-48799787D01*
X62240243Y-48821155D01*
X62354780Y-48879515D01*
X62405576Y-48927490D01*
X62422371Y-48995311D01*
X62399833Y-49061446D01*
X62354780Y-49100485D01*
X62198305Y-49180213D01*
X62037533Y-49297021D01*
X61897021Y-49437533D01*
X61780213Y-49598305D01*
X61689994Y-49775367D01*
X61689993Y-49775370D01*
X61628587Y-49964362D01*
X61597500Y-50160639D01*
X61597500Y-50359360D01*
X61628587Y-50555637D01*
X61689993Y-50744629D01*
X61689994Y-50744632D01*
X61780213Y-50921694D01*
X61897019Y-51082464D01*
X62037536Y-51222981D01*
X62198306Y-51339787D01*
X62316832Y-51400179D01*
X62354780Y-51419515D01*
X62405576Y-51467490D01*
X62422371Y-51535311D01*
X62399833Y-51601446D01*
X62354780Y-51640485D01*
X62198305Y-51720213D01*
X62037533Y-51837021D01*
X61897021Y-51977533D01*
X61780213Y-52138305D01*
X61689994Y-52315367D01*
X61689993Y-52315370D01*
X61628587Y-52504362D01*
X61597500Y-52700639D01*
X61597500Y-52899360D01*
X61628587Y-53095637D01*
X61689993Y-53284629D01*
X61689994Y-53284632D01*
X61780213Y-53461694D01*
X61897019Y-53622464D01*
X62037536Y-53762981D01*
X62198306Y-53879787D01*
X62316832Y-53940179D01*
X62354780Y-53959515D01*
X62405576Y-54007490D01*
X62422371Y-54075311D01*
X62399833Y-54141446D01*
X62354780Y-54180485D01*
X62198305Y-54260213D01*
X62037533Y-54377021D01*
X61897021Y-54517533D01*
X61780213Y-54678305D01*
X61689994Y-54855367D01*
X61689993Y-54855370D01*
X61628587Y-55044362D01*
X61597500Y-55240639D01*
X61597500Y-55439360D01*
X61628587Y-55635637D01*
X61689993Y-55824629D01*
X61689994Y-55824632D01*
X61780213Y-56001694D01*
X61897019Y-56162464D01*
X62037536Y-56302981D01*
X62198306Y-56419787D01*
X62355332Y-56499796D01*
X62406127Y-56547769D01*
X62422922Y-56615590D01*
X62400385Y-56681725D01*
X62355332Y-56720764D01*
X62198566Y-56800641D01*
X62161283Y-56827729D01*
X62161282Y-56827730D01*
X62775906Y-57442352D01*
X62688429Y-57465792D01*
X62587070Y-57524311D01*
X62504311Y-57607070D01*
X62445792Y-57708429D01*
X62422352Y-57795905D01*
X61807730Y-57181282D01*
X61807729Y-57181283D01*
X61780643Y-57218564D01*
X61690457Y-57395562D01*
X61629075Y-57584476D01*
X61629075Y-57584479D01*
X61598000Y-57780678D01*
X61598000Y-57979321D01*
X61629075Y-58175520D01*
X61629075Y-58175523D01*
X61690457Y-58364437D01*
X61780641Y-58541432D01*
X61807730Y-58578715D01*
X61807731Y-58578716D01*
X62422352Y-57964094D01*
X62445792Y-58051571D01*
X62504311Y-58152930D01*
X62587070Y-58235689D01*
X62688429Y-58294208D01*
X62775905Y-58317647D01*
X62161283Y-58932268D01*
X62161283Y-58932269D01*
X62198567Y-58959358D01*
X62375562Y-59049542D01*
X62564477Y-59110924D01*
X62760679Y-59142000D01*
X62959321Y-59142000D01*
X63155520Y-59110924D01*
X63155523Y-59110924D01*
X63344437Y-59049542D01*
X63521425Y-58959362D01*
X63558716Y-58932268D01*
X62944095Y-58317647D01*
X63031571Y-58294208D01*
X63132930Y-58235689D01*
X63215689Y-58152930D01*
X63274208Y-58051571D01*
X63297647Y-57964094D01*
X63912268Y-58578715D01*
X63939362Y-58541425D01*
X64029542Y-58364437D01*
X64090924Y-58175523D01*
X64090924Y-58175520D01*
X64122000Y-57979321D01*
X64122000Y-57780678D01*
X64090924Y-57584479D01*
X64090924Y-57584476D01*
X64029542Y-57395562D01*
X63939358Y-57218567D01*
X63912268Y-57181283D01*
X63297647Y-57795904D01*
X63274208Y-57708429D01*
X63215689Y-57607070D01*
X63132930Y-57524311D01*
X63031571Y-57465792D01*
X62944094Y-57442352D01*
X63558716Y-56827731D01*
X63558715Y-56827730D01*
X63521432Y-56800641D01*
X63364668Y-56720765D01*
X63313872Y-56672790D01*
X63297077Y-56604969D01*
X63319615Y-56538834D01*
X63364667Y-56499796D01*
X63521694Y-56419787D01*
X63682464Y-56302981D01*
X63822981Y-56162464D01*
X63939787Y-56001694D01*
X64030005Y-55824632D01*
X64091413Y-55635636D01*
X64122500Y-55439361D01*
X64122500Y-55240639D01*
X64091413Y-55044364D01*
X64030005Y-54855368D01*
X64030005Y-54855367D01*
X63939786Y-54678305D01*
X63822981Y-54517536D01*
X63682464Y-54377019D01*
X63521694Y-54260213D01*
X63365218Y-54180484D01*
X63314423Y-54132510D01*
X63297628Y-54064689D01*
X63320165Y-53998554D01*
X63365218Y-53959515D01*
X63521694Y-53879787D01*
X63682464Y-53762981D01*
X63822981Y-53622464D01*
X63939787Y-53461694D01*
X64030005Y-53284632D01*
X64091413Y-53095636D01*
X64122500Y-52899361D01*
X64122500Y-52700639D01*
X64091413Y-52504364D01*
X64030005Y-52315368D01*
X64030005Y-52315367D01*
X63939786Y-52138305D01*
X63822981Y-51977536D01*
X63682464Y-51837019D01*
X63521694Y-51720213D01*
X63365218Y-51640484D01*
X63314423Y-51592510D01*
X63297628Y-51524689D01*
X63320165Y-51458554D01*
X63365218Y-51419515D01*
X63521694Y-51339787D01*
X63682464Y-51222981D01*
X63822981Y-51082464D01*
X63939787Y-50921694D01*
X64030005Y-50744632D01*
X64091413Y-50555636D01*
X64122500Y-50359361D01*
X64122500Y-50160639D01*
X64091413Y-49964364D01*
X64030005Y-49775368D01*
X64030005Y-49775367D01*
X63984035Y-49685149D01*
X63939787Y-49598306D01*
X63822981Y-49437536D01*
X63682464Y-49297019D01*
X63521694Y-49180213D01*
X63365218Y-49100484D01*
X63314423Y-49052510D01*
X63297628Y-48984689D01*
X63320165Y-48918554D01*
X63365218Y-48879515D01*
X63521694Y-48799787D01*
X63682464Y-48682981D01*
X63822981Y-48542464D01*
X63939787Y-48381694D01*
X64030005Y-48204632D01*
X64091413Y-48015636D01*
X64122500Y-47819361D01*
X64122500Y-47620639D01*
X64091413Y-47424364D01*
X64030005Y-47235368D01*
X64030005Y-47235367D01*
X63939786Y-47058305D01*
X63822981Y-46897536D01*
X63682464Y-46757019D01*
X63521694Y-46640213D01*
X63365218Y-46560484D01*
X63314423Y-46512510D01*
X63297628Y-46444689D01*
X63320165Y-46378554D01*
X63365218Y-46339515D01*
X63521694Y-46259787D01*
X63682464Y-46142981D01*
X63822981Y-46002464D01*
X63939787Y-45841694D01*
X64030005Y-45664632D01*
X64091413Y-45475636D01*
X64122500Y-45279361D01*
X64122500Y-45080639D01*
X64091413Y-44884364D01*
X64030005Y-44695368D01*
X64030005Y-44695367D01*
X63939786Y-44518305D01*
X63822981Y-44357536D01*
X63682464Y-44217019D01*
X63521694Y-44100213D01*
X63365218Y-44020484D01*
X63314423Y-43972510D01*
X63297628Y-43904689D01*
X63320165Y-43838554D01*
X63365218Y-43799515D01*
X63521694Y-43719787D01*
X63682464Y-43602981D01*
X63822981Y-43462464D01*
X63939787Y-43301694D01*
X64030005Y-43124632D01*
X64091413Y-42935636D01*
X64122500Y-42739361D01*
X64122500Y-42540639D01*
X64091413Y-42344364D01*
X64030005Y-42155368D01*
X64030005Y-42155367D01*
X63984035Y-42065149D01*
X63939787Y-41978306D01*
X63822981Y-41817536D01*
X63682464Y-41677019D01*
X63558310Y-41586816D01*
X63515646Y-41531487D01*
X63509667Y-41461874D01*
X63542273Y-41400079D01*
X63603112Y-41365721D01*
X63631196Y-41362499D01*
X63669872Y-41362499D01*
X63729483Y-41356091D01*
X63864331Y-41305796D01*
X63979546Y-41219546D01*
X64065796Y-41104331D01*
X64116091Y-40969483D01*
X64122500Y-40909873D01*
X64122499Y-39290128D01*
X64116091Y-39230517D01*
X64109906Y-39213935D01*
X64065797Y-39095671D01*
X64065793Y-39095664D01*
X63979547Y-38980455D01*
X63979544Y-38980452D01*
X63864335Y-38894206D01*
X63864328Y-38894202D01*
X63729482Y-38843908D01*
X63729483Y-38843908D01*
X63669883Y-38837501D01*
X63669881Y-38837500D01*
X63669873Y-38837500D01*
X63669864Y-38837500D01*
X62050129Y-38837500D01*
X62050123Y-38837501D01*
X61990516Y-38843908D01*
X61855671Y-38894202D01*
X61855664Y-38894206D01*
X61740455Y-38980452D01*
X61740452Y-38980455D01*
X61654206Y-39095664D01*
X61654202Y-39095671D01*
X61603908Y-39230517D01*
X61597501Y-39290116D01*
X61597501Y-39290123D01*
X61597500Y-39290135D01*
X41338699Y-39290135D01*
X41338699Y-39213928D01*
X41332291Y-39154317D01*
X41310417Y-39095671D01*
X41281997Y-39019471D01*
X41281993Y-39019464D01*
X41195747Y-38904255D01*
X41195744Y-38904252D01*
X41080535Y-38818006D01*
X41080528Y-38818002D01*
X40945682Y-38767708D01*
X40945683Y-38767708D01*
X40886083Y-38761301D01*
X40886081Y-38761300D01*
X40886073Y-38761300D01*
X40886064Y-38761300D01*
X39113929Y-38761300D01*
X39113923Y-38761301D01*
X39054316Y-38767708D01*
X38919471Y-38818002D01*
X38919464Y-38818006D01*
X38804255Y-38904252D01*
X38804252Y-38904255D01*
X38718006Y-39019464D01*
X38718002Y-39019471D01*
X38667708Y-39154317D01*
X38661301Y-39213916D01*
X38661301Y-39213923D01*
X38661300Y-39213935D01*
X37700500Y-39213935D01*
X37700500Y-37103750D01*
X37700726Y-37096263D01*
X37718271Y-36806205D01*
X37720076Y-36791340D01*
X37771780Y-36509202D01*
X37775364Y-36494664D01*
X37860696Y-36220821D01*
X37865998Y-36206841D01*
X37973940Y-35967003D01*
X38010400Y-35920399D01*
X39572513Y-34693024D01*
X39626765Y-34668561D01*
X39891344Y-34620075D01*
X39906201Y-34618271D01*
X40196264Y-34600726D01*
X40203751Y-34600500D01*
X40265892Y-34600500D01*
X62534108Y-34600500D01*
X62596249Y-34600500D01*
X62603736Y-34600726D01*
G37*
%TD.AperFunction*%
%TD*%
M02*
